/* XPM */
static char *result[] = {
/* columns rows colors chars-per-pixel */
"48 64 236 2 ",
"   c #020504",
".  c #02060A",
"X  c #030B0C",
"o  c #06140D",
"O  c #010E14",
"+  c #010F19",
"@  c #011216",
"#  c #041B15",
"$  c #01131C",
"%  c #031B1C",
"&  c #0B1815",
"*  c #032619",
"=  c #01331C",
"-  c #02381F",
";  c #021622",
":  c #011A24",
">  c #021D29",
",  c #071B28",
"<  c #022324",
"1  c #042B23",
"2  c #02212C",
"3  c #06272A",
"4  c #142A2B",
"5  c #043423",
"6  c #023C23",
"7  c #043C2B",
"8  c #08382A",
"9  c #032231",
"0  c #0E2731",
"q  c #182D33",
"w  c #1C3535",
"e  c #0D3731",
"r  c #253938",
"t  c #5A2E1A",
"y  c #662E16",
"u  c #64341C",
"i  c #6B341B",
"p  c #6B3518",
"a  c #72341B",
"s  c #73391C",
"d  c #7B3B1C",
"f  c #723516",
"g  c #5A3829",
"h  c #593C2F",
"j  c #6C3B24",
"k  c #663A27",
"l  c #733D22",
"z  c #7B3D21",
"x  c #623C30",
"c  c #086818",
"v  c #106416",
"b  c #014225",
"n  c #02442A",
"m  c #014B2D",
"M  c #0B422D",
"N  c #054A33",
"B  c #184733",
"V  c #025434",
"C  c #045538",
"Z  c #144E38",
"A  c #27433D",
"S  c #30522E",
"D  c #086E2A",
"F  c #01732E",
"G  c #037627",
"H  c #027231",
"J  c #047D34",
"K  c #097436",
"L  c #1A7039",
"P  c #146B31",
"I  c #286932",
"U  c #34591B",
"Y  c #73451D",
"T  c #574135",
"R  c #7D4223",
"E  c #76422A",
"W  c #7D4429",
"Q  c #774727",
"!  c #684836",
"~  c #774A35",
"^  c #714C36",
"/  c #41521B",
"(  c #2C3C43",
")  c #2C4846",
"_  c #364947",
"`  c #35534A",
"'  c #395A55",
"]  c #2E5346",
"[  c #287749",
"{  c #396F4D",
"}  c #1B6040",
"|  c #434D51",
" . c #475958",
".. c #575553",
"X. c #66554B",
"o. c #6C594E",
"O. c #6A5548",
"+. c #775947",
"@. c #6B5B54",
"#. c #685449",
"$. c #486559",
"%. c #4C6F50",
"&. c #77634B",
"*. c #6D6156",
"=. c #6D625B",
"-. c #676C51",
";. c #74655A",
":. c #6F6D54",
">. c #545C61",
",. c #4B6968",
"<. c #586868",
"1. c #55756B",
"2. c #567671",
"3. c #6E6663",
"4. c #6C6C6C",
"5. c #686864",
"6. c #716764",
"7. c #726A65",
"8. c #756D69",
"9. c #786E69",
"0. c #677468",
"q. c #77746C",
"w. c #687877",
"e. c #747473",
"r. c #7D7573",
"t. c #7D7D7C",
"y. c #787978",
"u. c #6F6E72",
"i. c #655E63",
"p. c #833E1D",
"a. c #883F19",
"s. c #833E21",
"d. c #85411E",
"f. c #8C441E",
"g. c #92461E",
"h. c #834423",
"j. c #8B4423",
"k. c #824429",
"l. c #884228",
"z. c #884A28",
"x. c #934A25",
"c. c #954A27",
"v. c #9A532B",
"b. c #864D32",
"n. c #895439",
"m. c #945634",
"M. c #A3562C",
"N. c #A65C35",
"B. c #B26638",
"V. c #895D47",
"C. c #9D654A",
"Z. c #97634E",
"A. c #876858",
"S. c #8D6651",
"D. c #A26E54",
"F. c #817D7D",
"G. c #847874",
"H. c #8E7366",
"J. c #04873A",
"K. c #03903D",
"L. c #0B8B43",
"P. c #069744",
"I. c #188A44",
"U. c #2A8D4F",
"Y. c #35B961",
"T. c #19AB53",
"R. c #4A845B",
"E. c #578469",
"W. c #528869",
"Q. c #69847D",
"!. c #7A817D",
"~. c #64886C",
"^. c #8D847D",
"/. c #87827B",
"(. c #94816B",
"). c #A18576",
"_. c #7D7E82",
"`. c #847E81",
"'. c #6B8885",
"]. c #768B89",
"[. c #798A8A",
"{. c #788483",
"}. c #75958B",
"|. c #7C9894",
" X c #778991",
".X c #838384",
"XX c #8E8583",
"oX c #868688",
"OX c #8C8B8C",
"+X c #888988",
"@X c #938A88",
"#X c #9E928D",
"$X c #8A8C93",
"%X c #8B9B9C",
"&X c #889899",
"*X c #9C9C9C",
"=X c #969797",
"-X c #8A928C",
";X c #A0958C",
":X c #A49A98",
">X c #87A59C",
",X c #A6A09D",
"<X c #8B9AA4",
"1X c #949BA8",
"2X c #9799B0",
"3X c #A19BB3",
"4X c #9AA3A7",
"5X c #9DA6B8",
"6X c #8CA8A3",
"7X c #A4A4A4",
"8X c #ACABAB",
"9X c #A8A7A8",
"0X c #B4B2AE",
"qX c #ACB1B6",
"wX c #B3B4B3",
"eX c #BCBCBC",
"rX c #B9B9B7",
"tX c #A9A3B3",
"yX c #C7BDBB",
"uX c #BEC0BF",
"iX c #BEBDC1",
"pX c #A7B1C3",
"aX c #BCC5C4",
"sX c #C4C3C3",
"dX c #CCCBCD",
"fX c #C8C8C8",
"gX c #D1CECC",
"hX c #D3D3D4",
"jX c #DCDBDB",
"kX c #D7D8D9",
"lX c #CFCFD1",
"zX c #DBDDE0",
"xX c #E8E7E9",
"cX c #EEF1F4",
"vX c #DEE1E2",
"bX c None",
/* pixels */
"bXD.D.Z.C.C.C.C.C.C.D.Z.C.C.C.C.C.C.C.C.C.Z.S.S.S.Z.Z.D.C.C.C.C.C.C.C.C.C.C.C.D.D.D.C.C.C.C.D.bX",
"bXl.R Q E E l E l E z l l E E E E E l E ! G.F.r.`.`.6.~ E E E E W E E E E E E E E W E E W k.j.bX",
"bXk.G.qXdXhXhXkXzXkXkXdXdXfXlXdXdXiX9Xy.,XzXxXcXxXiX#Xu.i.OX7XrXdXsXiXtX4X*X=X-X-X$X$X$X.X3.k.bX",
"bXQ #X0XqX0X0XrXyXrXrXrXrXiXrXwXwX@X`.+X+XOXlXcXcXlX`.4.4.u..X9XeXsXsXiXqX7X7X9X7X7X7X8X,X6.h.bX",
"bXk.:XrXF.g k j ! k j j x x k ! e.eXfXwX8X=X0.eXzX2X_.=X8X8X,Xu.T Q Q z.W Q ~ Q Y g g OXrX6.k.bX",
"bXW :XyX6.p d.f.j.b.l.g.a.s.+.1XhXhXwX!.$.] Z ' ,.Z w  ._.7X8X8X4XA.b.c.v.D.m.v.v.k.t y.eX6.h.bX",
"bXW :XsX3.u R R n.yXH.l.~ XXiX8X9X,.Z C V V V V V V N 2 > q <.1XwXrX@X^ V.dX).z.j.z u r.rX7.h.bX",
"bXk.:XsX6.s R h.z.H.V.~ :XjXrX{.) Z C C H V V V V V C N 9 9 9 ( oXlXjX,X^ V.z.^ j.R u G.rX6.k.bX",
"bXW :XfX6.p V.n.j.k.j :XvXsX_.w 2 3 7 N N V V V V V V V 1 9 9 2 w _.dXkX*X^ h.8Xz.z u G.rX4.k.bX",
"bXh.:XfX6.y H.H.j.~ #XcXgXu.0 9 9 2 9 2 1 M N m m m m N e 2 2 9 9 0 u.gXzX^.! A.l a u G.wX7.h.bX",
"bXW :XfX6.p W k.j.G.xXkX{.4 2 9 > 2 > > > > 8 m m n n m N 2 > > 2 9 9 {.hXhX^.E j.s t G.7X7.h.bX",
"bXk.,XdX3.u d.d.O.kXjX+Xw 2 2 > : > > : > : : 1 7 b n n N 1 : > > , 2 q oXjXlX+.k.z u r.7Xq.h.bX",
"bXk.,XgX6.i h.E 8XxXeX( , > > : > : ; : ; ; ; ; 5 b 6 6 n 1 : > > > > 2 ( wXvX0X~ d u G.wXq.h.bX",
"bXW :XgX6.i l G.jXdX1.M 8 3 > : ; ; ; ; % % q ( A ] M 6 6 1 ; : ; > > 2 , <.dXvXG.j u G.uXr.h.bX",
"bXV.,XgX6.u ^ 0XjX=XA m m b 8 1 ; % ; + ) &X5X6X6X6X%XQ.B = $ ; ; ; : > > w =XxXyX! u r.fX^.d.bX",
"bXW :XgX3.u ;.jXgX$.m m b b b - 5 * ; w.pX5X2X2X<X<X>X|.>X$.$ $ ; ; ; : < 8 $.hXxXG.g G.fX^.h.bX",
"bXk.:XgX6.k 8XjX8XB m n 6 6 6 - = = 2.pX5X5X<X_.'. X&X|.|.>X) @ $ $ ; ; * M Z 0XvXrX! r.fX^.h.bX",
"bXk.#XgX7.#.hXhXw.M n n 6 5 5 5 - A pX5X2X2.A 0 4 w ' '.|.}.|.% + $ ; ; 1 b n w.jXkXo.r.fX^.h.bX",
"bXW #XfX4.q.jXsX` 8 3 * * * % % * |.5X2X2.4 + . . . & ` }.}.|.4 + $ $ % 5 n b ] gXjX/.y.fX^.h.bX",
"bXW :XdX4.*XjX9X0 ; ; ; ; + + O X <X5X|.) @ . . . . X 1 1.}.}.B + + $ 1 5 6 b B 9XvX9Xy.aX^.h.bX",
"bXW :XdX3.rXkX$X, : ; ; $ $ @ O X <X2X'.4 o         o # ' }.}.A + @ # 5 6 6 b M -XjXeXy.wX^.W bX",
"bXW #XdX5.lXlXu.; : ; $ $ O O O O }.%X}.4 . o & & o o # ' ].}.) X @ = = - 6 6 1 0.hXeX4.8XXXh.bX",
"bXW ;XdXe.hXdX>.; : ; $ $ O O X X '.Q.'.Q.{.Q.y.Q.w.2.,.$.' 1.] o * * = 5 5 * ,  .gXqXu.8X^.h.bX",
"bXW ;XdXr.hXsX .: ; $ $ $ O X . o Q.|.<X-X[.[.[.[.[.[.].].Q.' e * * * * % % : : | 0X8Xe.9X^.h.bX",
"bXW ;XdXt.dXuX| ; ; % $ o @ o . _ %X&X%X[.].|.>X>X%X].].].].w.) * o @ @ $ % ; ; | 8X9Xt.,XXXd.bX",
"bXW ;XdX/.eXuX| ; ; $ $ o o * * |.[.1X%X}.&X].) r $.6X].].].].2.8 X O O $ $ ; : _ 8X*Xy.*X^.h.bX",
"bXW ;XdXt.8XrX| : ; % 1 = * * r <X&X*X&X[.>X&     . S <X].].].Q.) @ O $ $ $ ; ; | 9XOXy.*X^.h.bX",
"bXW #XdXt.8X9X| % 1 5 = = * * A 1X%X%X&X].!.        o >X].].].{.` & @ @ $ $ ; : | 8XoXe.,XXXR bX",
"bXW #XdXu.tX8X<.5 b 6 = = * # r 1X%X*X&X].|.o       r %X].].].].' $ O @ $ ; ; : >.*X{.4.7X^.h.bX",
"bXW #XfX4.9X9Xw.M b 6 - = * X r <X%X=X%X].}.$.X   o {.].].].].].' & + $ $ ; : ; u.OXoX5.9X/.h.bX",
"bXk.#XfX4.oX8XoXM b 6 6 * $ O r 1X<X=X&X].].,.    X y.].].].].]. .* $ % % , 3 1 {.oX!.5.9Xr.R bX",
"bXk.#XaX3.e.=X*XB b b 5 % $ $ r 1X1X1X%X X].r . . . ,.].].].].].$.5 = 6 5 6 b B -X/.e.e.7X9.h.bX",
"bXW #XeX7.@.`.=X' n b 1 $ $ + 4 2X*X1X=X[.[.* X . . q ].].].]. X' 5 - - b b m ` =X_.5.e.*X7.h.bX",
"bXW #XwX4.! {.oX!.m n * ; ; $ 4 1X2X2X<X[.[.$. . . . .].].].].].' 5 - 6 b b m y.XX.XX.y.=X9.k.bX",
"bXW OX0X6.k r.t.-XB n : ; ; ; ; _.3X3X2X$X].[.}.].].].].].].[.'.) 5 7 7 b m B =XF.y.k q.=X7.h.bX",
"bXW XX8X3.l X.t.oX$.M , , ; ; ; ( 2XpX2X&X$X[.[.].].].].].].].,.e ; : 3 5 M $.@X_.=.j q.$X8.h.bX",
"bXk.XX8X6.R k e.`._.A < > > ; ; ; w ,.,.,.,.,.,.,.1.1.,.,.,.` q ; : > > : w oX_.y.x R G.OX7.k.bX",
"bXk.XX8X3.d j O._.oX<.< > > > : ; ; , 9 8 7 M 8 M 8 3 0 3 < : : > ; > > < 5.OXt.*.k Q r.oX7.k.bX",
"bXk.XX8X3.y y g u.t.oX( , 2 > : : : ; ; 1 6 b 5 b 6 1 ; ; ; ; : > : > 9 ( oX_.t.x d R r.oX9.h.bX",
"bXW XX8X6.m.B.R T t.`.y.w 9 2 2 > ; > > 3 n b b n n b 8 < : > > 2 > 9 w y._._.! i j.i G.{.8.k.bX",
"bXW XX8X6.Y M.v.E =.t.{.<.0 9 2 > > > > : 7 n m m n m m M 5 3 2 , 9 2 <.oX{.7.k s j.b.r.{.7.h.bX",
"bXb.XX8X6.s j.f.d k =.{.t.>.0 , > 9 2 2 2 1 N m m m m m V N N n 7 e >.oX!.7.x p z.v.s G._.9.m.bX",
"bXk.XX8X3.s d.a.h.f g 9.t.`.>.0 9 9 9 9 2 2 7 N V N C C V V V V Z <.F.t.q.x i v.c.j.j r.!.9.k.bX",
"bXk.XX8X6.i j.j.f.h.p T ;.F.`.w.( , 9 9 9 9 2 N C V N C V V C ] 0._._.7.T s z.f.j.h.i q.t.9.h.bX",
"bXl.XX8X3.s l.f.j.x.d.s h @.y.y.`.i. .<.w.w._.'.}.'.E.W.1.$.$.0.e.y.=.! j R k.j.h.j.i e.!.9.h.bX",
"bXl.XX8X7.s z.n.S.&.:.q.0.~.E.W.,.U.[ [ L L P L K L L [ [ { U.1.W.E.E.0.q.:.A.S.n.h.p q.t.9.k.bX",
"bXk.`.8X4.E #XE.[ U.L.J.J K F F F F F F F F H H F F F F F F F F F F H K G K U.U.1.(.k e.t.9.k.bX",
"bXk.r.7X6.;.R.G F J.K.K.F F J F F F H F F H H H F F F F F F F F F H F F G J J.J.G { +.4.t.9.h.bX",
"bXQ 0.-X=.*.I J H J.P.J.F F F F H H H H F F F F F F F F F F H F F F K F G J.K.K.G L O.q.~.0.Q bX",
"bXI.T.L.D I ~.D F G K.J F F H H F G F D H K K K K K H D D G H H F F F J K.K.K.J.F %.I P J.Y.U.bX",
"bXJ T.P.G c 0.[ D K K.J.L [ %.{ %.-.q.:.;.&.&.&.&.+.+.-.-.-...%.%.{ [ I.J.L.J.G I 0.c G P.T.J bX",
"bXP K.T.J G v ~.%.%.&.&.+.b.m.z.h.f.f.j.j.d.j.j.j.j.j.g.g.f.f.j.l.R ~ ^ ^ -.%.%.0.v G J T.J.I bX",
"bXJ T.Y.J.D c v U h.j.j.j.s.f.v.l.j.f.j.j.j.d.j.j.g.j.j.j.g.g.f.f.j.d.d.j.R u U c c F J Y.T.J bX",
"bXI R.~.{ U U Y Y p.h.g.j.j.d.j.v.d z.f.j.j.d.f.j.j.j.f.g.g.f.j.j.d.d.h.s d.N.f.Y U S { W.W.I bX",
"bX~ ;..X;.u y h.x.R f f h.j.j.a.j.N.d j.j.j.j.j.p.a.p.p.s.s.s.d.d.d.s y p.M.g.h.f.p.i 7.t.7.W bX",
"bXl.9./.3.i c.M.x.M.B.M.s z f.f.p.g.v.d R h.j.j.j.j.j.h.s.p.d a s s z.N.N.j.j.g.j.z u 7._.9.h.bX",
"bXk.7.t.3.l d p.s d d.M.B.d d.j.p.j.j.N.v.c.j.j.x.c.x.x.j.j.x.x.v.N.N.g.g.j.g.j.s.a u 7.t.9.h.bX",
"bXk.7.t.3.l y a d.d p d g.B.R h.j.d j.g.g.x.c.x.x.x.x.j.j.f.f.j.z.j.j.j.j.j.f.h.z l k 7.t.8.k.bX",
"bXk.7.t.=.u u R d.d.W y R f.N.d j.h.d.l.h.f.f.j.j.j.j.j.j.j.j.j.f.j.f.h.h.h.d z h.s u 7._.8.h.bX",
"bXk.6._.=.t p y f p y y a f s R p a y s a a a a a a a a a a a p f p p u y y y i i t t 7.t.7.h.bX",
"bXk.6._.+XX.X.o.o.X.X.X.o.o.o.&.@.o.@.o.o.@.o.o.o.o.o.o.o.o.o.o.o.X.X.X.o.o.X.X.#.X.X..X!.6.h.bX",
"bXW 6.`.!./.oXoXoXoXoXOX+X+XOXOX@X$X$XOXOXOX-XOXOXOX@XOXXXOXOXoXoXoX.XoX.X.X.X`.`.{.y._.F.6.W bX",
"bXl.O.@.*.*.*.*.*.*.*.*.*.*.@.=.*.*.*.;.;.*.*.*.*.*.=.=.=.=.=.*.=.*.=.*.=.@.@.=.@.*.*.*.*.O.k.bX",
"bXb.j.l.k.l.l.l.l.l.l.l.l.l.l.j.l.l.j.l.l.j.l.l.j.l.l.m.l.h.l.l.l.l.l.l.l.l.l.l.l.l.l.l.l.h.z.bX"
};
