/* XPM */
static char *result[] = {
/* columns rows colors chars-per-pixel */
"48 48 133 2 ",
"   c #AF6300",
".  c #B06300",
"X  c #B16400",
"o  c #B56600",
"O  c #B66700",
"+  c #B76700",
"@  c #BB6A00",
"#  c #BC6A00",
"$  c #BE6B00",
"%  c #BF6C00",
"&  c #C06C00",
"*  c #C26D00",
"=  c #C36E00",
"-  c #C46F00",
";  c #C56F00",
":  c #C77000",
">  c #C87100",
",  c #C97100",
"<  c #CA7200",
"1  c #CB7300",
"2  c #CC7300",
"3  c #CE7400",
"4  c #D07500",
"5  c #D17600",
"6  c #D27700",
"7  c #D37700",
"8  c #D77900",
"9  c #D87A00",
"0  c #D97B00",
"q  c #DA7B00",
"w  c #DB7C00",
"e  c #DC7C00",
"r  c #DD7D00",
"t  c #DE7D00",
"y  c #E17F00",
"u  c #E28000",
"i  c #E48100",
"p  c #E58100",
"a  c #E68200",
"s  c #E78200",
"d  c #E98400",
"f  c #EA8400",
"g  c #EC8500",
"h  c #ED8600",
"j  c #EE8600",
"k  c #EF8700",
"l  c #F08800",
"z  c #F28900",
"x  c #F38900",
"c  c #F48A00",
"v  c #F58A00",
"b  c #F68B00",
"n  c #FA8D00",
"m  c #FB8E00",
"M  c #FD8F00",
"N  c #FE8F00",
"B  c #FF9000",
"V  c #FF9001",
"C  c #FF9102",
"Z  c #FF9103",
"A  c #FE9306",
"S  c #FF9308",
"D  c #FE9409",
"F  c #FE940A",
"G  c #FE950B",
"H  c #FF950C",
"J  c #FF960D",
"K  c #FF960E",
"L  c #FF9710",
"P  c #FF9812",
"I  c #FE9915",
"U  c #FE9916",
"Y  c #FF9A18",
"T  c #FF9B19",
"R  c #FF9B1A",
"E  c #FF9D1D",
"W  c #FF9E20",
"Q  c #FF9E21",
"!  c #FE9F22",
"~  c #FE9F23",
"^  c #FEA024",
"/  c #FFA025",
"(  c #FFA026",
")  c #FFA127",
"_  c #FFA128",
"`  c #FFA229",
"'  c #FFA32B",
"]  c #FFA32C",
"[  c #FFA32D",
"{  c #FFA42E",
"}  c #FEA530",
"|  c #FFA632",
" . c #FFA633",
".. c #FFA634",
"X. c #FFA736",
"o. c #FFA838",
"O. c #FFAA3B",
"+. c #FEAA3C",
"@. c #FEAA3D",
"#. c #FFAB3E",
"$. c #FFAC41",
"%. c #FFAD42",
"&. c #FFAD43",
"*. c #FFAE46",
"=. c #FFAF48",
"-. c #FEB049",
";. c #FEB04A",
":. c #FFB04B",
">. c #FFB14D",
",. c #FFB24E",
"<. c #FFB352",
"1. c #FFB453",
"2. c #FFB454",
"3. c #FEB555",
"4. c #FEB556",
"5. c #FEB657",
"6. c #FFB658",
"7. c #FFB75B",
"8. c #FFB85C",
"9. c #FFB85D",
"0. c #FFB95F",
"q. c #FFBA60",
"w. c #FFBA61",
"e. c #FFBB64",
"r. c #FFBC65",
"t. c #FFBD67",
"y. c #FFBE6A",
"u. c #FFBF6C",
"i. c #FFC06E",
"p. c #FFC274",
"a. c #FFC375",
"s. c #FFC376",
"d. c None",
/* pixels */
"d.d.d.d.d.d.d.d.d.d.d.d.d.d.d.d.d.d.d.d.d.d.d.d.d.d.d.d.d.d.d.d.d.d.d.d.d.d.d.d.d.d.d.d.d.d.d.d.",
"d.d.d.d.d.d.d.d.d.d.d.d.d.d.d.d.d.d.d.d.d.d.d.d.d.d.d.d.d.d.d.d.d.d.d.d.d.d.d.d.d.d.d.d.d.d.d.d.",
"d.d.d.d.d.d.d.d.d.d.d.d.d.d.d.d.d.d.d.d.d.d.d.d.d.d.d.d.d.d.d.d.d.d.d.d.d.d.d.d.d.d.d.d.d.d.d.d.",
"d.d.d.d.d.d.d.d.d.d.d.d.d.d.d.d.d.d.d.d.d.d.d.d.d.d.d.d.d.d.d.d.d.d.d.d.d.d.d.d.d.d.d.d.d.d.d.d.",
"d.d.d.d.d.d.d.d.d.d.d.d.d.d.d.d.d.d.d.d.d.d.d.d.d.d.d.d.d.d.d.d.d.d.d.d.d.d.d.d.d.d.d.d.d.d.d.d.",
"d.d.d.d.d.d.d.d.d.d.d.d.d.d.d.d.d.d.d.d.d.d.d.d.d.d.d.d.d.d.d.d.d.d.d.d.d.d.d.d.d.d.d.d.d.d.d.d.",
"d.d.d.d.d.d.d.d.d.d.d.d.d.d.d.d.d.d.d.d.d.d.d.d.d.d.d.d.d.d.d.d.d.d.d.d.d.d.d.d.d.d.d.d.d.d.d.d.",
"d.d.d.d.d.d.d.d.d.d.d.d.d.d.d.d.d.d.d.d.d.d.d.d.d.d.d.d.d.d.d.d.d.d.d.d.d.d.d.d.d.d.d.d.d.d.d.d.",
"d.d.d.d.d.d.d.d.d.d.d.d.d.d.d.d.d.d.d.d.d.d.d.d.d.d.d.d.d.d.d.d.d.d.d.d.d.d.d.d.d.d.d.d.d.d.d.d.",
"d.d.d.d.d.d.d.d.d.d.d.d.d.d.d.d.d.d.d.d.d.d.d.d.d.d.d.d.d.d.d.d.d.d.d.d.d.d.d.d.d.d.d.d.d.d.d.d.",
"d.d.d.d.d.d.d.d.d.d.d.d.d.d.d.d.d.d.d.d.d.d.d.d.d.d.d.d.d.d.d.d.d.d.d.d.d.d.d.d.d.d.d.d.d.d.d.d.",
"d.d.d.d.d.d.d.d.d.d.d.d.d.d.d.d.d.d.d.d.d.d.d.d.d.d.d.d.d.d.d.d.d.d.d.d.d.d.d.d.d.d.d.d.d.d.d.d.",
"d.d.d.d.d.d.d.d.d.d.d.d.d.d.d.d.d.d.d.d.d.d.d.d.d.d.d.d.d.d.d.d.d.d.d.d.d.d.d.d.d.d.d.d.d.d.d.d.",
"d.d.d.d.d.d.d.d.d.d.d.d.d.d.d.d.d.d.d.d.d.d.d.d.d.d.d.d.d.d.d.d.d.d.d.d.d.d.d.d.d.d.d.d.d.d.d.d.",
"d.d.d.d.d.d.d.d.d.d.d.d.d.d.d.d.d.d.d.d.d.$.O.| ` Q T d.d.d.d.d.d.d.d.d.d.d.d.d.d.d.d.d.d.d.d.d.",
"d.d.d.d.d.d.d.d.d.d.d.d.d.d.d.d.d.d.d.3.<.>.*.+.| ) E P S d.d.d.d.d.d.d.d.d.d.d.d.d.d.d.d.d.d.d.",
"d.d.d.d.d.d.d.d.d.d.d.d.d.d.d.d.d.d.q.0.7.1.:.$.X.' W I F N c d.d.d.d.d.d.d.d.d.d.d.d.d.d.d.d.d.",
"d.d.d.d.d.d.d.d.d.d.d.d.d.d.d.d.d.e.y.u.r.8.1.*.O.} ^ Y H B x d d.d.d.d.d.d.d.d.d.d.d.d.d.d.d.d.",
"d.d.d.d.d.d.d.d.d.d.d.d.d.d.d.d.q.y.p.a.u.w.5.-.@.| ( T K C x s t d.d.d.d.d.d.d.d.d.d.d.d.d.d.d.",
"d.d.d.d.d.d.d.d.d.d.d.d.d.d.d.3.0.u.a.s.i.w.6.;.#.| ) R K C x s e d.d.d.d.d.d.d.d.d.d.d.d.d.d.d.",
"d.d.d.d.d.d.d.d.d.d.d.d.d.d.d.<.7.r.u.i.t.9.<.=.+.} / Y H B x p q 3 d.d.d.d.d.d.d.d.d.d.d.d.d.d.",
"d.d.d.d.d.d.d.d.d.d.d.d.d.d.%.>.2.8.w.w.9.4.,.&.o.[ ! U G M l i q < d.d.d.d.d.d.d.d.d.d.d.d.d.d.",
"d.d.d.d.d.d.d.d.d.d.d.d.d.d.O.*.:.1.3.4.<.,.=.@. ._ E P S n h y 8 : d.d.d.d.d.d.d.d.d.d.d.d.d.d.",
"d.d.d.d.d.d.d.d.d.d.d.d.d.d. .+.$.*.;.:.=.&.@...' ! Y J Z v d r 7 - d.d.d.d.d.d.d.d.d.d.d.d.d.d.",
"d.d.d.d.d.d.d.d.d.d.d.d.d.d.` | X.O.@.#.+.o. .' ~ T L A m k i 9 3 & d.d.d.d.d.d.d.d.d.d.d.d.d.d.",
"d.d.d.d.d.d.d.d.d.d.d.d.d.d.Q ( ] { | | } ' ) W Y P F N x d t 6 > @ d.d.d.d.d.d.d.d.d.d.d.d.d.d.",
"d.d.d.d.d.d.d.d.d.d.d.d.d.d.T E Q ^ ( ) / ! E Y L F V b g u 8 2 = O d.d.d.d.d.d.d.d.d.d.d.d.d.d.",
"d.d.d.d.d.d.d.d.d.d.d.d.d.d.d.P I Y T R Y U P J A N b h i q 4 ; # X d.d.d.d.d.d.d.d.d.d.d.d.d.d.",
"d.d.d.d.d.d.d.d.d.d.d.d.d.d.d.S D H J J H G S Z m c g i e 5 : $ O d.d.d.d.d.d.d.d.d.d.d.d.d.d.d.",
"d.d.d.d.d.d.d.d.d.d.d.d.d.d.d.M M M C C B m n c j d u 0 5 , % o . d.d.d.d.d.d.d.d.d.d.d.d.d.d.d.",
"d.d.d.d.d.d.d.d.d.d.d.d.d.d.d.d.c z x x x l h d i t 9 4 > % O . d.d.d.d.d.d.d.d.d.d.d.d.d.d.d.d.",
"d.d.d.d.d.d.d.d.d.d.d.d.d.d.d.d.d.f s a p i y r 9 6 1 ; $ o . d.d.d.d.d.d.d.d.d.d.d.d.d.d.d.d.d.",
"d.d.d.d.d.d.d.d.d.d.d.d.d.d.d.d.d.d.r w q q 8 7 3 > * # O   d.d.d.d.d.d.d.d.d.d.d.d.d.d.d.d.d.d.",
"d.d.d.d.d.d.d.d.d.d.d.d.d.d.d.d.d.d.d.d.3 < : - & # + X d.d.d.d.d.d.d.d.d.d.d.d.d.d.d.d.d.d.d.d.",
"d.d.d.d.d.d.d.d.d.d.d.d.d.d.d.d.d.d.d.d.d.d.d.d.d.d.d.d.d.d.d.d.d.d.d.d.d.d.d.d.d.d.d.d.d.d.d.d.",
"d.d.d.d.d.d.d.d.d.d.d.d.d.d.d.d.d.d.d.d.d.d.d.d.d.d.d.d.d.d.d.d.d.d.d.d.d.d.d.d.d.d.d.d.d.d.d.d.",
"d.d.d.d.d.d.d.d.d.d.d.d.d.d.d.d.d.d.d.d.d.d.d.d.d.d.d.d.d.d.d.d.d.d.d.d.d.d.d.d.d.d.d.d.d.d.d.d.",
"d.d.d.d.d.d.d.d.d.d.d.d.d.d.d.d.d.d.d.d.d.d.d.d.d.d.d.d.d.d.d.d.d.d.d.d.d.d.d.d.d.d.d.d.d.d.d.d.",
"d.d.d.d.d.d.d.d.d.d.d.d.d.d.d.d.d.d.d.d.d.d.d.d.d.d.d.d.d.d.d.d.d.d.d.d.d.d.d.d.d.d.d.d.d.d.d.d.",
"d.d.d.d.d.d.d.d.d.d.d.d.d.d.d.d.d.d.d.d.d.d.d.d.d.d.d.d.d.d.d.d.d.d.d.d.d.d.d.d.d.d.d.d.d.d.d.d.",
"d.d.d.d.d.d.d.d.d.d.d.d.d.d.d.d.d.d.d.d.d.d.d.d.d.d.d.d.d.d.d.d.d.d.d.d.d.d.d.d.d.d.d.d.d.d.d.d.",
"d.d.d.d.d.d.d.d.d.d.d.d.d.d.d.d.d.d.d.d.d.d.d.d.d.d.d.d.d.d.d.d.d.d.d.d.d.d.d.d.d.d.d.d.d.d.d.d.",
"d.d.d.d.d.d.d.d.d.d.d.d.d.d.d.d.d.d.d.d.d.d.d.d.d.d.d.d.d.d.d.d.d.d.d.d.d.d.d.d.d.d.d.d.d.d.d.d.",
"d.d.d.d.d.d.d.d.d.d.d.d.d.d.d.d.d.d.d.d.d.d.d.d.d.d.d.d.d.d.d.d.d.d.d.d.d.d.d.d.d.d.d.d.d.d.d.d.",
"d.d.d.d.d.d.d.d.d.d.d.d.d.d.d.d.d.d.d.d.d.d.d.d.d.d.d.d.d.d.d.d.d.d.d.d.d.d.d.d.d.d.d.d.d.d.d.d.",
"d.d.d.d.d.d.d.d.d.d.d.d.d.d.d.d.d.d.d.d.d.d.d.d.d.d.d.d.d.d.d.d.d.d.d.d.d.d.d.d.d.d.d.d.d.d.d.d.",
"d.d.d.d.d.d.d.d.d.d.d.d.d.d.d.d.d.d.d.d.d.d.d.d.d.d.d.d.d.d.d.d.d.d.d.d.d.d.d.d.d.d.d.d.d.d.d.d.",
"d.d.d.d.d.d.d.d.d.d.d.d.d.d.d.d.d.d.d.d.d.d.d.d.d.d.d.d.d.d.d.d.d.d.d.d.d.d.d.d.d.d.d.d.d.d.d.d."
};
