/* XPM */
static char *result[] = {
/* columns rows colors chars-per-pixel */
"48 48 206 2 ",
"   c #010100",
".  c #080807",
"X  c #010708",
"o  c #080A09",
"O  c #070F11",
"+  c #071214",
"@  c #0E1314",
"#  c #06171A",
"$  c #0A1619",
"%  c #0A1719",
"&  c #0F1719",
"*  c #07191D",
"=  c #151615",
"-  c #141717",
";  c #161616",
":  c #181412",
">  c #181514",
",  c #181716",
"<  c #141819",
"1  c #121D1F",
"2  c #171E1F",
"3  c #1A1B1A",
"4  c #1B1C1C",
"5  c #1A1D1D",
"6  c #1E1E1E",
"7  c #1F1F1E",
"8  c #011C22",
"9  c #012026",
"0  c #012027",
"q  c #052026",
"w  c #052127",
"e  c #092126",
"r  c #012229",
"t  c #052329",
"y  c #04242A",
"u  c #01252C",
"i  c #01252D",
"p  c #04242C",
"a  c #04262E",
"s  c #012831",
"d  c #052B31",
"f  c #01323B",
"g  c #202020",
"h  c #202120",
"j  c #222221",
"k  c #282828",
"l  c #161457",
"z  c #13155B",
"x  c #023440",
"c  c #023943",
"v  c #013C4A",
"b  c #004550",
"n  c #004552",
"m  c #014656",
"M  c #074857",
"N  c #014758",
"B  c #014A5B",
"V  c #014B5C",
"C  c #014C5D",
"Z  c #004D5F",
"A  c #004F5E",
"S  c #00505F",
"D  c #004E61",
"F  c #005060",
"G  c #005160",
"H  c #005161",
"J  c #005261",
"K  c #005362",
"L  c #005565",
"P  c #0C5867",
"I  c #00566A",
"U  c #006073",
"Y  c #006377",
"T  c #006579",
"R  c #00657A",
"E  c #00687A",
"W  c #515157",
"Q  c #595857",
"!  c #006B82",
"~  c #006E85",
"^  c #00718B",
"/  c #00758F",
"(  c #007791",
")  c #007693",
"_  c #007996",
"`  c #007E9C",
"'  c #322CF7",
"]  c #332DFF",
"[  c #332FFE",
"{  c #2E3BFF",
"}  c #2F3FFE",
"|  c #3233FD",
" . c #3331FE",
".. c #3238FC",
"X. c #373DFF",
"o. c #363EFF",
"O. c #403BF7",
"+. c #403AFF",
"@. c #433BFF",
"#. c #433EFF",
"$. c #453FFF",
"%. c #4742FF",
"&. c #6F6BFF",
"*. c #7470FF",
"=. c #7874FF",
"-. c #00849F",
";. c #0285A0",
":. c #0086A1",
">. c #008AA8",
",. c #008CAA",
"<. c #0094B5",
"1. c #0097B4",
"2. c #009DC1",
"3. c #00A6CB",
"4. c #00A6CC",
"5. c #1494FF",
"6. c #1B95FF",
"7. c #1896FF",
"8. c #1D94FF",
"9. c #139BFC",
"0. c #159CFD",
"q. c #0BB0FE",
"w. c #0EB1FE",
"e. c #4ABBFF",
"r. c #56BBFE",
"t. c #00C5ED",
"y. c #00CBF2",
"u. c #00CCF7",
"i. c #00CDF7",
"p. c #04C4FE",
"a. c #0AC4FE",
"s. c #00CAF8",
"d. c #00CBF9",
"f. c #00CCF8",
"g. c #00CDF8",
"h. c #00CEF8",
"j. c #00CCFB",
"k. c #00CCFC",
"l. c #00CCFE",
"z. c #00CDFE",
"x. c #00CEFE",
"c. c #00CFFE",
"v. c #06CDFE",
"b. c #0ACEFE",
"n. c #0ECFFE",
"m. c #10CCF7",
"M. c #10CFFE",
"N. c #11CFFE",
"B. c #00D0FE",
"V. c #00D1FE",
"C. c #00D2FE",
"Z. c #00D3FE",
"A. c #00D4FE",
"S. c #00D5FE",
"D. c #00D6FE",
"F. c #00D8FE",
"G. c #13D0FE",
"H. c #16D0FE",
"J. c #1AD1FE",
"K. c #1CD2FE",
"L. c #1DD2FE",
"P. c #27D4FE",
"I. c #27D6FE",
"U. c #2AD4FE",
"Y. c #34D6FE",
"T. c #3BD8FE",
"R. c #4BD9F6",
"E. c #4EDCFE",
"W. c #5AD7FE",
"Q. c #57DDFF",
"!. c #5CDEFE",
"~. c #5DDEFE",
"^. c #63E0FE",
"/. c #66E0FF",
"(. c #75E3FE",
"). c #77E4FE",
"_. c #7AE4FE",
"`. c #7FE5FE",
"'. c #9F9DFF",
"]. c #A09EFF",
"[. c #A2A0FF",
"{. c #A5A3FF",
"}. c #81E6FE",
"|. c #84E6FE",
" X c #8DE8FE",
".X c #94E9FE",
"XX c #B1EFFF",
"oX c #B3EFFF",
"OX c #B6F0FF",
"+X c #D4D3FE",
"@X c #D5D4FE",
"#X c #DEDDFE",
"$X c #E0DFF7",
"%X c #C2F2FF",
"&X c #E5E4FE",
"*X c #E5E5FE",
"=X c #E9E8FE",
"-X c #ECEBFE",
";X c #E5F9FE",
":X c #F8F7F7",
">X c #F3F2FE",
",X c #F1FCFE",
"<X c #F2FCFE",
"1X c #F6FCFE",
"2X c #FEFEFE",
"3X c None",
/* pixels */
"3X3X3X3X3X3X3X3X3X3X3X3X3X3X3X3X3X3X3X3X3X3X3X3X3X3X3X3X3X3X3X3X3X3X3X3X3X3X3X3X3X3X3X3X3X3X3X3X",
"3X3X3X3X3X3X3X3X3X3X3X3X3X3X3X3X3X3X3X3X3X3X3X3X3X3X3X3X3X3X3X3X3X3X3X3X3X3X3X3X3X3X3X3X3X3X3X3X",
"3X3X3X3X3X3X3X3X3X3X3X3X3X3X3X3X3X3X3X3X3X3X3X3X3X3X3X3X3X3X3X3X3X3X3X3X3X3X3X3X3X3X3X3X3X3X3X3X",
"3X3X3X3X3X3X3X3X3X3X3X3X3X3X3X3X3X3X3X3X3X3X3X3X3X3X3X3X3X3X3X3X3X3X3X3X3X3X3X3X3X3X3X3X3X3X3X3X",
"3X3X3X3X3X3X3X3X3X3X3X3X3X3X3X3X3X3X3X3X3X3X3X3X3X3X3X3X3X3X3X3X3X3X3X3X3X3X3X3X3X3X3X3X3X3X3X3X",
"3X3X3X3X3X3X3X3X3X3X3X3X3X3X3X3X3X3X3X3X3X3X3X3X3X3X3X3X3X3X3X3X3X3X3X3X3X3X3X3X3X3X3X3X3X3X3X3X",
"3X3X3X3X3X3X3X3X3X3X3X3X3X3X3X3X3X3X3X3X3X3X3X3X3X3X3X3X3X3X3X3X3X3X3X3X3X3X3X3X3X3X3X3X3X3X3X3X",
"3X3X3X3X3X3X3X3X3X3X3X3X3X3X3X3X3X3X3X3X3X3X3X3X3X3X3X3X3X3X3X3X3X3X3X3X3X3X3X3X3X3X3X3X3X3X3X3X",
"3X3X3X3X3X3X3X3X3X3X3X3X3X3X3X3X3X3X3X# r r r r r r r # k 3X3X3X3X3X3X3X3X3X3X3X3X3X3X3X3X3X3X3X",
"3X3X3X3X3X3X3X3X3X3X3X3X3X3X3X3X3X3X. U F.Z.Z.A.A.Z.S.T   3X3X3X3X3X3X3X3X3X3X3X3X3X3X3X3X3X3X3X",
"3X3X3X3X3X3X3X3X3X3X3X3X3X3X3X1 u u u ^ B.l.l.l.l.l.x./ i u u * 3X3X3X3X3X3X3X3X3X3X3X3X3X3X3X3X",
"3X3X3X3X3X3X3X3X3X3X3X3X3X3Xj v h.f.s.k.l.l.l.l.l.l.l.j.s.f.g.! 3X3X3X3X3X3X3X3X3X3X3X3X3X3X3X3X",
"3X3X3X3X3X3X3X3X3X3X3X3X3X2 e D V.l.l.l.l.l.l.l.l.l.l.l.l.l.x.( 8 O 3X3X3X3X3X3X3X3X3X3X3X3X3X3X",
"3X3X3X3X3X3X3X3X3X3X3X3X3Xb Z.c.l.l.l.l.l.l.l.l.l.l.l.l.l.l.l.B.Z.L 6 3X3X3X3X3X3X3X3X3X3X3X3X3X",
"3X3X3X3X3X3X3X3X3X3X3X1 9 P I.P.P.K.l.l.l.l.l.l.l.n.P.P.P.G.l.l.B.R 0 % 3X3X3X3X3X3X3X3X3X3X3X3X",
"3X3X3X3X3X3X3X3X3X3X3Xm t.R.<X<X<XXXl.l.l.l.l.l.l.~.<X<X<X(.l.l.l.u.y.C 3X3X3X3X3X3X3X3X3X3X3X3X",
"3X3X3X3X3X3X3X3X3X3X3XM m.Q.2X2X2XOXM.b.l.l.l.v.M./.2X2X2X}.M.b.l.l.V.B 3X3X3X3X3X3X3X3X3X3X3X3X",
"3X3X3X3X3X3X3X3X3X3X3XQ :X2X2X2X2X2X2X Xl.l.l.^.2X2X2X2X2X2X2X|.l.l.V.B 3X3X3X3X3X3X3X3X3X3X3X3X",
"3X3X3X3X3X3X3X3X3X3X3XW $X*X*X-X2X2X2X Xl.l.l.W.&X*X&X>X2X2X2X}.l.l.V.B 3X3X3X3X3X3X3X3X3X3X3X3X",
"3X3X3X3X3X3X3X3X3X3X3Xl O.#.#.*.2X2X2X Xl.l.l.6.@.#.+.[.2X2X2X}.l.l.V.B 3X3X3X3X3X3X3X3X3X3X3X3X",
"3X3X3X3X3X3X3X3X3X= @ z ' ] ] &.2X2X2X Xl.l.l.5.] ] ] '.2X2X2X}.l.l.V.Z X o 3X3X3X3X3X3X3X3X3X3X",
"3X3X3X3X3X3X3X3X3Xr V.9...[ [ &.2X2X2X Xl.l.l.8.|  .] ].2X2X2X}.l.l.l.l.x.H 3X3X3X3X3X3X3X3X3X3X",
"3X3X3X3X3X3X3X3X3Xr Z.0.} o.%.=.2X1X;X`.l.l.l.7.{ X.$.{.2X,X;X).l.l.l.l.V.H 3X3X3X3X3X3X3X3X3X3X",
"3X3X3X3X3X3X3X3X3Xr V.a.w.e.@X#X2X%XY.L.l.l.l.p.q.r.+X=X2X.XY.J.l.l.l.l.B.H 3X3X3X3X3X3X3X3X3X3X",
"3X3X3X3X3X3X3X3X3Xr Z.l.l.E.2X2X2XoXl.l.l.l.l.l.l.!.2X2X2X_.l.l.l.l.l.l.B.H 3X3X3X3X3X3X3X3X3X3X",
"3X3X3X3X3X3X3X3X3Xr Z.l.l.N.T.T.T.U.l.l.l.l.l.l.l.H.T.T.T.K.l.l.l.l.l.l.V.H 3X3X3X3X3X3X3X3X3X3X",
"3X3X3X3X3X3X3X3X3Xr V.l.l.l.l.l.l.l.l.l.l.l.l.l.l.l.l.l.l.l.l.l.l.l.l.l.x.H 3X3X3X3X3X3X3X3X3X3X",
"3X3X3X3X3X3X3X3X3Xr A.l.l.l.l.l.l.l.l.l.l.l.l.l.l.l.l.l.l.l.l.l.l.l.l.l.B.J 3X3X3X3X3X3X3X3X3X3X",
"3X3X3X3X3X3X3X3X3Xr C.l.l.l.l.l.l.l.l.l.l.l.l.l.l.l.l.l.l.l.l.l.l.l.l.l.V.H 3X3X3X3X3X3X3X3X3X3X",
"3X3X3X3X3X3X3X3X3Xr Z.l.l.l.l.l.l.l.l.l.l.l.l.l.l.l.l.l.l.l.l.l.l.l.l.l.x.J 3X3X3X3X3X3X3X3X3X3X",
"3X3X3X3X3X3X3X3X3Xr Z.l.l.l.l.l.l.l.l.l.l.l.l.l.l.l.l.l.l.l.l.l.l.l.l.l.V.H 3X3X3X3X3X3X3X3X3X3X",
"3X3X3X3X3X3X3X3X3Xr V.l.l.l.l.l.l.l.l.l.l.l.l.l.l.l.l.l.l.l.l.l.l.l.l.l.B.H 3X3X3X3X3X3X3X3X3X3X",
"3X3X3X3X3X3X3X3X3Xr A.l.l.l.l.l.l.l.x.x.l.l.l.l.l.l.l.x.x.z.l.l.l.l.l.l.c.J 3X3X3X3X3X3X3X3X3X3X",
"3X3X3X3X3X3X3X3X3Xr Z.l.l.l.l.l.x.3.n -.B.l.l.l.l.l.x.:.n ,.x.l.l.l.l.l.V.H 3X3X3X3X3X3X3X3X3X3X",
"3X3X3X3X3X3X3X3X3Xr D.c.l.l.l.x.C.<.  U D.c.l.l.l.x.C.Y   ~ C.c.l.l.l.c.Z.K 3X3X3X3X3X3X3X3X3X3X",
"3X3X3X3X3X3X3X3X3X+ V ) d.l.l.4.B x 5 p B ` l.l.l.2.B a 7 s B >.l.l.c._ B w 3X3X3X3X3X3X3X3X3X3X",
"3X3X3X3X3X3X3X3X3X3X  N i.x.x.1.  3X3X3X  I B.x.c.;.  3X3X3X  E x.x.Z.C   3X3X3X3X3X3X3X3X3X3X3X",
"3X3X3X3X3X3X3X3X3X3X3Xq A F F c 3X3X3X3X3Xy F F G f 3X3X3X3X3Xd F F S t 3X3X3X3X3X3X3X3X3X3X3X3X",
"3X3X3X3X3X3X3X3X3X3X3Xh ; , - < 3X3X3X3X3Xg : & ; 4 3X3X3X3X3X3 > $ ; h 3X3X3X3X3X3X3X3X3X3X3X3X",
"3X3X3X3X3X3X3X3X3X3X3X3X3X3X3X3X3X3X3X3X3X3X3X3X3X3X3X3X3X3X3X3X3X3X3X3X3X3X3X3X3X3X3X3X3X3X3X3X",
"3X3X3X3X3X3X3X3X3X3X3X3X3X3X3X3X3X3X3X3X3X3X3X3X3X3X3X3X3X3X3X3X3X3X3X3X3X3X3X3X3X3X3X3X3X3X3X3X",
"3X3X3X3X3X3X3X3X3X3X3X3X3X3X3X3X3X3X3X3X3X3X3X3X3X3X3X3X3X3X3X3X3X3X3X3X3X3X3X3X3X3X3X3X3X3X3X3X",
"3X3X3X3X3X3X3X3X3X3X3X3X3X3X3X3X3X3X3X3X3X3X3X3X3X3X3X3X3X3X3X3X3X3X3X3X3X3X3X3X3X3X3X3X3X3X3X3X",
"3X3X3X3X3X3X3X3X3X3X3X3X3X3X3X3X3X3X3X3X3X3X3X3X3X3X3X3X3X3X3X3X3X3X3X3X3X3X3X3X3X3X3X3X3X3X3X3X",
"3X3X3X3X3X3X3X3X3X3X3X3X3X3X3X3X3X3X3X3X3X3X3X3X3X3X3X3X3X3X3X3X3X3X3X3X3X3X3X3X3X3X3X3X3X3X3X3X",
"3X3X3X3X3X3X3X3X3X3X3X3X3X3X3X3X3X3X3X3X3X3X3X3X3X3X3X3X3X3X3X3X3X3X3X3X3X3X3X3X3X3X3X3X3X3X3X3X",
"3X3X3X3X3X3X3X3X3X3X3X3X3X3X3X3X3X3X3X3X3X3X3X3X3X3X3X3X3X3X3X3X3X3X3X3X3X3X3X3X3X3X3X3X3X3X3X3X",
"3X3X3X3X3X3X3X3X3X3X3X3X3X3X3X3X3X3X3X3X3X3X3X3X3X3X3X3X3X3X3X3X3X3X3X3X3X3X3X3X3X3X3X3X3X3X3X3X"
};
