/* XPM */
static char *result[] = {
/* columns rows colors chars-per-pixel */
"48 64 219 2 ",
"   c #5A2E1A",
".  c #662E16",
"X  c #6B3215",
"o  c #64341C",
"O  c #6B341B",
"+  c #6E381C",
"@  c #643719",
"#  c #72341B",
"$  c #73391C",
"%  c #7B3B1C",
"&  c #723516",
"*  c #5A3829",
"=  c #5D3E32",
"-  c #4D3326",
";  c #6C3B24",
":  c #643C2A",
">  c #673925",
",  c #733D22",
"<  c #7B3D21",
"1  c #623C30",
"2  c #34591B",
"3  c #086818",
"4  c #106416",
"5  c #355327",
"6  c #086E2A",
"7  c #146726",
"8  c #01732E",
"9  c #037627",
"0  c #146E39",
"q  c #027231",
"w  c #097136",
"e  c #047D34",
"r  c #0A7A37",
"t  c #1A7039",
"y  c #296A2F",
"u  c #266836",
"i  c #41521B",
"p  c #614C1D",
"a  c #7E411E",
"s  c #574135",
"d  c #7D4223",
"f  c #76422A",
"g  c #7D4429",
"h  c #774727",
"j  c #684836",
"k  c #774A35",
"l  c #714C36",
"z  c #3A4E4B",
"x  c #287749",
"c  c #357144",
"v  c #3A7A52",
"b  c #3C6A47",
"n  c #177240",
"m  c #5F4C44",
"M  c #66554B",
"N  c #69554C",
"B  c #6C594E",
"V  c #6B5644",
"C  c #775947",
"Z  c #6B5A52",
"A  c #6C5F5A",
"S  c #685449",
"D  c #47684A",
"F  c #566A4C",
"G  c #447956",
"H  c #516D57",
"J  c #68654B",
"K  c #77634B",
"L  c #6D6156",
"P  c #6D625B",
"I  c #676C51",
"U  c #74655A",
"Y  c #6F745E",
"T  c #78725B",
"R  c #655E63",
"E  c #576062",
"W  c #5E7B64",
"Q  c #6E6663",
"!  c #6C6B6B",
"~  c #676865",
"^  c #716764",
"/  c #726A65",
"(  c #756D69",
")  c #786E69",
"_  c #687665",
"`  c #77746C",
"'  c #796F71",
"]  c #6C7273",
"[  c #687873",
"{  c #747373",
"}  c #7D7573",
"|  c #7C7975",
" . c #7D7D7C",
".. c #767979",
"X. c #6F6E71",
"o. c #833E1D",
"O. c #883F19",
"+. c #833E21",
"@. c #85411E",
"#. c #8C441E",
"$. c #91451E",
"%. c #97491D",
"&. c #834423",
"*. c #8B4423",
"=. c #824429",
"-. c #884228",
";. c #884A28",
":. c #934A25",
">. c #954A27",
",. c #9C532C",
"<. c #96522A",
"1. c #864D32",
"2. c #895439",
"3. c #985835",
"4. c #85502F",
"5. c #A3562C",
"6. c #A65C35",
"7. c #B6683A",
"8. c #AA6135",
"9. c #895D47",
"0. c #9D654A",
"q. c #97634E",
"w. c #876858",
"e. c #916453",
"r. c #896850",
"t. c #A47459",
"y. c #A1674E",
"u. c #957867",
"i. c #817673",
"p. c #837973",
"a. c #817D7D",
"s. c #8C7D77",
"d. c #897065",
"f. c #038B3C",
"g. c #048539",
"h. c #03903D",
"j. c #0B8B43",
"k. c #198544",
"l. c #039342",
"z. c #099D47",
"x. c #139A44",
"c. c #2A8D4F",
"v. c #15AB51",
"b. c #35B961",
"n. c #21AC59",
"m. c #4A845B",
"M. c #4B8762",
"N. c #588469",
"B. c #5C8F70",
"V. c #64856B",
"C. c #7C807E",
"Z. c #728476",
"A. c #63926D",
"S. c #8D847D",
"D. c #87827B",
"F. c #94816B",
"G. c #A18576",
"H. c #7D7E81",
"J. c #737F82",
"K. c #847E81",
"L. c #7D8382",
"P. c #7F8883",
"I. c #838384",
"U. c #8E8583",
"Y. c #868689",
"T. c #8A878A",
"R. c #8C8B8C",
"E. c #888C89",
"W. c #938A88",
"Q. c #8B928D",
"!. c #9E928D",
"~. c #8E8D91",
"^. c #878C90",
"/. c #8F9293",
"(. c #959395",
"). c #9C9694",
"_. c #9C9C9C",
"`. c #979899",
"'. c #928D96",
"]. c #A0948E",
"[. c #A09A81",
"{. c #A39A99",
"}. c #A59B96",
"|. c #84A092",
" X c #A6A09D",
".X c #9F9EA1",
"XX c #9FA5A7",
"oX c #A3A4A4",
"OX c #ACABAB",
"+X c #A7A9A8",
"@X c #B3B2AE",
"#X c #B8B3AF",
"$X c #AEB1B3",
"%X c #B3B4B3",
"&X c #BBB9B6",
"*X c #BCBCBC",
"=X c #B7B8B7",
"-X c #B1AAA8",
";X c #C5BDBC",
":X c #BEC0BF",
">X c #BEBDC1",
",X c #BEC5C4",
"<X c #C4C4C3",
"1X c #C7C9CA",
"2X c #CBCBCD",
"3X c #C9C8C7",
"4X c #D1CECC",
"5X c #CECDD2",
"6X c #D1CFD2",
"7X c #D3D3D3",
"8X c #DCDBDB",
"9X c #D8D7D8",
"0X c #CFD2D1",
"qX c #DFE1DF",
"wX c #DBDDE0",
"eX c #DAE1E3",
"rX c #E8E7E9",
"tX c #EEF1F4",
"yX c None",
/* pixels */
"yXt.0.q.0.0.0.y.0.0.q.y.0.0.0.0.0.0.0.y.0.e.e.e.e.q.q.y.0.0.0.0.0.0.0.0.0.0.0.t.t.y.0.0.0.0.t.yX",
"yX-.d h f f , f f , < , f k < , f f , f j d.a...K.K.^ l f f f f f f f , f f g , f h f f f =.*.yX",
"yXg p.%X1X6X7X9XwX8X9X2X2X1X5X5X2X>XoX..oX8XrXtXrX>X(...R R.+X=X3X,X>X+X.X.X`.'././.~.~.I.U d yX",
"yXg !.%X$X@X%X&X;X=X=X&X=X>X=X%X%XW.I.T.T.R.0XtXtX5XK.~ X.X.K.+X;X1X<X>X$XoXoXoXoXoXoXOX X/ =.yX",
"yXg {.&X .* > ; ; : ; > 1 > 1 j } *X1X%X+X`.{ ,XwXXXK.`.OX$XoXX.s h g ;.k h h f : - - R.&X/ =.yX",
"yX=.}.<X^ X &.#.*.1.-.$.O.< B .X0X4X%X`.yXyXyXyXyXyXyXyX^..XOXOX_.d.4.>.<.t.3.,.,.d + p.*X/ &.yX",
"yXd }.<XQ @ < d 2.;Xu.&.k W.<XOXOXP.yXyXyXyXyXyXyXyXyXyXyXyX^.XX$X*XW.l 9.4XG.g *.d o p.=X/ &.yX",
"yX=.{.<X/ $ &.&.=.F.9.l }.8X%X~.yXyXyXyXyXyXyXyXyXyXyXyXyXyXyXyX_.2X8X}.V 9.;.l *.% > i.%X/ =.yX",
"yX=.}.<XQ O C 2.>.=.f }.qX<X'.yXyXyXyXyXyXyXyXyXyXyXyXyXyXyXyXyXyXXX2X9X}.j =.-X1.< > i.=X/ d yX",
"yX=.{.3X/ + e.u.*.k W.tX4X^.yXyXyXyXyXyXyXyXyXyXyXyXyXyXyXyXyXyXyXyX`.4X9XW.j w.$ # o i.%X/ =.yX",
"yXg }.3X^ o g -.*.s.rX9X+XyXyXyXyXyXyXyXyXyXyXyXyXyXyXyXyXyXyXyXyXyXyXOX7X7XD.f *.$ o } XX/ &.yX",
"yX=. X2X^ > &.o.S 7X9X*XyXyXyXyXyXyXyXyXyXyXyXyXyXyXyXyXyXyXyXyXyXyXyXyXOX8X7XC -.% o } +X) &.yX",
"yX=. X4X^ O *.h OXrX7XyXyXyXyXyXyXyXyXyXyXyXyXyXyXyXyXyXyXyXyXyXyXyXyXyXyX<X8X@Xl % o i.%X) &.yX",
"yXg {.4X^ . , i.8X7XyXyXyXyXyXyXyXyXyXyXyXyXyXyXyXyXyXyXyXyXyXyXyXyXyXyXyXyX4XqXs.; O i.<X} &.yX",
"yX9. X4X^ > j #XqXyXyXyXyXyXyXyXyXyXyXyXyXyXyXyXyXyXyXyXyXyXyXyXyXyXyXyXyXyX@XtX<Xj o p.<XD.&.yX",
"yXd {.4X^ o U 9X7XyXyXyXyXyXyXyXyXyXyXyXyXyXyXyXyXyXyXyXyXyXyXyXyXyXyXyXyXyXyX9XrX` * p.2XS.@.yX",
"yX=.}.4X/ : -X8XyXyXyXyXyXyXyXyXyXyXyXyXyXyXyXyXyXyXyXyXyXyXyXyXyXyXyXyXyXyXyX=XqX=Xj p.1XS.&.yX",
"yX=.).3X^ M 7X7XyXyXyXyXyXyXyXyXyXyXyXyXyXyXyXyXyXyXyXyXyXyXyXyXyXyXyXyXyXyXyXQ.8X9XB | 1XS.&.yX",
"yXg ].4X! } 8X3XyXyXyXyXyXyXyXyXyXyXyXyXyXyXyXyXyXyXyXyXyXyXyXyXyXyXyXyXyXyXyXyX3XqXD...1XS.&.yX",
"yXg }.3X~ _.8X;XyXyXyXyXyXyXyXyXyXyXyXyXyXyXyXyXyXyXyXyXyXyXyXyXyXyXyXyXyXyXyXyXOX8X+X| :XS.&.yX",
"yXg ).2XQ *X9XyXyXyXyXyXyXyXyXyXyXyXyXyXyXyXyXyXyXyXyXyXyXyXyXyXyXyXyXyXyXyXyXyX`.8X:X..$XS.=.yX",
"yXg ].2X! 2X7XyXyXyXyXyXyXyXyXyXyXyXyXyXyXyXyXyXyXyXyXyXyXyXyXyXyXyXyXyXyXyXyXyXQ.7X:X! OXU.&.yX",
"yXg ].2X` 9X2XyXyXyXyXyXyXyXyXyXyXyXyXyXyXyXyXyXyXyXyXyXyXyXyXyXyXyXyXyXyXyXyXyX .2XOX] OXS.&.yX",
"yX=.!.1X| 7X3XyXyXyXyXyXyXyXyXyXyXyXyXyXyXyXyXyXyXyXyXyXyXyXyXyXyXyXyXyXyXyXyXyX..@XOX..+XS.&.yX",
"yXg ].2X .2X<XyXyXyXyXyXyXyXyXyXyXyXyXyXyXyXyXyXyXyXyXyXyXyXyXyXyXyXyXyXyXyXyXyXyXOXOX..oXS.&.yX",
"yXg ].2XD.*X:XyXyXyXyXyXyXyXyXyXyXyXyXyXyXyXyXyXyXyXyXyXyXyXyXyXyXyXyXyXyXyXyXyXyXOX_. ._.S.&.yX",
"yXg ).2Xa.OX=XyXyXyXyXyXyXyXyXyXyXyXyXyXyXyXyXyXyXyXyXyXyXyXyXyXyXyXyXyXyXyXyXyXyXOXR. ._.S.@.yX",
"yXg !.2X..OXOXyXyXyXyXyXyXyXyXyXyXyXyXyXyXyXyXyXyXyXyXyXyXyXyXyXyXyXyXyXyXyXyXyXyX+XY.{ XXS.&.yX",
"yXg !.1XX.OXOXyXyXyXyXyXyXyXyXyXyXyXyXyXyXyXyXyXyXyXyXyXyXyXyXyXyXyXyXyXyXyXyXyXY._.I.! oXS.&.yX",
"yX=.).1X! +XOXyXyXyXyXyXyXyXyXyXyXyXyXyXyXyXyXyXyXyXyXyXyXyXyXyXyXyXyXyXyXyXyXyXR.Q.I.~ +XD.&.yX",
"yX=.!.<X! T.+XOXyXyXyXyXyXyXyXyXyXyXyXyXyXyXyXyXyXyXyXyXyXyXyXyXyXyXyXyXyXyXyXyXE.I.L.~ +X} d yX",
"yXg !.<X^ ' `.OXyXyXyXyXyXyXyXyXyXyXyXyXyXyXyXyXyXyXyXyXyXyXyXyXyXyXyXyXyXyXyXyX/.H.{ ( oX) &.yX",
"yXg ).*XQ P K.`.yXyXyXyXyXyXyXyXyXyXyXyXyXyXyXyXyXyXyXyXyXyXyXyXyXyXyXyXyXyXyXE (.K.~ ...X/ &.yX",
"yXg ).=XQ j H.I.yXyXyXyXyXyXyXyXyXyXyXyXyXyXyXyXyXyXyXyXyXyXyXyXyXyXyXyXyXyXyXP.R.L.m | `./ =.yX",
"yXg W.OX/ : }  .`.yXyXyXyXyXyXyXyXyXyXyXyXyXyXyXyXyXyXyXyXyXyXyXyXyXyXyXyXyXyX_.D.| j ` (.( &.yX",
"yXd U.OXQ , M  .I.yXyXyXyXyXyXyXyXyXyXyXyXyXyXyXyXyXyXyXyXyXyXyXyXyXyXyXyXyX[ W.C.Z > ` ~.( &.yX",
"yX=.U.OXQ < : } K.(.yXyXyXyXyXyXyXyXyXyXyXyXyXyXyXyXyXyXyXyXyXyXyXyXyXyXyXyXQ.D.| = d i.R.( =.yX",
"yX=.U.OX^ % ; N H.Y.yXyXyXyXyXyXyXyXyXyXyXyXyXyXyXyXyXyXyXyXyXyXyXyXyXyXyXI.R. .A > d } Y./ &.yX",
"yX=.U.OXQ @ . * X. .E.yXyXyXyXyXyXyXyXyXyXyXyXyXyXyXyXyXyXyXyXyXyXyXyXyXyXE.H...: < =.| I.( &.yX",
"yXd U.OX~ <.7.d s  .K.~.yXyXyXyXyXyXyXyXyXyXyXyXyXyXyXyXyXyXyXyXyXyXyXyXI.I.a.m + @.O | I./ -.yX",
"yXg U.OX/ % ,.,.h L  .L.L.yXyXyXyXyXyXyXyXyXyXyXyXyXyXyXyXyXyXyXyXyXyXJ.Y.L.^ > # @.4.i.L.( &.yX",
"yX4.U.OX/ + *.#.% : Q  .L.] yXyXyXyXyXyXyXyXyXyXyXyXyXyXyXyXyXyXyXyX] Y. ./ s & ;.3.$ i.C.) 2.yX",
"yX=.U.OX^ $ &.@.&.X s ( H.a.! yXyXyXyXyXyXyXyXyXyXyXyXyXyXyXyXyXyX[ D. .` = O 3.:.*.; } C.( =.yX",
"yX=.U.OX/ + &.$.#.&.X * ^ a.H.] z yXyXyXyXyXyXyXyXyXyXyXyXyXyXz ]  .H.! = + :.@.*.@.O }  .( &.yX",
"yX=.T.-XP + *.*.#.#.@.+ * ~  ...H.E E L.+XyXyXyXyXyXyX|.[ G H ..| ..P j ; a +.*.&.*.; `  .( &.yX",
"yX=.U.-X^ + ;.2.q.T T ` [ V.W M.G c.x x t 0 0 0 0 0 n x x v v G M.N.N._ Y T d.9.1.=.+ )  .( =.yX",
"yX=.K.-X/ , [.N.v k.j.f.e 6 8 8 q q q 8 8 8 8 8 8 8 8 8 q q 8 8 q 8 q w w r c.c.m.F.: {  .) =.yX",
"yX=.' +X/ U M.q 8 g.h.f.8 8 8 8 8 q 8 8 8 8 8 q 8 8 8 q 8 q 8 8 q 8 8 8 8 9 f.l.w b C X.C.( &.yX",
"yXk _ E.P L u 6 w g.l.g.q 8 q 8 q q q 8 8 8 8 8 8 8 8 q 8 q q 8 q 8 q 8 9 g.h.l.8 y J ( Z.` h yX",
"yXx.n.k.6 u A.6 9 e h.g.8 8 q q 8 8 8 q w w w r w w w 8 w 6 q q 9 9 q r f.h.h.h.6 G y 6 g.b.x.yX",
"yXg.z.l.9 3 W c 6 g.j.g.n x v G F I Y Y K K K K K K K J J I F D D c x k.g.j.h.9 u _ 6 9 x.z.r yX",
"yXt l.v.e 9 4 V.D F J C C 1.<.:.@.*.#.*.*.@.*.*.#.*.*.#.$.*.O.*.1.=.k l C J D D H 4 6 e v.h.y yX",
"yXr x.b.g.9 3 4 2 &.*.*.&.o.*.,.-.*.#.*.*.*.@.#.$.#.*.*.$.*.*.$.*.*.@.@.*.a @ 2 7 3 6 e b.x.g.yX",
"yXy m.A.v 5 i p a &.@.#.$.*.o.*.,.% &.:.*.*.@.@.*.*.*.#.$.$.$.*.*.@.@.&.$ @.6.*.p i 5 v B.M.y yX",
"yXg / I.^ o X =.:.a X & *.*.#.o.*.6.% -.*.*.*.*.o.o.o.o.o.+.o.@.@.&.$ . o.5.$.*.*.o.> ^ H.) g yX",
"yX=./ D.U O >.5.:.,.7.5.# < #.#.o.#.5.% o.&.&.:.*.*.*.*.+.+.% # $ $ *.8.6.*.*.$.*.< o ^ C./ =.yX",
"yX=./  .^ , % o.a $ @.5.7.& &.#.o.*.*.6.,.:.*.*.:.:.:.*.*.*.*.:.,.6.6.%.$.*.$.*.&.# o /  .( &.yX",
"yXg /  .^ , . # a a X % $.7.@.&.-.o.*.$.$.*.:.<.>.:.:.:.$.*.*.*.*.*.#.*.*.*.*.&.% < > /  .( =.yX",
"yX=./ H.P o o < @.&.&.. &.@.8.% *.&.o.*.*.#.#.*.*.*.*.*.*.*.*.*.*.&.@.&.&.-.% $ =.$ o ^ H.( &.yX",
"yX=.^ H.L   @ X X X o . + & $ < X O X # # # # # # # # # # # & & & & + o . . X O o     ( C./ d yX",
"yX=.^ H.E.M B N N M M M B B Z K Z Z Z Z B B B B B Z Z B B B Z B B M M M N M M M m m Z I. ./ &.yX",
"yXg ^ K.C.I.Y.Y.Y.T.T.E.T.E.R.T.R./.R.~.W.~.Q.R.R.W.W.T.T.R.T.E.Y.Y.Y.Y.Y.I.I.I.L.L.K.H. ./ d yX",
"yX-.V A L L Z P L L A L L P A L P L L L P L L L L L P P P A P L L P L L P Z A A L Z L L L V =.yX",
"yX1.+.*.=.-.-.-.-.*.-.-.*.*.-.-.*.-.-.-.-.*.*.-.-.-.-.3.&.-.*.-.-.-.-.-.-.-.-.*.-.-.-.-.-.-.;.yX"
};
