/* XPM */
static char *result[] = {
/* columns rows colors chars-per-pixel */
"48 64 2 1 ",
"  c black",
". c None",
/* pixels */
"................................................",
"................................................",
"................................................",
"................................................",
"....................       .....................",
".................             ..................",
"...............                 ................",
"..............                   ...............",
".............                     ..............",
"............                       .............",
"...........                         ............",
"..........                           ...........",
".........                             ..........",
".........                             ..........",
"........                               .........",
"........                               .........",
".......                                 ........",
".......                                 ........",
".......                                 ........",
"......                                  ........",
"......                                   .......",
"......                                   .......",
"......                                   .......",
"......                                   .......",
"......                                   .......",
"......                                   .......",
"......                                   .......",
"......                                   .......",
"......                                   .......",
"......                                  ........",
".......                                 ........",
".......                                 ........",
".......                                 ........",
"........                               .........",
"........                               .........",
".........                             ..........",
".........                             ..........",
"..........                           ...........",
"...........                         ............",
"............                       .............",
".............                     ..............",
"..............                   ...............",
"...............                 ................",
".................             ..................",
"....................       .....................",
"................................................",
"................................................",
"................................................",
"................................................",
"................................................",
"................................................",
"................................................",
"................................................",
"................................................",
"................................................",
"................................................",
"................................................",
"................................................",
"................................................",
"................................................",
"................................................",
"................................................",
"................................................",
"................................................"
};
