/* XPM */
static char *result[] = {
/* columns rows colors chars-per-pixel */
"48 48 251 2 ",
"   c black",
".  c #010100",
"X  c #020200",
"o  c #0A0803",
"O  c #211C07",
"+  c #211C0C",
"@  c #2F290F",
"#  c #322A0B",
"$  c #30290D",
"%  c #65571D",
"&  c #7A6618",
"*  c #B59000",
"=  c #B69100",
"-  c #B79200",
";  c #B89300",
":  c #B99400",
">  c #BA9400",
",  c #BA9500",
"<  c #BB9500",
"1  c #BC9600",
"2  c #BD9700",
"3  c #BE9800",
"4  c #C09900",
"5  c #C09A00",
"6  c #C19A00",
"7  c #C29B00",
"8  c #C49C00",
"9  c #C49D00",
"0  c #C59E00",
"q  c #C69E00",
"w  c #C79F00",
"e  c #C89F00",
"r  c #C9A000",
"t  c #C9A100",
"y  c #CAA100",
"u  c #CAA200",
"i  c #CBA200",
"p  c #CCA300",
"a  c #CCA400",
"s  c #CDA400",
"d  c #CEA400",
"f  c #CFA600",
"g  c #D0A600",
"h  c #D1A700",
"j  c #D2A700",
"k  c #D2A800",
"l  c #D3A800",
"z  c #D3A900",
"x  c #D4A900",
"c  c #D4AA00",
"v  c #D5AA00",
"b  c #D6AA00",
"n  c #D6AB00",
"m  c #D7AC00",
"M  c #D8AC00",
"N  c #D8AD00",
"B  c #D9AD00",
"V  c #DAAE00",
"C  c #DBAF00",
"Z  c #DCB000",
"A  c #DEB100",
"S  c #DEB200",
"D  c #DFB200",
"F  c #DFB300",
"G  c #E0B300",
"H  c #E1B300",
"J  c #E0B400",
"K  c #E1B400",
"L  c #E3B600",
"P  c #E4B600",
"I  c #E4B700",
"U  c #E5B700",
"Y  c #E6B800",
"T  c #E7B800",
"R  c #E7B900",
"E  c #E8B900",
"W  c #E9BA00",
"Q  c #E9BB00",
"!  c #EABB00",
"~  c #EBBC00",
"^  c #EDBD00",
"/  c #EDBE00",
"(  c #EEBE00",
")  c #EEBF00",
"_  c #EFBF00",
"`  c #DBB82D",
"'  c #C6A830",
"]  c #D9B832",
"[  c #EFC000",
"{  c #F0C000",
"}  c #F1C000",
"|  c #F1C100",
" . c #F2C200",
".. c #F3C200",
"X. c #F3C300",
"o. c #F4C300",
"O. c #F4C400",
"+. c #F5C400",
"@. c #F6C500",
"#. c #F7C500",
"$. c #F7C600",
"%. c #F8C600",
"&. c #F8C700",
"*. c #F9C700",
"=. c #FAC800",
"-. c #FAC900",
";. c #FBC900",
":. c #FCC900",
">. c #FCCA00",
",. c #FDCA00",
"<. c #FDCB01",
"1. c #FECB00",
"2. c #FECB01",
"3. c #FECB02",
"4. c #FECC01",
"5. c #FECC02",
"6. c #FFCC02",
"7. c #FFCC03",
"8. c #FFCD03",
"9. c #FFCD04",
"0. c #FFCD05",
"q. c #FFCD06",
"w. c #FFCD07",
"e. c #FFCE06",
"r. c #FFCE07",
"t. c #FFCD08",
"y. c #FFCE08",
"u. c #FFCE09",
"i. c #FFCE0A",
"p. c #FFCE0B",
"a. c #FFCF0B",
"s. c #FFCF0C",
"d. c #FFCF0D",
"f. c #FFCF0E",
"g. c #FFCF0F",
"h. c #FFCF10",
"j. c #FFD010",
"k. c #FFD011",
"l. c #FFD012",
"z. c #FFD013",
"x. c #FFD014",
"c. c #FFD015",
"v. c #FFD115",
"b. c #FFD116",
"n. c #FFD117",
"m. c #FFD118",
"M. c #FFD119",
"N. c #FFD11A",
"B. c #FFD21A",
"V. c #FFD21B",
"C. c #FFD21C",
"Z. c #FFD21D",
"A. c #FFD21E",
"S. c #FFD21F",
"D. c #EAC42C",
"F. c #FFD320",
"G. c #FFD321",
"H. c #FFD322",
"J. c #FFD323",
"K. c #FFD324",
"L. c #FFD424",
"P. c #FFD425",
"I. c #FFD426",
"U. c #FFD427",
"Y. c #FFD428",
"T. c #FFD529",
"R. c #FFD52A",
"E. c #FFD52B",
"W. c #FFD52C",
"Q. c #FFD52D",
"!. c #FFD52E",
"~. c #FFD62E",
"^. c #FFD62F",
"/. c #F7D032",
"(. c #FFD630",
"). c #FFD631",
"_. c #FFD632",
"`. c #FFD633",
"'. c #FFD733",
"]. c #FFD734",
"[. c #FFD735",
"{. c #FFD736",
"}. c #FFD737",
"|. c #FFD738",
" X c #FFD838",
".X c #FFD839",
"XX c #FFD83A",
"oX c #FFD83B",
"OX c #FFD83C",
"+X c #FFD83D",
"@X c #FFD93E",
"#X c #FFD93F",
"$X c #B19B40",
"%X c #D9BD4A",
"&X c #FFD940",
"*X c #FED841",
"=X c #FFD941",
"-X c #FFDA41",
";X c #FFDA42",
":X c #FFDA43",
">X c #FFDA44",
",X c #FFDA45",
"<X c #FFDA46",
"1X c #FFDB47",
"2X c #F9D74D",
"3X c #FFDB48",
"4X c #FFDB4A",
"5X c #FFDB4B",
"6X c #FFDC4B",
"7X c #FFDC4C",
"8X c #FFDC4D",
"9X c #FFDC4F",
"0X c #E4C854",
"qX c #FFDC50",
"wX c #FFDD51",
"eX c #FFDD52",
"rX c #FFDD53",
"tX c #FFDD54",
"yX c #FFDD55",
"uX c #FFDE55",
"iX c #FFDE56",
"pX c #FFDE57",
"aX c #FFDE58",
"sX c #FFDE59",
"dX c #FFDE5A",
"fX c #FFDF5C",
"gX c #FFDF5D",
"hX c #FFDF5E",
"jX c #FFE05F",
"kX c #FEDF62",
"lX c #FFE060",
"zX c #FFE062",
"xX c #FFE063",
"cX c #FFE064",
"vX c #FFE165",
"bX c #FFE166",
"nX c #FFE167",
"mX c #FFE168",
"MX c #FFE169",
"NX c #FFE26A",
"BX c #FFE26C",
"VX c #FFE26D",
"CX c #FFE36F",
"ZX c #FFE370",
"AX c #FFE471",
"SX c #FFE473",
"DX c #FFE577",
"FX c #FFE578",
"GX c #FFE579",
"HX c #FFE57A",
"JX c None",
/* pixels */
"JXJXJXJXJXJXJXJXJXJXJXJXJXJXJXJXJXJXJXJXJXJXJXJXJXJXJXJXJXJXJXJXJXJXJXJXJXJXJXJXJXJXJXJXJXJXJXJX",
"JXJXJXJXJXJXJXJXJXJXJXJXJXJXJXJXJXJXJXJXJXJXJXJXJXJXJXJXJXJXJXJXJXJXJXJXJXJXJXJXJXJXJXJXJXJXJXJX",
"JXJXJXJXJXJXJXJXJXJXJXJXJXJXJXJXJXJXJXJXJXJXJXJXJXJXJXJXJXJXJXJXJXJXJXJXJXJXJXJXJXJXJXJXJXJXJXJX",
"JXJXJXJXJXJXJXJXJXJXJXJXJXJXJXJXJXJXJXJXJXJXJXJXJXJXJXJXJXJXJXJXJXJXJXJXJXJXJXJXJXJXJXJXJXJXJXJX",
"JXJXJXJXJXJXJXJXJXJXJXJXJXJXJXJXJXJXJXJXJXJXJXJXJXJXJXJXJXJXJXJXJXJXJXJXJXJXJXJXJXJXJXJXJXJXJXJX",
"JXJXJXJXJXJXJXJXJXJXJXJXJXJXJXJXJXJXJXJXJXJXJXJXJXJXJXJXJXJXJXJXJXJXJXJXJXJXJXJXJXJXJXJXJXJXJXJX",
"JXJXJXJXJXJXJXJXJXJXJXJXJXJXJXJXJXJXJXJXJXJXJXJXJXJXJXJXJXJXJXJXJXJXJXJXJXJXJXJXJXJXJXJXJXJXJXJX",
"JXJXJXJXJXJXJXJXJXJXJXJXJXJXJXJXJXJXJXJXJXJXJXJXJXJXJXJXJXJXJXJXJXJXJXJXJXJXJXJXJXJXJXJXJXJXJXJX",
"JXJXJXJXJXJXJXJXJXJXJXJXJXJXJXJXJXJXJXJXJXJXJXJXJXJXJXJXJXJXJXJXJXJXJXJXJXJXJXJXJXJXJXJXJXJXJXJX",
"JXJXJXJXJXJXJXJXJXJXJXJXJXJXJXJXJXJXJXJXJXJXJXJXJXJXJXJXJXJXJXJXJXJXJXJXJXJXJXJXJXJXJXJXJXJXJXJX",
"JXJXJXJXJXJXJXJXJXJXJXJXJXJXJX_ JXJXJXJXJXJXJXJXJXJXJXJXJXJXJXJX2 JXJXJXJXJXJXJXJXJXJXJXJXJXJXJX",
"JXJXJXJXJXJXJXJXJXJXJXJXJXJX@.&.;.JXJXJXJXJXJXJXJXJXJXJXJXJXJXi 8 2 JXJXJXJXJXJXJXJXJXJXJXJXJXJX",
"JXJXJXJXJXJXJXJXJXJXJXJXJX;.2.7.0.JXJXJXJXJXJXJXJXJXJXJXJXJXJXk i 8 < JXJXJXJXJXJXJXJXJXJXJXJXJX",
"JXJXJXJXJXJXJXJXJXJXJXJX6.0.u.s.f.h.JXJXJXJXJXJXJXJXJXJXJXJXJ V j u 7 , JXJXJXJXJXJXJXJXJXJXJXJX",
"JXJXJXJXJXJXJXJXJXJXJX9.u.d.k.x.n.M.V.JXJXJXJXJXJXJXJXJXJXJXR G M g e 4 ; JXJXJXJXJXJXJXJXJXJXJX",
"JXJXJXJXJXJXJXJXJXJXJXp.k.b.V.A.G.J.L.JXJXJXJXJXJXJXJXJXJX@.) R S m d q 1 = JXJXJXJXJXJXJXJXJXJX",
"JXJXJXJXJXJXJXJXJXJXd.l.M.A.J.I.T.W.Q.Q.JXJXJXJXJXJXJXJX9.>.o.^ P Z l u 6 ; JXJXJXJXJXJXJXJXJXJX",
"JXJXJXJXJXJXJXJXJXJXx.N.G.I.W.D./.{.}.}.}.JXJXJXJXJXJXJXp.9.;...! K M f q 2 * JXJXJXJXJXJXJXJXJX",
"JXJXJXJXJXJXJXJXJXl.N.F.U.Q.& O # ' &X&X@XJXJXJXJXJXJXm.j.u.2.%.( Y Z z t 5 - JXJXJXJXJXJXJXJXJX",
"JXJXJXJXJXJXJXJXJXm.F.U.^.` .     $ 4X4X3X,XJXJXJXJXP.S.b.f.0.>...! G m s 9 > JXJXJXJXJXJXJXJXJX",
"JXJXJXJXJXJXJXJXJXC.P.W.[.] X     @ rXrXwX8XJXJXJXJXE.K.V.l.u.5.@./ L V g w 1 JXJXJXJXJXJXJXJXJX",
"JXJXJXJXJXJXJXJXJXF.T.).XX*X% o + $XgXfXsXyX9XJXJX X(.U.S.b.s.9.=.{ Y Z k r 3 - JXJXJXJXJXJXJXJX",
"JXJXJXJXJXJXJXJXJXJ.Q.[.@X<X2X%X0XkXbXbXzXfXyX9X>X+X].E.H.M.g.e.:...E D x i 4 ; JXJXJXJXJXJXJXJX",
"JXJXJXJXJXJXJXJXJXP.^.|.-X4XrXfXcXNXCXCXMXxXdXeX3X&X}.~.K.V.k.y.<.o.Q G v p 6 : JXJXJXJXJXJXJXJX",
"JXJXJXJXJXJXJXJXJXI.)..X:X7XiXjXmXZXFXDXCXnXgXtX4X;X|.^.P.C.l.u.2.+.! K n a 7 , JXJXJXJXJXJXJXJX",
"JXJXJXJXJXJXJXJXJXI.).XX>X7XpXjXNXAXHXGXZXmXhXuX6X;X.X^.P.C.l.u.2.+.~ K n a 7 , JXJXJXJXJXJXJXJX",
"JXJXJXJXJXJXJXJXJXI.(..X:X6XyXgXbXVXSXSXBXvXfXrX4X=X}.^.P.C.k.u.<.O.! J n p 6 JXJXJXJXJXJXJXJXJX",
"JXJXJXJXJXJXJXJXJXP.~.}.&X3XwXsXlXbXNXNXbXjXaXqX1X@X[.W.J.B.h.r.>.X.W F c i 6 JXJXJXJXJXJXJXJXJX",
"JXJXJXJXJXJXJXJXJXJXR.'.OX:X7XeXsXgXlXlXgXaXwX4X;XoX_.T.F.n.d.0.-.| T A l y 4 JXJXJXJXJXJXJXJXJX",
"JXJXJXJXJXJXJXJXJXJXU.^.}.@X<X7XwXyXaXpXyXwX5X,X+X{.Q.I.Z.x.p.8.%.) U C h w JXJXJXJXJXJXJXJXJXJX",
"JXJXJXJXJXJXJXJXJXJXK.T.).}.@X>X3X6X8X8X6X3X:X+X{.(.Y.G.m.h.e.<.o.~ K N d 0 JXJXJXJXJXJXJXJXJXJX",
"JXJXJXJXJXJXJXJXJXJXJXK.E.).|.OX&X:X>X>X;X#XoX}.(.R.H.C.z.p.8.=.{ E A v i JXJXJXJXJXJXJXJXJXJXJX",
"JXJXJXJXJXJXJXJXJXJXJXJXK.T.^.'.}..XXXXX.X}.`.!.Y.H.V.c.d.q.>.+.~ L V h JXJXJXJXJXJXJXJXJXJXJXJX",
"JXJXJXJXJXJXJXJXJXJXJXJXS.H.U.E.^.)._._.(.~.R.I.G.C.c.g.w.4.$.{ T D v d JXJXJXJXJXJXJXJXJXJXJXJX",
"JXJXJXJXJXJXJXJXJXJXJXJXJXJXA.H.P.I.U.U.I.P.G.A.M.x.d.t.3.*.} Q H B h JXJXJXJXJXJXJXJXJXJXJXJXJX",
"JXJXJXJXJXJXJXJXJXJXJXJXJXJXJXM.C.A.S.S.A.C.M.v.k.s.q.5.*. .~ L C b JXJXJXJXJXJXJXJXJXJXJXJXJXJX",
"JXJXJXJXJXJXJXJXJXJXJXJXJXJXJXJXz.x.x.x.z.k.g.s.y.9.,.%.| ~ L A JXJXJXJXJXJXJXJXJXJXJXJXJXJXJXJX",
"JXJXJXJXJXJXJXJXJXJXJXJXJXJXJXJXJXJXs.a.i.y.q.8.<.=.+.[ ! I JXJXJXJXJXJXJXJXJXJXJXJXJXJXJXJXJXJX",
"JXJXJXJXJXJXJXJXJXJXJXJXJXJXJXJXJXJXJXJXJXJX1.;.#...) JXJXJXJXJXJXJXJXJXJXJXJXJXJXJXJXJXJXJXJXJX",
"JXJXJXJXJXJXJXJXJXJXJXJXJXJXJXJXJXJXJXJXJXJXJXJXJXJXJXJXJXJXJXJXJXJXJXJXJXJXJXJXJXJXJXJXJXJXJXJX",
"JXJXJXJXJXJXJXJXJXJXJXJXJXJXJXJXJXJXJXJXJXJXJXJXJXJXJXJXJXJXJXJXJXJXJXJXJXJXJXJXJXJXJXJXJXJXJXJX",
"JXJXJXJXJXJXJXJXJXJXJXJXJXJXJXJXJXJXJXJXJXJXJXJXJXJXJXJXJXJXJXJXJXJXJXJXJXJXJXJXJXJXJXJXJXJXJXJX",
"JXJXJXJXJXJXJXJXJXJXJXJXJXJXJXJXJXJXJXJXJXJXJXJXJXJXJXJXJXJXJXJXJXJXJXJXJXJXJXJXJXJXJXJXJXJXJXJX",
"JXJXJXJXJXJXJXJXJXJXJXJXJXJXJXJXJXJXJXJXJXJXJXJXJXJXJXJXJXJXJXJXJXJXJXJXJXJXJXJXJXJXJXJXJXJXJXJX",
"JXJXJXJXJXJXJXJXJXJXJXJXJXJXJXJXJXJXJXJXJXJXJXJXJXJXJXJXJXJXJXJXJXJXJXJXJXJXJXJXJXJXJXJXJXJXJXJX",
"JXJXJXJXJXJXJXJXJXJXJXJXJXJXJXJXJXJXJXJXJXJXJXJXJXJXJXJXJXJXJXJXJXJXJXJXJXJXJXJXJXJXJXJXJXJXJXJX",
"JXJXJXJXJXJXJXJXJXJXJXJXJXJXJXJXJXJXJXJXJXJXJXJXJXJXJXJXJXJXJXJXJXJXJXJXJXJXJXJXJXJXJXJXJXJXJXJX",
"JXJXJXJXJXJXJXJXJXJXJXJXJXJXJXJXJXJXJXJXJXJXJXJXJXJXJXJXJXJXJXJXJXJXJXJXJXJXJXJXJXJXJXJXJXJXJXJX"
};
