/* XPM */
static char *result[] = {
/* columns rows colors chars-per-pixel */
"48 48 73 1 ",
"  c #010100",
". c #0A0803",
"X c #211C07",
"o c #211C0C",
"O c #2F290F",
"+ c #312A0C",
"@ c #65571D",
"# c #7A6618",
"$ c #BC9601",
"% c #BE9902",
"& c #C39C02",
"* c #C89F00",
"= c #C59E08",
"- c #C6A004",
"; c #CBA300",
": c #D1A700",
"> c #D5AA00",
", c #DAAE00",
"< c #D3AB0C",
"1 c #DEB101",
"2 c #DAB10C",
"3 c #DDB410",
"4 c #E2B500",
"5 c #E6B801",
"6 c #EBBC00",
"7 c #E1B70D",
"8 c #EABD0A",
"9 c #E0B611",
"0 c #E5BB14",
"q c #EABF11",
"w c #DBB82D",
"e c #C6A830",
"r c #D9B832",
"t c #EFC002",
"y c #F3C301",
"u c #F8C700",
"i c #FDCB03",
"p c #F3C40B",
"a c #FFCE0B",
"s c #ECC114",
"d c #EAC01A",
"f c #F0C413",
"g c #F7C910",
"h c #FCCD13",
"j c #F2C719",
"k c #F4CA1F",
"l c #FDCF1B",
"z c #FFD013",
"x c #FFD21C",
"c c #EAC42C",
"v c #F7CC20",
"b c #F9CF22",
"n c #FFD324",
"m c #FFD52C",
"M c #F7D032",
"N c #FFD734",
"B c #FFD738",
"V c #FFD83C",
"C c #B19B40",
"Z c #D9BD4A",
"A c #FFDA43",
"S c #F9D74D",
"D c #FFDB4B",
"F c #E4C854",
"G c #FFDD53",
"H c #FFDF5B",
"J c #FFE05F",
"K c #FEDF62",
"L c #FFE164",
"P c #FFE26B",
"I c #FFE472",
"U c #FFE579",
"Y c None",
/* pixels */
"YYYYYYYYYYYYYYYYYYYYYYYYYYYYYYYYYYYYYYYYYYYYYYYY",
"YYYYYYYYYYYYYYYYYYYYYYYYYYYYYYYYYYYYYYYYYYYYYYYY",
"YYYYYYYYYYYYYYYYYYYYYYYYYYYYYYYYYYYYYYYYYYYYYYYY",
"YYYYYYYYYYYYYYYYYYYYYYYYYYYYYYYYYYYYYYYYYYYYYYYY",
"YYYYYYYYYYYYYYYYYYYYYYYYYYYYYYYYYYYYYYYYYYYYYYYY",
"YYYYYYYYYYYYYYYYYYYYYYYYYYYYYYYYYYYYYYYYYYYYYYYY",
"YYYYYYYYYYYYYYYYYYYYYYYYYYYYYYYYYYYYYYYYYYYYYYYY",
"YYYYYYYYYYYYYYYYYYYYYYyyuiYYYYYYYYYYYYYYYYYYYYYY",
"YYYYYYYYYYYYYYYYYY56tyuiiiiaaaYYYYYYYYYYYYYYYYYY",
"YYYYYYYYYYYYYYYY146tuiiiaazzzzzzYYYYYYYYYYYYYYYY",
"YYYYYYYYYYYYYY1656yuiiazzxxxxnnn77YYYYYYYYYYYYYY",
"YYYYYYYYYYYYY4yuyyuiiazzxnnnnbjxf&<YYYYYYYYYYYYY",
"YYYYYYYYYYYY1uiiiuiiazxnnnmmnp4sf*$<YYYYYYYYYYYY",
"YYYYYYYYYYY,iaaaazaazxxnmmkMnp681-&$<YYYYYYYYYYY",
"YYYYYYYYYYYyaazzzxzzxxahaatssgp4,;*&%YYYYYYYYYYY",
"YYYYYYYYYY5aazxxnnnxxxiuaiiy68p51,;&$=YYYYYYYYYY",
"YYYYYYYYYYazxnnnmmmmnnxzxaai68p64,>-&$YYYYYYYYYY",
"YYYYYYYYY2hxxnmcMNNNNNmnxaallgiy64,:&$=YYYYYYYYY",
"YYYYYYYYYpxxnm#X+eAAVNVNnxahzaiu641:-&$YYYYYYYYY",
"YYYYYYYYYlnnNw   +DDDAAVmmnxzaiiy64,:&$YYYYYYYYY",
"YYYYYYYY<xnmNr   OGGDDADVmnnxzaiu64,:&$=YYYYYYYY",
"YYYYYYYY2xmNVA@.oCJJHGDDAmnnnzaiuy6,>-%&YYYYYYYY",
"YYYYYYYY2nmNVDSZFLLLLHGDDNmmnzaiuy51>-%&YYYYYYYY",
"YYYYYYYY9nNNVDGJLPPIPLHGDAVmnxzaiy64,;&&YYYYYYYY",
"YYYYYYYY3mNNADGLLIUUILJDDVNmnxzziy64>;&&YYYYYYYY",
"YYYYYYYY<nNVADGJPIUUPLJJDAVNnxziiy64,;&-YYYYYYYY",
"YYYYYYYYYnmVADGHLPIIPLJDDANmnxzaiy61>;&YYYYYYYYY",
"YYYYYYYYYvmNADGHLLPPLLJDDVNmnxziuy64>;&YYYYYYYYY",
"YYYYYYYYY0mNVAAJJJJJJDGDAVNmxzzai664>;-YYYYYYYYY",
"YYYYYYYYYYnNNVADDJDJJGDAVNmnxzaii64,:-YYYYYYYYYY",
"YYYYYYYYYYdnNNVDDDDDDDAVNNnnzziiy64,;;YYYYYYYYYY",
"YYYYYYYYYYYnmNVVVAAAAANNNmnxzaii661>;YYYYYYYYYYY",
"YYYYYYYYYYY3nmmNNVVVVNNmmnxzaaiy64,:>YYYYYYYYYYY",
"YYYYYYYYYYYYsnnmNNNmNmmnnxzaiiyy61>>YYYYYYYYYYYY",
"YYYYYYYYYYYYY0xnnnnnnnnxxzaaiuy64,,YYYYYYYYYYYYY",
"YYYYYYYYYYYYYYqlxxnnxxxzzaiiuy64,,YYYYYYYYYYYYYY",
"YYYYYYYYYYYYYYYYzzzzzzaaiiiuy641YYYYYYYYYYYYYYYY",
"YYYYYYYYYYYYYYYYYYaaaaiiiiyt65YYYYYYYYYYYYYYYYYY",
"YYYYYYYYYYYYYYYYYYYYYYiiuytYYYYYYYYYYYYYYYYYYYYY",
"YYYYYYYYYYYYYYYYYYYYYYYYYYYYYYYYYYYYYYYYYYYYYYYY",
"YYYYYYYYYYYYYYYYYYYYYYYYYYYYYYYYYYYYYYYYYYYYYYYY",
"YYYYYYYYYYYYYYYYYYYYYYYYYYYYYYYYYYYYYYYYYYYYYYYY",
"YYYYYYYYYYYYYYYYYYYYYYYYYYYYYYYYYYYYYYYYYYYYYYYY",
"YYYYYYYYYYYYYYYYYYYYYYYYYYYYYYYYYYYYYYYYYYYYYYYY",
"YYYYYYYYYYYYYYYYYYYYYYYYYYYYYYYYYYYYYYYYYYYYYYYY",
"YYYYYYYYYYYYYYYYYYYYYYYYYYYYYYYYYYYYYYYYYYYYYYYY",
"YYYYYYYYYYYYYYYYYYYYYYYYYYYYYYYYYYYYYYYYYYYYYYYY",
"YYYYYYYYYYYYYYYYYYYYYYYYYYYYYYYYYYYYYYYYYYYYYYYY"
};
