/* XPM */
static char *result[] = {
/* columns rows colors chars-per-pixel */
"49 32 251 2 ",
"   c black",
".  c #010100",
"X  c #020200",
"o  c #0A0803",
"O  c #211C07",
"+  c #211C0C",
"@  c #2F290F",
"#  c #322A0B",
"$  c #30290D",
"%  c #65571D",
"&  c #7A6618",
"*  c #B59000",
"=  c #B69100",
"-  c #B79200",
";  c #B89300",
":  c #B99400",
">  c #BA9400",
",  c #BA9500",
"<  c #BB9500",
"1  c #BC9600",
"2  c #BD9700",
"3  c #BE9800",
"4  c #C09900",
"5  c #C09A00",
"6  c #C19A00",
"7  c #C29B00",
"8  c #C49C00",
"9  c #C49D00",
"0  c #C59E00",
"q  c #C69E00",
"w  c #C79F00",
"e  c #C89F00",
"r  c #C9A000",
"t  c #C9A100",
"y  c #CAA100",
"u  c #CAA200",
"i  c #CBA200",
"p  c #CCA300",
"a  c #CCA400",
"s  c #CDA400",
"d  c #CEA400",
"f  c #CFA600",
"g  c #D0A600",
"h  c #D1A700",
"j  c #D2A700",
"k  c #D2A800",
"l  c #D3A800",
"z  c #D3A900",
"x  c #D4A900",
"c  c #D4AA00",
"v  c #D5AA00",
"b  c #D6AA00",
"n  c #D6AB00",
"m  c #D7AC00",
"M  c #D8AC00",
"N  c #D8AD00",
"B  c #D9AD00",
"V  c #DAAE00",
"C  c #DBAF00",
"Z  c #DCB000",
"A  c #DEB100",
"S  c #DEB200",
"D  c #DFB200",
"F  c #DFB300",
"G  c #E0B300",
"H  c #E1B300",
"J  c #E0B400",
"K  c #E1B400",
"L  c #E3B600",
"P  c #E4B600",
"I  c #E4B700",
"U  c #E5B700",
"Y  c #E6B800",
"T  c #E7B800",
"R  c #E7B900",
"E  c #E8B900",
"W  c #E9BA00",
"Q  c #E9BB00",
"!  c #EABB00",
"~  c #EBBC00",
"^  c #EDBD00",
"/  c #EDBE00",
"(  c #EEBE00",
")  c #EEBF00",
"_  c #EFBF00",
"`  c #DBB82D",
"'  c #C6A830",
"]  c #D9B832",
"[  c #EFC000",
"{  c #F0C000",
"}  c #F1C000",
"|  c #F1C100",
" . c #F2C200",
".. c #F3C200",
"X. c #F3C300",
"o. c #F4C300",
"O. c #F4C400",
"+. c #F5C400",
"@. c #F6C500",
"#. c #F7C500",
"$. c #F7C600",
"%. c #F8C600",
"&. c #F8C700",
"*. c #F9C700",
"=. c #FAC800",
"-. c #FAC900",
";. c #FBC900",
":. c #FCC900",
">. c #FCCA00",
",. c #FDCA00",
"<. c #FDCB01",
"1. c #FECB00",
"2. c #FECB01",
"3. c #FECB02",
"4. c #FECC01",
"5. c #FECC02",
"6. c #FFCC02",
"7. c #FFCC03",
"8. c #FFCD03",
"9. c #FFCD04",
"0. c #FFCD05",
"q. c #FFCD06",
"w. c #FFCD07",
"e. c #FFCE06",
"r. c #FFCE07",
"t. c #FFCD08",
"y. c #FFCE08",
"u. c #FFCE09",
"i. c #FFCE0A",
"p. c #FFCE0B",
"a. c #FFCF0B",
"s. c #FFCF0C",
"d. c #FFCF0D",
"f. c #FFCF0E",
"g. c #FFCF0F",
"h. c #FFCF10",
"j. c #FFD010",
"k. c #FFD011",
"l. c #FFD012",
"z. c #FFD013",
"x. c #FFD014",
"c. c #FFD015",
"v. c #FFD115",
"b. c #FFD116",
"n. c #FFD117",
"m. c #FFD118",
"M. c #FFD119",
"N. c #FFD11A",
"B. c #FFD21A",
"V. c #FFD21B",
"C. c #FFD21C",
"Z. c #FFD21D",
"A. c #FFD21E",
"S. c #FFD21F",
"D. c #EAC42C",
"F. c #FFD320",
"G. c #FFD321",
"H. c #FFD322",
"J. c #FFD323",
"K. c #FFD324",
"L. c #FFD424",
"P. c #FFD425",
"I. c #FFD426",
"U. c #FFD427",
"Y. c #FFD428",
"T. c #FFD529",
"R. c #FFD52A",
"E. c #FFD52B",
"W. c #FFD52C",
"Q. c #FFD52D",
"!. c #FFD52E",
"~. c #FFD62E",
"^. c #FFD62F",
"/. c #F7D032",
"(. c #FFD630",
"). c #FFD631",
"_. c #FFD632",
"`. c #FFD633",
"'. c #FFD733",
"]. c #FFD734",
"[. c #FFD735",
"{. c #FFD736",
"}. c #FFD737",
"|. c #FFD738",
" X c #FFD838",
".X c #FFD839",
"XX c #FFD83A",
"oX c #FFD83B",
"OX c #FFD83C",
"+X c #FFD83D",
"@X c #FFD93E",
"#X c #FFD93F",
"$X c #B19B40",
"%X c #D9BD4A",
"&X c #FFD940",
"*X c #FED841",
"=X c #FFD941",
"-X c #FFDA41",
";X c #FFDA42",
":X c #FFDA43",
">X c #FFDA44",
",X c #FFDA45",
"<X c #FFDA46",
"1X c #FFDB47",
"2X c #F9D74D",
"3X c #FFDB48",
"4X c #FFDB4A",
"5X c #FFDB4B",
"6X c #FFDC4B",
"7X c #FFDC4C",
"8X c #FFDC4D",
"9X c #FFDC4F",
"0X c #E4C854",
"qX c #FFDC50",
"wX c #FFDD51",
"eX c #FFDD52",
"rX c #FFDD53",
"tX c #FFDD54",
"yX c #FFDD55",
"uX c #FFDE55",
"iX c #FFDE56",
"pX c #FFDE57",
"aX c #FFDE58",
"sX c #FFDE59",
"dX c #FFDE5A",
"fX c #FFDF5C",
"gX c #FFDF5D",
"hX c #FFDF5E",
"jX c #FFE05F",
"kX c #FEDF62",
"lX c #FFE060",
"zX c #FFE062",
"xX c #FFE063",
"cX c #FFE064",
"vX c #FFE165",
"bX c #FFE166",
"nX c #FFE167",
"mX c #FFE168",
"MX c #FFE169",
"NX c #FFE26A",
"BX c #FFE26C",
"VX c #FFE26D",
"CX c #FFE36F",
"ZX c #FFE370",
"AX c #FFE471",
"SX c #FFE473",
"DX c #FFE577",
"FX c #FFE578",
"GX c #FFE579",
"HX c #FFE57A",
"JX c None",
/* pixels */
"JXJXJXJXJXJXJXJXJXJXJXJXJXJXJXJXJXJXJXJXJXJXJXJXJXJXJXJXJXJXJXJXJXJXJXJXJXJXJXJXJXJXJXJXJXJXJXJXJX",
"JXJXJXJXJXJXJXJXJXJXJXJXJXJXJXJXJXJXJXJXP.I.I.I.P.J.F.C.m.l.JXJXJXJXJXJXJXJXJXJXJXJXJXJXJXJXJXJXJX",
"JXJXJXJXJXJXJXJXJXJXJXJXJXJXJXJXJXK.U.R.~.(.).).^.Q.T.P.F.N.x.d.JXJXJXJXJXJXJXJXJXJXJXJXJXJXJXJXJX",
"JXJXJXJXJXJXJXJXJXJXJXJXJXJXJXJXK.T.^.'.}..XXX.X|.[.).W.U.F.N.l.p.9.JXJXJXJXJXJXJXJXJXJXJXJXJXJXJX",
"JXJXJXJXJXJXJXJXJXJXJXJXJXJXS.K.E.).}.OX&X:X>X:X-X@XXX[.^.U.G.M.k.u.6.JXJXJXJXJXJXJXJXJXJXJXJXJXJX",
"JXJXJXJXJXJXJXJXJXJXJXJXJXJXH.T.).}.@X:X3X6X7X7X4X<X*X] ` Q.I.A.b.d.0.;.JXJXJXJXJXJXJXJXJXJXJXJXJX",
"JXJXJXJXJXJXJXJXJXJXJXJXJXA.U.^.|.@X<X7XwXyXpXiXrX2X% X . & W.J.V.k.u.2.@.JXJXJXJXJXJXJXJXJXJXJXJX",
"JXJXJXJXJXJXJXJXJXJXJXJXM.H.E.'.OX>X7XeXsXgXjXjXfX%Xo     O D.I.A.x.s.7.&._ JXJXJXJXJXJXJXJXJXJXJX",
"JXJXJXJXJXJXJXJXJXJXJXz.C.P.^.}.&X3XwXsXlXbXNXmXcX0X+     # /.T.G.n.f.0.;.JXJXJXJXJXJXJXJXJXJXJXJX",
"JXJXJXJXJXJXJXJXJXJXJXx.A.I.)..X:X6XyXgXbXVXAXZXNXkX$X@ $ ' {.W.J.M.h.JXJXJXJXJXJXJXJXJXJXJXJXJXJX",
"JXJXJXJXJXJXJXJXJXJXs.x.S.U._.XX>X8XaXlXNXSXHXFXCXbXgXrX4X&X}.Q.L.V.JXJXJXJXJXJXJXJXJXJXJXJXJXJXJX",
"JXJXJXJXJXJXJXJXJXJXa.x.S.U._.XX>X8XpXlXNXSXGXDXCXbXfXrX4X&X}.Q.JXJXJXJXJXJXJXJXJXJXJXJXJXJXJXJXJX",
"JXJXJXJXJXJXJXJXJXJXi.z.A.I.(..X;X6XyXgXbXBXZXCXMXzXsXwX3X@X}.JXJXJXJXJXJXJXJXJXJXJXJXJXJXJXJXJXJX",
"JXJXJXJXJXJXJXJXJXJXy.k.C.P.~.}.#X3XwXaXjXvXmXnXxXfXyX8X,XJXJXJXJXJXJXJXJXJXJXJXJXJXJXJXJXJXJXJXJX",
"JXJXJXJXJXJXJXJXJX1.q.g.M.G.R.`.oX:X5XwXaXfXhXgXdXyX9XJXJXJXJXJXJXJXJXJXJXJXJXJXJXJXJXJXJXJXJXJXJX",
"JXJXJXJXJXJXJXJXJX;.8.s.v.A.I.!.}.+X,X4XqXrXuXtXeX9XJXJXJXJXJXJXJXJXJXJXJXJXJXJXJXJXJXJXJXJXJXJXJX",
"JXJXJXJXJXJXJXJXJX#.<.y.k.M.G.Y.(.{.+X;X1X4X6X4X3X>XJXJXJXJXJXJXJXJXJXJXJXJXJXJXJXJXJXJXJXJXJXJXJX",
"JXJXJXJXJXJXJXJXJX..=.9.s.x.C.H.R.(.{.oX@X=X;X;X&X+X XJXJXJXJXJXJXJXJXJXJXJXJXJXJXJXJXJXJXJXJXJXJX",
"JXJXJXJXJXJXJXJXJX) +.,.q.d.c.V.H.Y.Q._.[.}..X|.}.].(.E.P.JXJXJXJXJXJXJXJXJXJXJXJXJXJXJXJXJXJXJXJX",
"JXJXJXJXJXJXJXJXJXJX[ %.5.t.g.c.C.G.I.T.W.^.^.^.~.E.U.K.S.m.JXJXJXJXJXJXJXJXJXJXJXJXJXJXJXJXJXJXJX",
"JXJXJXJXJXJXJXJXJXJX! | *.3.w.d.z.m.Z.F.J.P.P.P.K.H.S.V.b.j.p.9.JXJXJXJXJXJXJXJXJXJXJXJXJXJXJXJXJX",
"JXJXJXJXJXJXJXJXJXJXI ~  .*.4.q.p.h.x.n.B.C.C.C.V.M.b.l.f.u.9.>.@.JXJXJXJXJXJXJXJXJXJXJXJXJXJXJXJX",
"JXJXJXJXJXJXJXJXJXJXJXL ~ } $.>.8.e.p.d.h.k.l.l.k.g.s.u.0.2.;.o.) R J JXJXJXJXJXJXJXJXJXJXJXJXJXJX",
"JXJXJXJXJXJXJXJXJXJXJXA L Q { +.=.<.8.0.r.u.u.u.y.e.9.5.>.%...^ R G V k i JXJXJXJXJXJXJXJXJXJXJXJX",
"JXJXJXJXJXJXJXJXJXJXJXJXC H T ~ { o.%.-.>.<.2.2.<.:.=.@...( ! P S M j i 8 2 JXJXJXJXJXJXJXJXJXJXJX",
"JXJXJXJXJXJXJXJXJXJXJXJXb B D L E ~ ) | X.O.+.+.o...{ / ! Y K Z m g u 8 2 JXJXJXJXJXJXJXJXJXJXJXJX",
"JXJXJXJXJXJXJXJXJXJXJXJXJXh v V A K U T W ! ~ ! Q E Y L G Z M l d e 7 < JXJXJXJXJXJXJXJXJXJXJXJXJX",
"JXJXJXJXJXJXJXJXJXJXJXJXJXJXd h v N C A F J K K G D Z V m z f u q 4 , JXJXJXJXJXJXJXJXJXJXJXJXJXJX",
"JXJXJXJXJXJXJXJXJXJXJXJXJXJXJXJXi d h l c n n n v x k g s t q 6 1 ; JXJXJXJXJXJXJXJXJXJXJXJXJXJXJX",
"JXJXJXJXJXJXJXJXJXJXJXJXJXJXJXJXJX0 w y i p a a p i r w 9 5 2 ; = JXJXJXJXJXJXJXJXJXJXJXJXJXJXJXJX",
"JXJXJXJXJXJXJXJXJXJXJXJXJXJXJXJXJXJXJX4 6 6 7 7 6 4 3 1 > - * JXJXJXJXJXJXJXJXJXJXJXJXJXJXJXJXJXJX",
"JXJXJXJXJXJXJXJXJXJXJXJXJXJXJXJXJXJXJXJXJXJX, , : ; - JXJXJXJXJXJXJXJXJXJXJXJXJXJXJXJXJXJXJXJXJXJX"
};
