/* XPM */
static char *result[] = {
/* columns rows colors chars-per-pixel */
"64 64 126 2 ",
"   c #201F2F",
".  c #221F30",
"X  c #281F32",
"o  c #371E36",
"O  c #21202F",
"+  c #232030",
"@  c #2C2231",
"#  c #2F2935",
"$  c #362133",
"%  c #3A2433",
"&  c #4D1D3B",
"*  c #501E3B",
"=  c #5C1F3D",
"-  c #601D3F",
";  c #432634",
":  c #4A2437",
">  c #422834",
",  c #502337",
"<  c #582B37",
"1  c #5B2538",
"2  c #582B38",
"3  c #63233C",
"4  c #642E39",
"5  c #6D2D3B",
"6  c #77233F",
"7  c #79263D",
"8  c #79283D",
"9  c #643039",
"0  c #6C1C42",
"q  c #701C43",
"w  c #7D1E44",
"e  c #652A41",
"r  c #752344",
"t  c #7D2342",
"y  c #7F364B",
"u  c #745E5F",
"i  c #82233F",
"p  c #872C3F",
"a  c #8A293F",
"s  c #86363D",
"d  c #98333F",
"f  c #891F47",
"g  c #951F49",
"h  c #9E1C4D",
"j  c #A41E4C",
"k  c #AB1E4E",
"l  c #812344",
"z  c #8E2245",
"x  c #822D40",
"c  c #8E2940",
"v  c #852948",
"b  c #972C45",
"n  c #9B2B45",
"m  c #972249",
"M  c #98224A",
"N  c #82354C",
"B  c #943640",
"V  c #9C3A41",
"C  c #9E3B50",
"Z  c #A42A44",
"A  c #AA2846",
"S  c #A6224D",
"D  c #AB224D",
"F  c #A92B49",
"G  c #B52E45",
"H  c #BD2E47",
"J  c #B2234C",
"K  c #B9274A",
"L  c #B42B4C",
"P  c #B9294B",
"I  c #A43043",
"U  c #AD3743",
"Y  c #AD3A45",
"T  c #BF3747",
"R  c #B43C45",
"E  c #B93947",
"W  c #B93948",
"Q  c #AC2751",
"!  c #AC2851",
"~  c #A03C50",
"^  c #BD3B57",
"/  c #C02E47",
"(  c #C52D49",
")  c #C2334B",
"_  c #CC3048",
"`  c #C2384A",
"'  c #C8384B",
"]  c #D13149",
"[  c #D13E4B",
"{  c #DB3A4A",
"}  c #E03C4A",
"|  c #9A4044",
" . c #994049",
".. c #9E4A4A",
"X. c #8E4952",
"o. c #904A52",
"O. c #8F5A54",
"+. c #9B5A57",
"@. c #A14A4A",
"#. c #BC4F59",
"$. c #A05550",
"%. c #A15E57",
"&. c #A2645A",
"*. c #AA7C72",
"=. c #CA4446",
"-. c #D54549",
";. c #DA434A",
":. c #D64355",
">. c #C5555A",
",. c #D3545D",
"<. c #E1454B",
"1. c #E54A4A",
"2. c #EA4C4B",
"3. c #EC524E",
"4. c #F0534F",
"5. c #EF5755",
"6. c #F35D56",
"7. c #F4695C",
"8. c #DE6B60",
"9. c #E26B61",
"0. c #EA6C64",
"q. c #EF7166",
"w. c #F47766",
"e. c #F57966",
"r. c #FA7A67",
"t. c #FFA289",
/* pixels */
".     + O O + . + .     O + + +   +   + + +     +   + + + + +   + +   O O + + O O + + + + +     +   + + + + + + + +     +   +   ",
". 5 @.&.&.&.&.&.&.y r | %.&.&.&.&.&.&.&.&.&.&.&.&.&.&.&.&.&.X.r d +.&.&.&.&.&.&.&.&.&.&.&.&.&.&.&.&.&.+.r c ..&.&.&.&.&.&.*.u + ",
". d 5.w.w.w.w.w.w.^ P 3.w.e.w.w.e.w.e.e.w.w.w.w.w.w.e.w.e.r.,.D ;.7.e.e.w.w.w.w.e.e.e.e.e.e.w.w.w.e.e.0.! ' 6.e.e.w.w.w.e.t.*.+ ",
". a { 1.1.1.1.1.1.L L 1.1.1.1.1.1.1.1.1.1.1.1.1.1.1.1.1.1.1.' S ;.2.1.1.1.1.1.1.;.1.1.1.1.1.1.1.1.1.1.;.S ' 1.1.1.1.1.1.1.e.&.+ ",
". a { 1.1.1.1.1.1.F L 1.1.1.1.1.1.1.1.1.1.1.1.1.1.1.1.1.1.1.' S ;.2.1.1.1.1.1.1.1.1.1.1.1.1.1.1.1.1.1.;.S ' 1.1.1.1.1.1.1.w.&.+ ",
". a } 1.2.1.1.2.2.p p 2.1.2.1.1.1.1.1.2.2.1.1.2.1.1.1.1.1.4.Y 3 -.2.1.2.2.2.2.2.2.1.1.2.2.1.1.2.1.1.2.-.3 Y 4.1.1.1.2.1.1.6.... ",
". 3 I ' ' ' ' ` V > ; d ` ' ' ' ' ' ' ' ' ' ' ' ' ' ' ' ' Y 9 @ s E ' ` V V V V ` ' ' ' ' ' ' ' ' ' W B @ 9 Y ' ' ' ' ' ' U 4 . ",
". X 1 j j j j g : % $ : g j j j h S S S S S S S S S S S S 3 % % % t Q m : @ + : m D S S S S S S S D t % % % 1 S S S j h S e # . ",
"  - S ( ( ( ( / G G G G ( ( ( ( j ) ;.;.;.;.;.;.;.;.;.;.;.-.=.=.=.-.;.;.=.2 2 =.;.;.;.;.;.;.;.;.;.;.-.=.=.=.=.;.;.;.) S [ 8.O.+ ",
". 0 J _ _ _ _ _ _ ] ] _ _ _ _ ( j ' 2.2.1.1.1.1.1.1.1.1.1.1.2.1.2.2.1.1.2.b b 2.1.1.1.1.1.1.1.1.1.1.1.1.2.2.2.1.2.2.' S ;.r.&.+ ",
". 0 J _ _ _ _ _ _ _ _ _ _ _ _ ( j ' 1.1.1.1.1.1.1.1.1.1.1.1.1.1.1.1.1.1.1.L L 1.1.1.1.1.1.1.1.1.1.1.1.1.1.1.1.1.1.1.' D ;.e.&.+ ",
". 0 J _ _ _ _ _ _ _ _ _ _ _ _ ( g ` 1.1.1.1.1.1.1.1.1.1.1.1.1.1.1.1.1.1.1.F F 1.1.1.1.1.1.1.1.1.1.1.1.1.1.1.1.1.1.2.` M ;.w.&.+ ",
". 0 J _ _ _ _ _ _ _ _ _ _ _ ] G : V 2.1.1.1.1.1.1.<.1.1.<.1.1.1.1.1.1.1.1.5 5 1.1.1.1.1.1.1.1.1.1.1.1.1.;.1.1.1.1.2.V : =.4.V + ",
". q f 1 1 1 6 k j D D k k D z ,   > x L L L L F 5 4 4 5 F L L L L J L F 5 @ @ 5 D L L L L t 9 9 4 b L L L L L L L x >   2 n t + ",
". q f , . > p L G P L L L P b 4 9 4 t L L L L F 5 @ @ 5 F L L L L L L F 5 4 4 5 F L L L L x > O 1 b L L L L L L L x 2 5 4 C N + ",
". 0 J G : V 1.1.1.1.1.1.1.1.1.1.1.1.1.1.1.1.1.1.1.5 5 1.1.1.1.1.1.1.1.1.1.1.1.1.1.1.1.1.1.2.V : =.2.1.1.1.1.1.1.1.1.1.1.1.w.&.+ ",
". 0 J ( g ' 2.1.1.1.1.1.1.1.1.1.1.1.1.1.1.1.1.1.1.F F 1.1.1.1.1.1.1.1.1.;.1.1.1.1.1.1.1.1.2.` m ;.1.1.1.1.1.1.1.1.1.1.1.1.w.&.  ",
". 0 J ( j ' 1.1.1.1.1.1.;.1.1.1.1.1.1.1.1.1.1.1.1.L L 1.1.1.1.1.1.1.1.1.1.1.1.1.1.1.1.1.1.2.' D ;.1.1.1.1.1.;.1.1.1.1.1.1.w.&.. ",
". 0 J ( k ' 1.1.1.1.1.1.1.1.1.1.1.1.1.;.1.1.1.1.1.L L 1.1.<.1.1.1.1.1.1.1.1.1.1.1.;.2.1.1.1.' D ;.1.1.1.1.1.1.1.1.1.1.1.1.w.&.. ",
". 0 J ( g ` 1.1.1.1.1.1.1.1.1.1.1.1.1.1.1.1.1.1.1.F Z 1.1.1.1.1.;.1.1.1.1.1.1.1.1.2.;.1.1.2.` M ;.1.1.1.1.1.1.1.1.1.1.1.1.w.+.+ ",
"X - J G : V 2.1.1.1.1.1.1.1.1.1.1.1.1.1.1.1.1.1.1.5 5 1.1.1.1.1.1.1.1.1.1.1.1.1.1.1.1.1.1.2.d : =.1.1.1.1.;.1.1.1.1.1.1.1.3.V + ",
"  q f ,   ; x F 5 4 4 5 F L L L L L L F J L L F 5 @ @ 5 F L L L L L L L L L L L G L L L L p > O 2 n b 4 9 e x L L L L L L P r + ",
"X q f 1 1 1 6 S 3 @ @ 5 F L L L L L L L L L L F 5 9 9 5 F L S S L L L L L L L L L L L L L 8 9 5 4 n n 2 + > x L L L L L L ^ N O ",
"X - D _ _ _ _ _ _ 3 5 ;.1.1.1.1.1.1.1.1.1.1.1.1.1.1.1.1.1.2.' S -.1.1.1.1.1.1.1.1.1.;.1.1.1.1.1.1.1.2.=.: V 3.1.1.1.1.1.1.w.&.+ ",
"  q K _ _ _ _ _ _ h F 1.1.1.1.1.1.1.1.1.1.1.1.1.1.1.1.1.1.1.' S -.2.1.1.1.1.1.1.1.1.1.1.1.1.1.1.1.1.1.;.m ' 2.1.;.1.1.1.1.w.&.+ ",
"X - J _ _ _ _ _ _ J P 1.1.1.1.1.1.<.1.1.1.1.1.1.1.1.1.1.1.1.' D ;.1.1.1.1.1.1.1.1.1.1.1.1.1.1.1.1.1.1.;.D ' 1.1.1.1.1.1.1.w.&.O ",
"  0 J ] _ _ _ _ ] z b 2.1.2.1.2.2.1.1.1.2.1.1.1.1.1.1.1.2.3.E l -.2.2.1.1.2.2.2.2.1.2.2.1.1.1.1.1.1.2.;.l E 3.1.1.2.2.2.2.7.+.  ",
"  - j ( ( ( ( ( G , < =.;.;.-.=.=.=.-.;.;.;.;.;.;.;.;.;.;.-.s % @.<.;.;.=.=.=.' -.-.;.;.-.;.;.;.;.<.<.@.% s -.;.;.=.=.=.=.;.d   ",
". X = j j j j g : O @ : M D l % % % 3 S S S S S S S S S S 3 # O % l D M : % % : m S S S S S S S j S i % + $ 3 S S 3 % % % l t   ",
". * z K K K P P a a a a K K A 8 + 4 Y ' ' ' ' ' ' ' ' ' ' Y d d V W ' ` d > > V ` ` ' ' ' ' ' ' ' _ E d V d Y ` ' Y 9 @ s >.o.. ",
". 0 J ] _ _ _ _ ] ] ] ] ] _ ] / 3 Y 4.2.1.1.2.1.2.1.2.1.1.2.2.2.2.1.1.1.1.p s 2.2.1.1.2.2.2.1.2.1.1.3.2.2.2.2.1.1.3.R 3 -.r.&.. ",
". 0 J _ _ _ _ _ _ _ _ _ _ _ _ ( j ' 1.1.1.1.1.1.1.1.1.1.1.1.1.1.1.1.1.1.1.L P 1.1.1.1.1.1.1.1.1.1.1.1.1.1.1.1.1.1.2.' S ;.w.&.+ ",
"  q J _ _ _ _ _ _ _ _ _ _ _ _ ( j ' 1.1.1.1.1.1.1.2.1.1.1.1.1.1.1.1.1.1.1.L L 1.1.1.1.1.1.1.1.1.1.1.1.1.1.1.1.1.1.1.' S -.r.&.  ",
"X - J ] ] ] ] ] _ ] _ _ ] _ ] / 3 Y 4.1.1.2.1.2.2.2.2.2.1.2.1.2.3.1.1.2.2.p x 1.1.2.1.2.1.2.2.3.2.2.2.1.1.1.2.2.2.2.Y 3 -.6.@.  ",
"  6 g a a a d K K K K K K K A 8 X 9 Y ' ' ' ' ` d | d | ` ' ' ' ' ' ' ` V > > V ' ' ' ' ' Y d d d E ' ' ' ' ' ' ' Y 9 @ x T a O ",
"  q f o   X 3 S S S S S S D l % % % 3 S S S S M : @ @ : M S S S S S S M : % % : M S S S S 3 # O % l S S S S S D A 3 $ % % v t . ",
". q k n o s -.;.-.;.;.;.-.-.-.=.=.=.=.;.;.;.;.;.=.< < =.-.;.;.;.;.;.;.-.=.=.=.=.-.;.;.;.;.-.s % @.<.;.;.;.;.;.;.;.=.=.=.=.9.+.O ",
". 0 J ( t E 2.1.2.1.1.2.1.1.2.2.2.2.2.1.1.1.1.1.2.b b 2.1.1.2.1.1.1.1.1.2.2.2.1.1.1.1.1.2.2.E l ;.2.1.1.2.1.1.1.2.2.1.1.3.r.&.+ ",
"X q J ( k ' 1.1.1.1.1.1.1.1.1.1.1.1.1.1.1.1.1.1.1.L L 1.1.1.1.1.1.1.1.1.1.1.1.1.1.1.1.1.1.1.' S ;.2.1.1.1.1.1.1.1.1.1.1.1.e.&.+ ",
"  - J ( j ' 1.1.1.1.1.1.1.1.1.1.1.1.1.1.1.1.1.1.1.L G 1.1.1.1.1.1.1.1.1.1.1.1.1.1.1.1.1.1.2.' S ;.1.1.1.1.1.1.1.1.1.1.1.1.e.&.+ ",
"  q J ( j ' 2.1.1.1.1.1.1.1.1.1.1.1.1.1.1.1.1.1.1.L L 1.1.1.1.1.1.1.1.1.1.1.1.1.1.1.1.1.1.2.' S ;.2.1.1.1.1.1.1.1.1.1.1.1.e.&.O ",
"  0 K / - Y 2.1.1.2.1.2.1.1.2.2.1.1.2.1.1.2.1.1.2.p t 3.2.2.2.3.2.2.2.1.1.1.1.2.1.2.1.1.1.3.Y 3 -.2.1.2.1.2.1.2.1.1.1.2.1.6...+ ",
"  q j 8 @ 9 R ' ' ' ' ' ' ' ' ' ' ' ' ' ' ' ' ` V > > V T Y d d V W ' ' ' ' ' ' ' ' ' ' ' Y 4 @ s E ' ' ' ' ' ' ' ' ' ' ' ' p . ",
"  q w o $ $ 1 j j h h S S S S S S S S S S S S M : % % : m 3 # O % l S S S S S S S S S S S 3 $ % % l S S h S S S S S S S S ! r . ",
"X q j G G G G ( ( D L -.;.;.;.;.;.;.;.;.;.;.;.-.=.=.=.=.;.;.s % R -.;.;.;.;.;.;.;.;.;.;.;.=.=.=.=.-.;.[ S ) ;.;.;.;.;.;.;.0.+.  ",
"  - J ] ] ] ] _ _ D P 1.1.1.1.1.1.1.1.1.2.1.1.2.2.1.1.2.1.2.E l -.2.2.1.2.1.1.1.2.1.1.1.1.2.2.2.2.1.2.;.S ' 2.1.2.1.1.1.2.e.&.. ",
"  q J _ _ _ _ _ _ D P 1.1.1.1.1.1.1.1.1.1.1.1.1.1.1.1.1.1.1.' D ;.1.1.1.1.1.1.1.1.1.1.1.1.1.1.1.1.1.2.;.D ' 1.1.1.1.1.1.1.w.&.+ ",
"  0 J _ _ _ _ _ _ S A 1.1.1.1.1.1.1.1.1.1.1.1.1.1.1.1.1.1.2.` m ;.1.1.1.1.1.1.1.1.1.1.1.1.1.1.1.1.1.1.;.M ` 1.1.1.1.1.1.1.w.%.+ ",
"  q J _ _ _ _ _ _ 3 5 1.1.1.1.1.1.1.1.1.1.1.1.;.2.1.1.1.1.3.V : =.1.1.1.1.1.1.1.1.1.1.1.1.1.1.1.1.1.1.=.: V 2.1.1.1.1.1.1.3.V + ",
"  o 6 D D D J j 3 @ @ 9 A H b 9 9 9 t G L L L L L L L L L x > O 2 b L L L L L L F L L L L L D L P L b 2   > x L G t 2 5 9 n r + ",
"  o 0 k D D k Z 3 1 1 3 j J z : O > p L L L L L L L L L L t 9 9 4 b L L L h S L P L L L L L L L L L b 4 9 9 t L L x > O < ~ N + ",
"  - J _ _ _ _ _ _ _ _ _ _ _ ] G : d 2.1.1.1.1.1.2.;.1.1.1.1.1.1.1.1.1.1.1.L L 1.1.1.1.1.1.1.1.1.1.1.1.1.1.1.1.1.1.3.V : =.r.&.+ ",
"  q J _ _ _ _ _ _ _ _ _ _ _ _ / g ' 1.1.1.1.1.1.1.1.1.1.;.2.1.1.1.1.1.1.1.L L 1.1.1.1.1.1.1.1.1.1.1.1.1.1.1.1.1.1.2.' M ;.e.&.+ ",
"  0 J _ _ _ _ _ _ _ _ _ _ _ _ ( k ' 1.1.1.1.1.1.1.1.1.1.1.1.1.1.1.1.1.1.1.L L 1.1.1.;.1.1.1.1.1.1.1.1.1.1.1.1.1.1.1.' k ;.e.&.+ ",
". 0 J ] ] ] _ _ _ _ ] _ _ _ ] / w E 2.1.1.1.2.1.2.2.2.1.2.2.2.2.2.1.1.1.2.b b 2.2.2.1.1.2.2.2.2.1.1.1.2.1.1.1.2.1.2.T i ;.7.$.+ ",
". q D G G G K ( ( ( ( ( ( ( / Z % s -.;.;.;.;.-.=.=.=.=.-.-.-.-.;.;.;.-.=.< < =.-.;.;.;.;.=.=.=.=.-.;.;.;.;.;.;.;.-.s ; @.;.B + ",
"  6 w $ $ $ - j j j j j j j 6 $ . X 3 k S S S M : % % : M S S j S S S M : @ @ : M S S S S 3 % % % l S S S S S j S 3 @   % l t   ",
"  - h 8 X 1 n K K K K H K K A a a a n K K K K K a ; % a K K K K K K P J a a a c J K P K K n 1   7 A K K K K K K K n a a a #.o.  ",
"X q K H - Z ] ] _ _ _ _ _ ] ] ] ] ] ] _ ] _ _ _ ] 6 6 ] ] _ _ _ _ _ ] _ ] ] ] ] _ _ _ _ ] ] Z 3 ( ] _ _ _ ] _ _ ] ] ] ] ] w.&.. ",
"X - J ( j K _ _ _ _ _ _ _ _ _ _ _ _ _ _ _ _ _ _ _ D D _ _ _ _ _ _ _ _ _ _ _ _ _ _ _ _ _ _ _ P j ( ] _ _ _ _ _ _ _ _ _ _ _ 0.&.+ ",
"  q J ( j K _ _ _ _ _ ] _ _ _ _ _ _ _ _ _ _ _ _ _ D D _ _ _ _ _ _ _ _ _ _ _ _ _ _ _ _ _ _ _ K j ( _ _ _ _ _ _ _ _ _ _ _ _ 0.&.. ",
"  q k J j k J J J J J k J J J J J J J J J J J J J k k J D J J J J J J J J J J D J J J J J J k j J J J J J J J J J J J J J :.C . ",
". * q q q 0 0 q 0 0 0 0 0 0 - 6 0 0 0 0 0 0 0 0 0 q - q 0 0 0 0 0 0 0 0 0 0 0 0 0 0 0 0 0 0 0 0 0 0 0 0 0 0 0 0 0 0 0 0 0 i 3 O ",
".       . .         . . .       . .         X           . .   . .   . . . . . . . . . . . . . . . .     . . . . .         O O O "
};
