/* XPM */
static char *result[] = {
/* columns rows colors chars-per-pixel */
"48 9 6 1 ",
"  c #211F30",
". c #858D99",
"X c #AFBBC3",
"o c #D8E1E4",
"O c #62677A",
"+ c #48475B",
/* pixels */
"                                                ",
" .XXXXXXXXXXXXXo .XXXXXXXXXXXXXo .XXXXXXXXXXXXo ",
" O.............X O.............X O............X ",
" O...........X.X O...........X.X O.......X.XX.X ",
" O.OO..........X O.OO..........X O.........XX.X ",
" O.OO.O........X O.OO..........X O.O..........X ",
" O.............X O.............X O............X ",
" +OOOOOOOOOOOOO. +OOOOOOOOOOOOO. +OOOOOOOOOOOO. ",
"                                                "
};
