/* XPM */
static char *result[] = {
/* columns rows colors chars-per-pixel */
"32 32 10 1 ",
"  c black",
". c #211F30",
"X c #D8E1E4",
"o c white",
"O c #48475B",
"+ c #F2BC7E",
"@ c #FBDFB1",
"# c #D2612F",
"$ c #F89CC0",
"% c #EA71BD",
/* pixels */
"                                ",
"                                ",
"                                ",
"                                ",
"                                ",
"                                ",
"                                ",
"       ...           ...        ",
"      .Xoo.         .Xoo.       ",
"     .Xoooo.       .XXooo.      ",
"     .Xoooo..........XXoo.      ",
"     .Xoooooooooooooooooo.      ",
"    .XoXXooOOOOOOOOOOOOooo.     ",
"    .XoXXoO++++++++++++Ooo.     ",
"    .Xooo.++@@@@@@@###@+Oo.     ",
"    .XoXo.+@#####@#ooo#@Oo.     ",
"    .Xooo.+@#ooo#@#ooo#@Oo.     ",
"    .Xooo.+@#ooo#@#ooo#@Oo.     ",
"    .Xooo.+@+###+@+###+@Oo.     ",
"    .XoooX.+@@@@@@@@@@@OXo.     ",
"    .XooooX............Xoo.     ",
"     .$ooooooooooooooooo$.      ",
"      .$$$oooooooooooo$$.       ",
"      ...$$$%%%%%%%%%$...       ",
"     .$$$%$$$$%%%%%$$$$.%.      ",
"    .+..%.$$$$$%%%$$$$$..+.     ",
"    .@@+.XoXoooooooooXX.++.     ",
"     ...%$$$$$$$$$$$$$$...      ",
"       .%$$$$.......$$$.        ",
"        .%$$$.    .%$$%.        ",
"         ....     .%%%.         ",
"                  ....          "
};
