/* XPM */
static char *result[] = {
/* columns rows colors chars-per-pixel */
"64 64 200 2 ",
"   c #151425",
".  c #16192A",
"X  c #1A1A2B",
"o  c #161728",
"O  c #201E2F",
"+  c #241F32",
"@  c #262233",
"#  c #2A2335",
"$  c #3F3739",
"%  c #4D3E3C",
"&  c #43393B",
"*  c #4B403E",
"=  c #3E394A",
"-  c #3F2947",
";  c #442D49",
":  c #492E4C",
">  c #4C344C",
",  c #473549",
"<  c #4F3151",
"1  c #4E3850",
"2  c #513251",
"3  c #543B51",
"4  c #4F3550",
"5  c #4E4444",
"6  c #544543",
"7  c #514A4C",
"8  c #564946",
"9  c #484957",
"0  c #4D4D5B",
"q  c #474655",
"w  c #504F5C",
"e  c #544852",
"r  c #52515F",
"t  c #6B4956",
"y  c #6D5E5F",
"u  c #665659",
"i  c #765E4E",
"p  c #555461",
"a  c #585663",
"s  c #595864",
"d  c #5F4C67",
"f  c #76456A",
"g  c #7A536B",
"h  c #75546F",
"j  c #6D6061",
"k  c #6C666A",
"l  c #706A6E",
"z  c #6D6F7E",
"x  c #776777",
"c  c #74757E",
"v  c #6E707B",
"b  c #7F6652",
"n  c #DB733C",
"m  c #D36435",
"M  c #99795C",
"N  c #806E5F",
"B  c #A07F5F",
"V  c #9E7E61",
"C  c #82787B",
"Z  c #926C72",
"A  c #A57D64",
"S  c #914D7F",
"D  c #DC7D4A",
"F  c #D97950",
"G  c #BD9367",
"H  c #AF8F74",
"J  c #A88B71",
"K  c #91827A",
"L  c #DC845E",
"P  c #E28F59",
"I  c #E4905B",
"U  c #DF8B60",
"Y  c #C59B6D",
"T  c #C69D73",
"R  c #C89E73",
"E  c #E08B60",
"W  c #E49767",
"Q  c #CAA478",
"!  c #D5A774",
"~  c #EEA568",
"^  c #EEB57C",
"/  c #F3B77C",
"(  c #F1AE72",
")  c #737384",
"_  c #7D7C85",
"`  c #6F6F80",
"'  c #974E83",
"]  c #9D5487",
"[  c #A25688",
"{  c #BA5D9B",
"}  c #B75B99",
"|  c #996480",
" . c #A26785",
".. c #B66895",
"X. c #C37B9B",
"o. c #C2769D",
"O. c #C968A5",
"+. c #CB7CA4",
"@. c #D176A9",
"#. c #EA6EBC",
"$. c #EC75BC",
"%. c #EA79BB",
"&. c #F47EC3",
"*. c #F577C4",
"=. c #8D919B",
"-. c #90939A",
";. c #848691",
":. c #9394A2",
">. c #999CA3",
",. c #BD8BA4",
"<. c #A4A3AA",
"1. c #A9AFB6",
"2. c #ABAAB3",
"3. c #ACB3B9",
"4. c #B5B5BB",
"5. c #B7ACB7",
"6. c #AF9F8D",
"7. c #C6AD8B",
"8. c #C3AF91",
"9. c #C4B092",
"0. c #CCB899",
"q. c #D6BD9B",
"w. c #D7AF81",
"e. c #F1BF8F",
"r. c #F1BF90",
"t. c #ECB287",
"y. c #CD82A3",
"u. c #D285A6",
"i. c #D599B4",
"p. c #D197B0",
"a. c #CF98B1",
"s. c #EA88B8",
"d. c #F183BE",
"f. c #F188BE",
"g. c #EC93B7",
"h. c #F492BE",
"j. c #F89BBF",
"k. c #F798BF",
"l. c #ECBCA6",
"z. c #FAC98D",
"x. c #F7C487",
"c. c #F3C292",
"v. c #F5CA99",
"b. c #FBD29A",
"n. c #EFCA98",
"m. c #EEC1AD",
"M. c #FDD9A5",
"N. c #FCDCAA",
"B. c #F9D5A3",
"V. c #FFE2B2",
"C. c #D9C19B",
"Z. c #B6BDC2",
"A. c #F788C3",
"S. c #EF93CD",
"D. c #E69CC0",
"F. c #FA95C2",
"G. c #FB9DC1",
"H. c #F39ACB",
"J. c #FBA7CA",
"K. c #F4B1CC",
"L. c #FAB3CE",
"P. c #F8AED1",
"I. c #FBB6D1",
"U. c #FFB9D4",
"Y. c #BEC4C9",
"T. c #BAC1C6",
"R. c #C6C6CB",
"E. c #CBCACF",
"W. c #C5C5CA",
"Q. c #C9CCD1",
"!. c #CDD3D7",
"~. c #D1D2D7",
"^. c #D5D6DB",
"/. c #D7D8DB",
"(. c #F3D7CA",
"). c #F5D9CE",
"_. c #F2D0DF",
"`. c #EBCFDC",
"'. c #DDDDE2",
"]. c #D5DFE2",
"[. c #FFCBE0",
"{. c #E5D7E1",
"}. c #E9DBE4",
"|. c #FADDEF",
" X c #FDD5E5",
".X c #FADFF1",
"XX c #DEE4E7",
"oX c #E5ECEE",
"OX c #E4E8EA",
"+X c #F6E4EC",
"@X c #EAEFF1",
"#X c #E7EEF0",
"$X c #FCE5F1",
"%X c #FEEBF3",
"&X c #EBF1F2",
"*X c #F3F4F6",
"=X c #F6F8F9",
"-X c #FEFEFE",
";X c #FCF3F8",
":X c None",
/* pixels */
":X:X:X:X:X:X:X:X:X:X:X:X:X:X:X:X:X:X:X:X:X:X:X:X:X:X:X:X:X:X:X:X:X:X:X:X:X:X:X:X:X:X:X:X:X:X:X:X:X:X:X:X:X:X:X:X:X:X:X:X:X:X:X:X",
":X:X:X:X:X:X:X:X:X:X:X:X:X:X:X:X:X:X:X:X:X:X:X:X:X:X:X:X:X:X:X:X:X:X:X:X:X:X:X:X:X:X:X:X:X:X:X:X:X:X:X:X:X:X:X:X:X:X:X:X:X:X:X:X",
":X:X:X:X:X:X:X:X:X:X:X:X:X:X:X:X:X:X:X:X:X:X:X:X:X:X:X:X:X:X:X:X:X:X:X:X:X:X:X:X:X:X:X:X:X:X:X:X:X:X:X:X:X:X:X:X:X:X:X:X:X:X:X:X",
":X:X:X:X:X:X:X:X:X:X:X:X:X:X:X:X:X:X:X:X:X:X:X:X:X:X:X:X:X:X:X:X:X:X:X:X:X:X:X:X:X:X:X:X:X:X:X:X:X:X:X:X:X:X:X:X:X:X:X:X:X:X:X:X",
":X:X:X:X:X:X:X:X:X:X:X:X:X:X:X:X:X:X:X:X:X:X:X:X:X:X:X:X:X:X:X:X:X:X:X:X:X:X:X:X:X:X:X:X:X:X:X:X:X:X:X:X:X:X:X:X:X:X:X:X:X:X:X:X",
":X:X:X:X:X:X:X:X:X:X:X:X:X:X:X:X:X:X:X:X:X:X:X:X:X:X:X:X:X:X:X:X:X:X:X:X:X:X:X:X:X:X:X:X:X:X:X:X:X:X:X:X:X:X:X:X:X:X:X:X:X:X:X:X",
":X:X:X:X:X:X:X:X:X:X:X:X:X:X:X:X:X:X:X:X:X:X:X:X:X:X:X:X:X:X:X:X:X:X:X:X:X:X:X:X:X:X:X:X:X:X:X:X:X:X:X:X:X:X:X:X:X:X:X:X:X:X:X:X",
":X:X:X:X:X:X:X:X:X:X:X:X:X:X:X:X:X:X:X:X:X:X:X:X:X:X:X:X:X:X:X:X:X:X:X:X:X:X:X:X:X:X:X:X:X:X:X:X:X:X:X:X:X:X:X:X:X:X:X:X:X:X:X:X",
":X:X:X:X:X:X:X:X:X:X:X:X:X:X:X:X:X:X:X:X:X:X:X:X:X:X:X:X:X:X:X:X:X:X:X:X:X:X:X:X:X:X:X:X:X:X:X:X:X:X:X:X:X:X:X:X:X:X:X:X:X:X:X:X",
":X:X:X:X:X:X:X:X:X:X:X:X:X:X:X:X:X:X:X:X:X:X:X:X:X:X:X:X:X:X:X:X:X:X:X:X:X:X:X:X:X:X:X:X:X:X:X:X:X:X:X:X:X:X:X:X:X:X:X:X:X:X:X:X",
":X:X:X:X:X:X:X:X:X:X:X:X:X:X:X:X:X:X:X:X:X:X:X:X:X:X:X:X:X:X:X:X:X:X:X:X:X:X:X:X:X:X:X:X:X:X:X:X:X:X:X:X:X:X:X:X:X:X:X:X:X:X:X:X",
":X:X:X:X:X:X:X:X:X:X:X:X:X:X:X:X:X:X:X:X:X:X:X:X:X:X:X:X:X:X:X:X:X:X:X:X:X:X:X:X:X:X:X:X:X:X:X:X:X:X:X:X:X:X:X:X:X:X:X:X:X:X:X:X",
":X:X:X:X:X:X:X:X:X:X:X:X:X:X:X:X:X:X:X:X:X:X:X:X:X:X:X:X:X:X:X:X:X:X:X:X:X:X:X:X:X:X:X:X:X:X:X:X:X:X:X:X:X:X:X:X:X:X:X:X:X:X:X:X",
":X:X:X:X:X:X:X:X:X:X:X:X:X:X:X:X:X:X:X:X:X:X:X:X:X:X:X:X:X:X:X:X:X:X:X:X:X:X:X:X:X:X:X:X:X:X:X:X:X:X:X:X:X:X:X:X:X:X:X:X:X:X:X:X",
":X:X:X:X:X:X:X:X:X:X:X:X:X:X:X:XX X X X X X :X:X:X:X:X:X:X:X:X:X:X:X:X:X:X:X:X:X:X:X:X:XX X X X X X :X:X:X:X:X:X:X:X:X:X:X:X:X:X",
":X:X:X:X:X:X:X:X:X:X:X:X:X:X:X:Xq w r p r r :X:X:X:X:X:X:X:X:X:X:X:X:X:X:X:X:X:X:X:X:X:X9 r r r p w :X:X:X:X:X:X:X:X:X:X:X:X:X:X",
":X:X:X:X:X:X:X:X:X:X:X:X:X:X  q =.4.W.R.E.<.0   :X:X:X:X:X:X:X:X:X:X:X:X:X:X:X:X:X:X  q =.4.W.E.E.<.w   :X:X:X:X:X:X:X:X:X:X:X:X",
":X:X:X:X:X:X:X:X:X:X:X:X:X:Xq v Y.&X-X-X-X~.| 9 :X:X:X:X:X:X:X:X:X:X:X:X:X:X:X:X:X:Xq ` T.@X=X-X-X~.| 9 :X:X:X:X:X:X:X:X:X:X:X:X",
":X:X:X:X:X:X:X:X:X:X:X:XX 9 =.Y.oX-X-X-X-X&X].<.w X :X:X:X:X:X:X:X:X:X:X:X:X:X:XX 0 :.T.^.oX=X-X-X&X].<.w X :X:X:X:X:X:X:X:X:X:X",
":X:X:X:X:X:X:X:X:X:X:X:XX 0 3.&X-X-X-X-X-X-X-XY.p . :X:X:X:X:X:X:X:X:X:X:X:X:X:X. = ;.T.].XX*X=X-X-X-XY.s X :X:X:X:X:X:X:X:X:X:X",
":X:X:X:X:X:X:X:X:X:X:X:XX 0 3.#X-X-X-X-X-X-X-XE.r . . . X X X X X X X X X X X X X @ = v Z.XXXX#X=X-X-XR.p X :X:X:X:X:X:X:X:X:X:X",
":X:X:X:X:X:X:X:X:X:X:X:Xo 9 1.oX=X-X-X-X-X-X-X^.| p r s p a p p a a a p p s p s s s w _ W.@XoX@X=X-X-XR.r X :X:X:X:X:X:X:X:X:X:X",
":X:X:X:X:X:X:X:X:X:X:X:Xo 9 1.oX=X-X-X-X-X-X-X*X].E.E.E.E.E.Q.E.E.E.E.E.E.Q.E.Q.E.E.Q./.&X-X=X-X-X-X-XR.w o :X:X:X:X:X:X:X:X:X:X",
":X:X:X:X:X:X:X:X:X:X:X:X9 v T.&X=X=X=X=X-X-X-X*X}.^.^.^.^.^.^.^.^.^.^.^./.^./.^.^./././.~.~.~.'.*X-X-X^.| 0 :X:X:X:X:X:X:X:X:X:X",
":X:X:X:X:X:X:X:X:X:XX 9 =.W.OX*XoXXXXX#X-X-X-X/.>.) ) ) ) ) ) ) ) ) ) ) ) ) ) ) ) ) ) ) ) ` ` :./.-X-X*X/.<.w X :X:X:X:X:X:X:X:X",
":X:X:X:X:X:X:X:X:X:XX 0 3.&X-X=XOXXXXXXX=X=XXX5.C y y y j j j j y h y y y y y y j j k j j y y C 4.OX*X-X-XR.r X :X:X:X:X:X:X:X:X",
":X:X:X:X:X:X:X:X:X:XX 0 3.&X-X=XXXXX].XX=X{.-.C H R T T G Q T T R Y Y Q T T T Q T T T T T R R H C :./.-X-XR.a X :X:X:X:X:X:X:X:X",
":X:X:X:X:X:X:X:X:X:XX 0 1.@X=X=X&XXXXXXX~.5.C N ! x.x.z.z.z.z.z.z.z.z.z.x.z.x.x.( ~ ~ ~ ~ ( x.w.Z C 5.OX-XE.r o :X:X:X:X:X:X:X:X",
":X:X:X:X:X:X:X:X:X:XX 9 1.#X-X-X=X-X-X!._ j J ! ^ x.b.N.N.N.B.N.N.N.N.N.B.N.N.c.P n n D n I c.n.! H K :.XXE.p X :X:X:X:X:X:X:X:X",
":X:X:X:X:X:X:X:X:X:XX 0 1.#X=X-X-X=X-XR.0 & G x.x.x.c.c.e.e.e.c.r.r.c.v.N.N.n.t.W L U F L W t.c.z.Q j ) ^.E.s X :X:X:X:X:X:X:X:X",
":X:X:X:X:X:X:X:X:X:XX 0 1.#X=X=X#X&X-XR.r % Y z.b.c.W D F D D D F D D W v.n.W W m.).).).).m.W W c.0.k ) ^.E.s X :X:X:X:X:X:X:X:X",
":X:X:X:X:X:X:X:X:X:XX 0 1.oX-X=X#X#X-XR.r % G x.N.n.D m F L L L L F m F c.n.F F (.-X-X-X-X(.L D c.0.l ) /.E.s X :X:X:X:X:X:X:X:X",
":X:X:X:X:X:X:X:X:X:XX 0 1.#X=X-X=X-X-XR.r * G z.N.r.D F l.).).).).l.F D c.e.F L (.-X-X-X-X(.L D c.0.l ) ^.E.s X :X:X:X:X:X:X:X:X",
":X:X:X:X:X:X:X:X:X:XX 0 1.oX-X-X-X-X-XR.r * G z.N.e.D L (.-X-X-X-X(.L D c.c.D L ).-X-X-X-X).L D c.q.l ) ^.E.a X :X:X:X:X:X:X:X:X",
":X:X:X:X:X:X:X:X:X:XX 0 1.oX-X-X-X-X-XR.r * G z.N.e.D L (.-X-X-X-X(.L D c.c.D L ).-X-X-X-X(.L D c.0.l ) ^.E.p X :X:X:X:X:X:X:X:X",
":X:X:X:X:X:X:X:X:X:XX 0 1.#X=X-X-X-X-XW.r % G z.N.c.P E l.).).).).l.U P n.n.P L l.).).).).l.E I v.q.k ) ^.E.a X :X:X:X:X:X:X:X:X",
":X:X:X:X:X:X:X:X:X:XX 0 1.oX=X-X-X-X-XR.w * G z.N.B.^ W P U F F L L ~ ^ b.B.^ W E P F E L P W / M.q.l ) !.Q.s X :X:X:X:X:X:X:X:X",
":X:X:X:X:X:X:X:X:X:XX 0 1.#X-X-X-X-X-X~.) u J R n.M.b./ I D F P L I ^ b.N.N.b.t.I D F D D I / n.q.6._ =.XXQ.p o :X:X:X:X:X:X:X:X",
":X:X:X:X:X:X:X:X:X:XX 0 1.oX-X-X-X-X-X@XW.-.r i ! b.M.M.v.c.c.c.x.z.B.N.V.V.N.M.v.c.c.z.c.v.M.q.K | <.!.*XR.s X :X:X:X:X:X:X:X:X",
":X:X:X:X:X:X:X:X:X:XX 0 3.&X=X-X-X-X-X-X*XY.c u M G 7.8.9.9.9.9.9.9.8.8.7.8.8.9.9.9.8.9.9.9.8.6.c ;.Y.=X-XR.p X :X:X:X:X:X:X:X:X",
":X:X:X:X:X:X:X:X:X:XX 0 3.&X-X-X-X-X-X-X-XoXY.-.u * 5 7 7 7 7 7 7 7 7 7 7 7 7 7 7 7 7 7 7 7 7 j >.Q.oX-X-XR.p X :X:X:X:X:X:X:X:X",
":X:X:X:X:X:X:X:X:X:XX 9 =.W.}.%X-X-X-X-X-X-X&XW.) 0 r r w r r p r r w w r w 0 r r r w p p 0 0 ) R.&X%X+X^.<.w X :X:X:X:X:X:X:X:X",
":X:X:X:X:X:X:X:X:X:X:X:Xq x p.[.%X-X-X-X-X-X-X@X^.R.R.R.R.R.R.R.R.R.R.R.R.E.R.R.R.R.R.R.R.R.W.^.&X;X[.i.C 9 :X:X:X:X:X:X:X:X:X:X",
":X:X:X:X:X:X:X:X:X:X:X:X  , | i. X%X%X%X$X%X-X-X-X-X-X-X-X-X-X-X-X-X-X-X-X-X-X-X-X-X-X-X-X-X;X%X%X[.p. .:   :X:X:X:X:X:X:X:X:X:X",
":X:X:X:X:X:X:X:X:X:X:X:X:X:X1 g i.U.U.L.L.[.%X-X-X-X-X-X-X-X-X-X-X-X-X-X-X-X-X-X-X-X-X-X-X%X[.U.U.a.h 1 :X:X:X:X:X:X:X:X:X:X:X:X",
":X:X:X:X:X:X:X:X:X:X:X:X:X:X. ; Z X.X.y.g.J. X$X$X$X|.|.|.|.|.|.|.|.|.|.|.|.|.|.|.|.|.$X$X_.p.X.+.| = . :X:X:X:X:X:X:X:X:X:X:X:X",
":X:X:X:X:X:X:X:X:X:X:X:X:X:XX + ; 4 4 g y.J.L.L.L.P.H.S.S.S.S.S.S.S.S.S.S.S.S.S.S.S.S.H.I.p.g 1 3 , @ . :X:X:X:X:X:X:X:X:X:X:X:X",
":X:X:X:X:X:X:X:X:X:X:X:X:X:X3 e 3 3 4 g +.G.j.j.j.h.d.$.$.$.$.#.#.#.#.#.#.#.#.$.$.$.$.d.F.u.g - @ # ; 2 :X:X:X:X:X:X:X:X:X:X:X:X",
":X:X:X:X:X:X:X:X:X:X:X:Xo 3  .y.y.X.X.+.%.A.F.j.j.k.h.h.h.f.%.#.#.#.#.$.#.#.#.$.s.h.h.h.F.F.u.Z ; ; S [ 4 . :X:X:X:X:X:X:X:X:X:X",
":X:X:X:X:X:X:X:X:X:X:X:X, u  .y.+.u.h.s.O.O.s.G.j.j.j.j.j.k.d.$.$.#.#.#.#.$.$.d.F.j.j.j.G.G.G.X.3 ; ' [ t , :X:X:X:X:X:X:X:X:X:X",
":X:X:X:X:X:X:X:X:X:XX 6 M J i 1 1 g @.O.f f +.G.G.G.j.j.j.j.h.d.$.#.#.#.#.$.f.h.F.j.G.F.G.G.G.X.3 + ; t A A 5 X :X:X:X:X:X:X:X:X",
":X:X:X:X:X:X:X:X:X:XX 8 R ^ l 7 5 t ] ' r l a.I.K.K.K.L.L.L.L.L.H.S.H.S.S.H.K.I.I.K.L.K.K.K.K.y.e @ $ b ! Y 8 X :X:X:X:X:X:X:X:X",
":X:X:X:X:X:X:X:X:X:XX 7 7.B.C.7.T B t d =.W.OX+X{.{.+X%X%X%X%X+X$X.X.X.X+X$X$X%X%X%X%X+X{.{.{.2.9 & M ! / Y 8 X :X:X:X:X:X:X:X:X",
":X:X:X:X:X:X:X:X:X:XX 7 J 0.0.7.T J t h 5.}.$X+X{.{.+X%X%X%X%X%X%X%X;X%X%X%X%X%X%X%X%X+X{.{./.2.9 & M Y Y M 5 X :X:X:X:X:X:X:X:X",
":X:X:X:X:X:X:X:X:X:X:X:X7 7 7 7 8 t ] O.D.I.K.L.K.K.I.U.U.U.U.[.U.U.U.U.U.U.U.U.U.I.L.K.K.K.K.y.3 # & 8 6 5 :X:X:X:X:X:X:X:X:X:X",
":X:X:X:X:X:X:X:X:X:X:X:XO X X X o 2 { &.F.G.k.G.G.g.y.X...y.X...X.X.X.o.,...y.y...y.g.G.j.j.J.X.3 X X O X X :X:X:X:X:X:X:X:X:X:X",
":X:X:X:X:X:X:X:X:X:X:X:X:X:X:X:X. < { &.F.F.k.G.J.y.g 3 3 3 3 3 3 3 3 3 3 3 3 3 1 g u.G.G.J.J.X.e X :X:X:X:X:X:X:X:X:X:X:X:X:X:X",
":X:X:X:X:X:X:X:X:X:X:X:X:X:X:X:XO < } A.F.D.G.G.F.o.3 . . O X X X X X X X X X @ - f @.F.F.F.G...3 X :X:X:X:X:X:X:X:X:X:X:X:X:X:X",
":X:X:X:X:X:X:X:X:X:X:X:X:X:X:X:XX < } &.F.j.G.G.A.O.2 . :X:X:X:X:X:X:X:X:X:XX ; ' O.$.&.&.&.&.O.2 X :X:X:X:X:X:X:X:X:X:X:X:X:X:X",
":X:X:X:X:X:X:X:X:X:X:X:X:X:X:X:XX < { &.A.G.F.s.O.S > X :X:X:X:X:X:X:X:X:X:XX < ] { } } } } { ' < X :X:X:X:X:X:X:X:X:X:X:X:X:X:X",
":X:X:X:X:X:X:X:X:X:X:X:X:X:X:X:XX 2 { *.&.*.A.O.f : :X:X:X:X:X:X:X:X:X:X:X:X:X:X2 3 2 3 < 1 2 < :X:X:X:X:X:X:X:X:X:X:X:X:X:X:X:X",
":X:X:X:X:X:X:X:X:X:X:X:X:X:X:X:XO ; ' { { { { ' : o :X:X:X:X:X:X:X:X:X:X:X:X:X:XX X X X X O X X :X:X:X:X:X:X:X:X:X:X:X:X:X:X:X:X",
":X:X:X:X:X:X:X:X:X:X:X:X:X:X:X:XO # ; 3 2 < 2 > :X:X:X:X:X:X:X:X:X:X:X:X:X:X:X:X:X:X:X:X:X:X:X:X:X:X:X:X:X:X:X:X:X:X:X:X:X:X:X:X",
":X:X:X:X:X:X:X:X:X:X:X:X:X:X:X:XO O O X X X X X :X:X:X:X:X:X:X:X:X:X:X:X:X:X:X:X:X:X:X:X:X:X:X:X:X:X:X:X:X:X:X:X:X:X:X:X:X:X:X:X"
};
