/* XPM */
static char *result[] = {
/* columns rows colors chars-per-pixel */
"64 64 202 2 ",
"   c #151425",
".  c #161929",
"X  c #1A1A2B",
"o  c #161827",
"O  c #281E34",
"+  c #2C2733",
"@  c #4D3E3C",
"#  c #433839",
"$  c #3E394A",
"%  c #3D2645",
"&  c #462D4A",
"*  c #4C334D",
"=  c #4A364B",
"-  c #51394F",
";  c #513351",
":  c #543B51",
">  c #4C3752",
",  c #4E4848",
"<  c #51494B",
"1  c #514441",
"2  c #444553",
"3  c #464856",
"4  c #484957",
"5  c #4C4D5B",
"6  c #494857",
"7  c #504F5C",
"8  c #52515F",
"9  c #4E505D",
"0  c #674D5A",
"q  c #6D5E5F",
"w  c #66565A",
"e  c #765E4E",
"r  c #7C6E5D",
"t  c #555461",
"y  c #585663",
"u  c #595864",
"i  c #78486C",
"p  c #7B536C",
"a  c #7D5970",
"s  c #6D6366",
"d  c #706A6E",
"f  c #6D6F7E",
"g  c #766477",
"h  c #74757E",
"j  c #6E707B",
"k  c #D76B38",
"l  c #9E7E61",
"z  c #83797B",
"x  c #81777A",
"c  c #906F6E",
"v  c #94606C",
"b  c #DC7C4A",
"n  c #D97950",
"m  c #BD9367",
"M  c #AC8F77",
"N  c #A9886C",
"B  c #91827A",
"V  c #DB835D",
"C  c #E28F59",
"Z  c #E4905B",
"A  c #DF8B60",
"S  c #DC8560",
"D  c #C69D73",
"F  c #C89E73",
"G  c #E08B60",
"H  c #E49767",
"J  c #CCA478",
"K  c #D4A675",
"L  c #EEB57C",
"P  c #F2B67B",
"I  c #EFA86B",
"U  c #737384",
"Y  c #7D7C85",
"T  c #6F6F80",
"R  c #974E83",
"E  c #9B5284",
"W  c #BA5D9B",
"Q  c #B75B99",
"!  c #9E6381",
"~  c #A26A85",
"^  c #BF7B9A",
"/  c #BD649C",
"(  c #B471A2",
")  c #C27B9A",
"_  c #C1759C",
"`  c #C0679E",
"'  c #CA6BA5",
"]  c #CA68A5",
"[  c #CD7CA3",
"{  c #EA6EBC",
"}  c #EC75BD",
"|  c #EA76BA",
" . c #F57EC3",
".. c #F87EC5",
"X. c #8D929B",
"o. c #90939A",
"O. c #848691",
"+. c #A99583",
"@. c #9394A2",
"#. c #999CA3",
"$. c #A4A3AA",
"%. c #A9AFB6",
"&. c #A7AEB5",
"*. c #ACB4B9",
"=. c #A8B3B7",
"-. c #B6B5BA",
";. c #B3B9BE",
":. c #B0ADB2",
">. c #B1A1A2",
",. c #C6809E",
"<. c #C4AC8B",
"1. c #D6AE81",
"2. c #C3AF91",
"3. c #C4B192",
"4. c #CDB99A",
"5. c #D6BD9B",
"6. c #D6B180",
"7. c #F1BF8F",
"8. c #F1BF90",
"9. c #ECB287",
"0. c #CF82A5",
"q. c #D284A6",
"w. c #D488AA",
"e. c #CC95AF",
"r. c #D49BB4",
"t. c #D297B0",
"y. c #CA84B3",
"u. c #EC88B9",
"i. c #F186BE",
"p. c #ED94B8",
"a. c #F593BE",
"s. c #F89BBF",
"d. c #C0AFBD",
"f. c #EDBEA8",
"g. c #EBB8A3",
"h. c #D9C39C",
"j. c #FAC98D",
"k. c #F7C487",
"l. c #F3C292",
"z. c #F3CB9C",
"x. c #F7C997",
"c. c #FBD29A",
"v. c #EFCA98",
"b. c #EEC1AD",
"n. c #FAD5A3",
"m. c #FDD9A5",
"M. c #FCDCAA",
"N. c #F7D7A5",
"B. c #FFE2B2",
"V. c #B9BEC4",
"C. c #F687C2",
"Z. c #EF92CD",
"A. c #EF99CD",
"S. c #FA95C2",
"D. c #FA9DC1",
"F. c #F698C8",
"G. c #F796D2",
"H. c #FEA1C5",
"J. c #F1AECA",
"K. c #FAABCC",
"L. c #F3B1CC",
"P. c #F9B3CE",
"I. c #FBB5D1",
"U. c #FFB8D4",
"Y. c #F2AACA",
"T. c #BEC4C9",
"R. c #BAC1C6",
"E. c #C5C6CB",
"W. c #CBCACF",
"Q. c #C5C5CA",
"!. c #C9CCD1",
"~. c #D3CCD4",
"^. c #CDD3D7",
"/. c #D1D2D7",
"(. c #D5D6DB",
"). c #DAD5DB",
"_. c #F3D7CA",
"`. c #E1D4DE",
"'. c #F5DBD1",
"]. c #F2D0DE",
"[. c #F4CBDC",
"{. c #D5DFE2",
"}. c #DDDDE2",
"|. c #FFCCE2",
" X c #ECDBE6",
".X c #E7D6E2",
"XX c #FADDEF",
"oX c #FDDEF1",
"OX c #DEE4E7",
"+X c #E5ECEE",
"@X c #E4E8EA",
"#X c #F7E4ED",
"$X c #EAEFF1",
"%X c #E7EEF0",
"&X c #FCE6F1",
"*X c #FEEBF3",
"=X c #EBF1F2",
"-X c #F3F4F6",
";X c #F6F8F9",
":X c #FEFEFE",
">X c #FCF3F8",
",X c None",
/* pixels */
",X,X,X,X,X,X,X,X,X,X,X,X,X,X,X,X,X,X,X,X,X,X,X,X,X,X,X,X,X,X,X,X,X,X,X,X,X,X,X,X,X,X,X,X,X,X,X,X,X,X,X,X,X,X,X,X,X,X,X,X,X,X,X,X",
",X,X,X,X,X,X,X,X,X,X,X,X,X,X,X,X,X,X,X,X,X,X,X,X,X,X,X,X,X,X,X,X,X,X,X,X,X,X,X,X,X,X,X,X,X,X,X,X,X,X,X,X,X,X,X,X,X,X,X,X,X,X,X,X",
",X,X,X,X,X,X,X,X,X,X,X,X,X,X,X,X,X,X,X,X,X,X,X,X,X,X,X,X,X,X,X,X,X,X,X,X,X,X,X,X,X,X,X,X,X,X,X,X,X,X,X,X,X,X,X,X,X,X,X,X,X,X,X,X",
",X,X,X,X,X,X,X,X,X,X,X,X,X,X,X,X,X,X,X,X,X,X,X,X,X,X,X,X,X,X,X,X,X,X,X,X,X,X,X,X,X,X,X,X,X,X,X,X,X,X,X,X,X,X,X,X,X,X,X,X,X,X,X,X",
",X,X,X,X,X,X,X,X,X,X,X,X,X,X,X,X,X,X,X,X,X,X,X,X,X,X,X,X,X,X,X,X,X,X,X,X,X,X,X,X,X,X,X,X,X,X,X,X,X,X,X,X,X,X,X,X,X,X,X,X,X,X,X,X",
",X,X,X,X,X,X,X,X,X,X,X,X,X,X,X,X,X,X,X,X,X,X,X,X,X,X,X,X,X,X,X,X,X,X,X,X,X,X,X,X,X,X,X,X,X,X,X,X,X,X,X,X,X,X,X,X,X,X,X,X,X,X,X,X",
",X,X,X,X,X,X,X,X,X,X,X,X,X,X,X,X,X,X,X,X,X,X,X,X,X,X,X,X,X,X,X,X,X,X,X,X,X,X,X,X,X,X,X,X,X,X,X,X,X,X,X,X,X,X,X,X,X,X,X,X,X,X,X,X",
",X,X,X,X,X,X,X,X,X,X,X,X,X,X,X,X,X,X,X,X,X,X,X,X,X,X,X,X,X,X,X,X,X,X,X,X,X,X,X,X,X,X,X,X,X,X,X,X,X,X,X,X,X,X,X,X,X,X,X,X,X,X,X,X",
",X,X,X,X,X,X,X,X,X,X,X,X,X,X,X,X,X,X,X,X,X,X,X,X,X,X,X,X,X,X,X,X,X,X,X,X,X,X,X,X,X,X,X,X,X,X,X,X,X,X,X,X,X,X,X,X,X,X,X,X,X,X,X,X",
",X,X,X,X,X,X,X,X,X,X,X,X,X,X,X,X,X,X,X,X,X,X,X,X,X,X,X,X,X,X,X,X,X,X,X,X,X,X,X,X,X,X,X,X,X,X,X,X,X,X,X,X,X,X,X,X,X,X,X,X,X,X,X,X",
",X,X,X,X,X,X,X,X,X,X,X,X,X,X,X,X,X,X,X,X,X,X,X,X,X,X,X,X,X,X,X,X,X,X,X,X,X,X,X,X,X,X,X,X,X,X,X,X,X,X,X,X,X,X,X,X,X,X,X,X,X,X,X,X",
",X,X,X,X,X,X,X,X,X,X,X,X,X,X,X,X,X,X,X,X,X,X,X,X,X,X,X,X,X,X,X,X,X,X,X,X,X,X,X,X,X,X,X,X,X,X,X,X,X,X,X,X,X,X,X,X,X,X,X,X,X,X,X,X",
",X,X,X,X,X,X,X,X,X,X,X,X,X,X,X,X,X,X,X,X,X,X,X,X,X,X,X,X,X,X,X,X,X,X,X,X,X,X,X,X,X,X,X,X,X,X,X,X,X,X,X,X,X,X,X,X,X,X,X,X,X,X,X,X",
",X,X,X,X,X,X,X,X,X,X,X,X,X,X,X,X,X,X,X,X,X,X,X,X,X,X,X,X,X,X,X,X,X,X,X,X,X,X,X,X,X,X,X,X,X,X,X,X,X,X,X,X,X,X,X,X,X,X,X,X,X,X,X,X",
",X,X,X,X,X,X,X,X,X,X,X,X,X,X,X,XX X X X X X ,X,X,X,X,X,X,X,X,X,X,X,X,X,X,X,X,X,XX X X X X X ,X,X,X,X,X,X,X,X,X,X,X,X,X,X,X,X,X,X",
",X,X,X,X,X,X,X,X,X,X,X,X,X,X,X,X6 7 8 8 y 7 ,X,X,X,X,X,X,X,X,X,X,X,X,X,X,X,X,X,X6 7 8 8 y 7 ,X,X,X,X,X,X,X,X,X,X,X,X,X,X,X,X,X,X",
",X,X,X,X,X,X,X,X,X,X,X,X,X,X  2 X.-.Q.E.W.$.6   ,X,X,X,X,X,X,X,X,X,X,X,X,X,Xo 2 X.;.Q.W.T.$.6   ,X,X,X,X,X,X,X,X,X,X,X,X,X,X,X,X",
",X,X,X,X,X,X,X,X,X,X,X,X,X,X2 j E.=X:X:X:X(.~ 6 ,X,X,X,X,X,X,X,X,X,X,X,X,X,X3 U V.$X;X:X:X^.~ 5 ,X,X,X,X,X,X,X,X,X,X,X,X,X,X,X,X",
",X,X,X,X,X,X,X,X,X,X,X,XX 6 X.T.+X:X:X:X:X=X^.$.7 X ,X,X,X,X,X,X,X,X,X,XX 4 X.T.(.+X:X:X:X=X).$.7 X ,X,X,X,X,X,X,X,X,X,X,X,X,X,X",
",X,X,X,X,X,X,X,X,X,X,X,XX 5 *.=X:X:X:X:X:X:X:XT.8 X ,X,X,X,X,X,X,X,X,X,Xo 2 O.R.^.OX=X;X:X:X:XE.y X ,X,X,X,X,X,X,X,X,X,X,X,X,X,X",
",X,X,X,X,X,X,X,X,X,X,X,XX 5 *.%X:X:X:X:X:X:X:XW.8     X X X . X X X o X X O $ j R.OXOX%X:X:X:XE.8 X ,X,X,X,X,X,X,X,X,X,X,X,X,X,X",
",X,X,X,X,X,X,X,X,X,X,X,Xo 4 &.%X;X:X:X:X:X:X:X(.O.8 8 8 8 u u u y y y y u t 8 Y T.=X%X=X;X:X:XQ.8   ,X,X,X,X,X,X,X,X,X,X,X,X,X,X",
",X,X,X,X,X,X,X,X,X,X,X,Xo 6 &.+X:X:X:X:X:X:X:X-X).W.W.!.W.W.!.!.W.W.W.~.~.W.W.(.=X:X;X;X:X:X:XQ.7   ,X,X,X,X,X,X,X,X,X,X,X,X,X,X",
",X,X,X,X,X,X,X,X,X,X,X,X3 j R.%X-X;X;X;X:X:X:X-X@X(.).(.(.).(.(.(.(.(.(.(.(.(.(.(.^.^.OX-X:X:X(.~ 9 ,X,X,X,X,X,X,X,X,X,X,X,X,X,X",
",X,X,X,X,X,X,X,X,X,XX 6 X.Q.@X-X+XOXOX%X:X:X:X).@.U U U U U U U U U U U U U U U U j j @.}.:X:X-X).$.8 X ,X,X,X,X,X,X,X,X,X,X,X,X",
",X,X,X,X,X,X,X,X,X,XX 5 *.=X:X;X@XOXOXOX;X;XOX-.z q q q q q q q q q q q q q q s q q q z -..X-X:X:XE.8 X ,X,X,X,X,X,X,X,X,X,X,X,X",
",X,X,X,X,X,X,X,X,X,XX 5 *.$X:X;XOXOX{.OX:X).@.r M F D D D D D D D D D D D D F F K F F M h o.}.:X:XE.8 X ,X,X,X,X,X,X,X,X,X,X,X,X",
",X,X,X,X,X,X,X,X,X,XX 5 %.+X:X;X=XOXOXOX(.:.h c K k.k.j.j.j.j.j.j.j.j.j.j.k.I I I I 7.1.c z -.@X:XW.u X ,X,X,X,X,X,X,X,X,X,X,X,X",
",X,X,X,X,X,X,X,X,X,XX 5 &.+X;X:X;X;X:X^.Y s N K L k.c.M.M.M.M.N.M.N.m.N.M.l.C k k Z x.z.1.M z #.@XW.t o ,X,X,X,X,X,X,X,X,X,X,X,X",
",X,X,X,X,X,X,X,X,X,XX 5 %.%X:X:X;X:X:XE.5 # D k.k.k.l.l.l.l.k.L 8.z.M.M.z.9.H S S H 9.x.j.J q T /.W.y X ,X,X,X,X,X,X,X,X,X,X,X,X",
",X,X,X,X,X,X,X,X,X,XX 5 %.%X:X;X=X=X:XE.7 @ D k.c.l.H k b V k V b H z.z.H H b.'.'.f.H H l.4.s U (.W.y X ,X,X,X,X,X,X,X,X,X,X,X,X",
",X,X,X,X,X,X,X,X,X,XX 5 %.+X;X;X%X=X:XE.8 @ m k.M.l.V k n V V V k n l.8.n V _.:X:X'.n b 8.4.d U (.W.y X ,X,X,X,X,X,X,X,X,X,X,X,X",
",X,X,X,X,X,X,X,X,X,XX 5 =.%X:X:X;X:X:XW.8 @ m j.M.8.b n g.'.'.g.n b l.8.b V _.:X:X_.V b j.4.d U (.W.y o ,X,X,X,X,X,X,X,X,X,X,X,X",
",X,X,X,X,X,X,X,X,X,XX 5 %.+X;X:X:X:X:XE.8 @ m j.M.7.b V _.:X:X_.S b 8.8.b S _.:X:X_.V b l.4.d U (.W.y X ,X,X,X,X,X,X,X,X,X,X,X,X",
",X,X,X,X,X,X,X,X,X,XX 5 %.+X;X:X:X:X:XE.8 @ m j.M.7.b V _.:X:X_.V b 8.8.b V _.:X:X_.V V l.4.d U ).W.y X ,X,X,X,X,X,X,X,X,X,X,X,X",
",X,X,X,X,X,X,X,X,X,Xo 5 %.%X:X:X:X:X:XE.9 @ m j.M.x.C G f.'.'.f.A C v.x.C G f.'.'.g.C Z x.5.d U (.W.y X ,X,X,X,X,X,X,X,X,X,X,X,X",
",X,X,X,X,X,X,X,X,X,XX 5 %.%X;X:X:X:X:XE.9 @ m j.M.n.L H G V V G H L n.n.L H A V V G H P c.h.d T (.W.y X ,X,X,X,X,X,X,X,X,X,X,X,X",
",X,X,X,X,X,X,X,X,X,XX 5 =.+X:X:X:X:X:X/.h w N J v.m.c.P Z b b Z P c.M.M.c.P Z b b Z P x.h.>.U X..XE.y o ,X,X,X,X,X,X,X,X,X,X,X,X",
",X,X,X,X,X,X,X,X,X,XX 7 %.+X:X:X:X:X:X$XE.o.w e K c.m.c.x.l.l.x.m.M.B.B.M.m.x.l.j.x.M.h.B h $.^.;XW.t X ,X,X,X,X,X,X,X,X,X,X,X,X",
",X,X,X,X,X,X,X,X,X,XX 5 =.=X;X:X:X:X:X:X=XR.j 7 N m <.3.3.2.3.3.2.2.2.2.2.3.3.3.3.3.3.+.h O.!.-X:XE.t X ,X,X,X,X,X,X,X,X,X,X,X,X",
",X,X,X,X,X,X,X,X,X,XX 5 *.=X;X:X:X:X:X:X:X+XT.o.w 1 , < < < < < < < , < < < < < < < , s #.!.+X:X:XE.y o ,X,X,X,X,X,X,X,X,X,X,X,X",
",X,X,X,X,X,X,X,X,X,XX 6 X.Q. X>X:X:X:X:X:X:X=XQ.U 5 5 8 8 8 8 t 8 8 8 8 8 t 8 8 8 5 9 U Q.-X*X#X).$.7 X ,X,X,X,X,X,X,X,X,X,X,X,X",
",X,X,X,X,X,X,X,X,X,X,X,X2 g t.|.*X:X:X:X:X:X:X=X/.E.E.E.E.E.E.E.E.E.Q.Q.E.E.E.Q.Q.Q.Q.(.=X>X|.r.g 7 ,X,X,X,X,X,X,X,X,X,X,X,X,X,X",
",X,X,X,X,X,X,X,X,X,X,X,X  = ! r.].*X*X&X&X*X:X:X:X:X:X:X:X:X:X:X:X:X:X:X:X:X:X:X:X:X>X>X*X].r.! *   ,X,X,X,X,X,X,X,X,X,X,X,X,X,X",
",X,X,X,X,X,X,X,X,X,X,X,X,X,X* a t.U.I.P.P.|.*X:X:X:X:X:X:X:X:X:X:X:X:X:X:X:X:X:X:X*X|.U.U.r.a = ,X,X,X,X,X,X,X,X,X,X,X,X,X,X,X,X",
",X,X,X,X,X,X,X,X,X,X,X,X,X,X  - _ S.s.s.s.K.|. X~.~. XoXoXXXoXXXXXoXXXXXXXoXXX&X&X].e.) ) ~ = . ,X,X,X,X,X,X,X,X,X,X,X,X,X,X,X,X",
",X,X,X,X,X,X,X,X,X,X,X,X,X,XX ; / C.s.s.s.D.G.y.a g y.Z.Z.Z.Z.Z.Z.Z.Z.Z.Z.Z.Z.G.P.t.p - : - ,X,X,X,X,X,X,X,X,X,X,X,X,X,X,X,X,X,X",
",X,X,X,X,X,X,X,X,X,X,X,X,X,XX * R ' u.H.H.u.] E 0 0 E ] | } } { { { { | } } } i.S.q.p % O X ,X,X,X,X,X,X,X,X,X,X,X,X,X,X,X,X,X,X",
",X,X,X,X,X,X,X,X,X,X,X,X,X,X,X,X& i y.H.H.0.i 0 M M w i [ C.} { { { { | u.a.a.a.S.F.w.v = X ,X,X,X,X,X,X,X,X,X,X,X,X,X,X,X,X,X,X",
",X,X,X,X,X,X,X,X,X,X,X,X,X,X,X,X. ; ' a.w.~ < c h.3.< = ) D.C.} } { } C.F.s.D.s.s.H.H.,.: X ,X,X,X,X,X,X,X,X,X,X,X,X,X,X,X,X,X,X",
",X,X,X,X,X,X,X,X,X,X,X,X,X,X,X,X. ; ` ] p q N K N.3.< = ^ D.D.i.}  .u.D.s.s.s.s.s.H.H.) : X ,X,X,X,X,X,X,X,X,X,X,X,X,X,X,X,X,X,X",
",X,X,X,X,X,X,X,X,X,X,X,X,X,X,X,X. & R v % + l D 2.+.q p q.D.D.a.u.| a.s.s.s.s.s.s.D.H.^ - . ,X,X,X,X,X,X,X,X,X,X,X,X,X,X,X,X,X,X",
",X,X,X,X,X,X,X,X,X,X,X,X,X,X,X,XX O & & O O # 1 , w ~ w.p.H.s.a.S.F.s.D.s.s.s.s.s.D.D.^ -   ,X,X,X,X,X,X,X,X,X,X,X,X,X,X,X,X,X,X",
",X,X,X,X,X,X,X,X,X,X,X,X,X,X,X,X5 9 4 4 5 9 8 5 4 g r.U.U.I.I.I.L.L.I.P.I.I.I.P.J.J.L.e.g 3 ,X,X,X,X,X,X,X,X,X,X,X,X,X,X,X,X,X,X",
",X,X,X,X,X,X,X,X,X,X,X,X,X,XX 4 @.*.*.=.=.;.Q.T.*.V. X*X*X*X*X&X*X*X&X*X*X&X*X#X`.`.).~.V.X.3   ,X,X,X,X,X,X,X,X,X,X,X,X,X,X,X,X",
",X,X,X,X,X,X,X,X,X,X,X,X,X,XX 6 $..X.X.X). X&X#X X X&X*X*X*X*X*X*X*X*X*X*X*X*X#X.X).)..X.X-.g = ,X,X,X,X,X,X,X,X,X,X,X,X,X,X,X,X",
",X,X,X,X,X,X,X,X,X,X,X,X,X,XX > ( A.J.J.L.P.I.U.I.I.U.U.U.U.U.U.U.U.U.U.U.U.U.I.J.J.J.J.L.Y.w.~ - X ,X,X,X,X,X,X,X,X,X,X,X,X,X,X",
",X,X,X,X,X,X,X,X,X,X,X,X,X,X& i ] i.S.s.s.s.D.a.0.^ ^ ) ) ) ) ) ) ) ) ) ) ) ) [ u.S.D.D.s.s.H.,.: X ,X,X,X,X,X,X,X,X,X,X,X,X,X,X",
",X,X,X,X,X,X,X,X,X,X,X,XX ; R ' u.a.F.D.s.D.D.q.p - : : : : : : - : : : : - - i ' C.S.D.s.D.H.,.: X ,X,X,X,X,X,X,X,X,X,X,X,X,X,X",
",X,X,X,X,X,X,X,X,X,X,X,XX ; W ..C.a.a.F.S.p.q.~ = o . X X X X X X X X X X . o & R ' u.S.S.S.S._ : X ,X,X,X,X,X,X,X,X,X,X,X,X,X,X",
",X,X,X,X,X,X,X,X,X,X,X,XX ; ` ..C. . . . .' i = ,X,X,X,X,X,X,X,X,X,X,X,X,X,X,X,X& i '  . . .../ : X ,X,X,X,X,X,X,X,X,X,X,X,X,X,X",
",X,X,X,X,X,X,X,X,X,X,X,XX ; R W W W Q Q W R * . ,X,X,X,X,X,X,X,X,X,X,X,X,X,X,X,X. & R W W W W E ; X ,X,X,X,X,X,X,X,X,X,X,X,X,X,X",
",X,X,X,X,X,X,X,X,X,X,X,X,X,X; ; ; ; ; ; ; * ,X,X,X,X,X,X,X,X,X,X,X,X,X,X,X,X,X,X,X,X; > ; ; ; > ,X,X,X,X,X,X,X,X,X,X,X,X,X,X,X,X",
",X,X,X,X,X,X,X,X,X,X,X,X,X,XX X X X X X X X ,X,X,X,X,X,X,X,X,X,X,X,X,X,X,X,X,X,X,X,XX X X X X X ,X,X,X,X,X,X,X,X,X,X,X,X,X,X,X,X"
};
