/* XPM */
static char *result[] = {
/* columns rows colors chars-per-pixel */
"64 64 199 2 ",
"   c #151425",
".  c #161929",
"X  c #1A192B",
"o  c #161728",
"O  c #201E2F",
"+  c #241F33",
"@  c #272334",
"#  c #3F3739",
"$  c #4D3E3C",
"%  c #43393B",
"&  c #4B403E",
"*  c #3E394A",
"=  c #3E2946",
"-  c #442D49",
";  c #492E4C",
":  c #412B47",
">  c #4C334C",
",  c #473549",
"<  c #503A4F",
"1  c #4E3551",
"2  c #513352",
"3  c #543C51",
"4  c #4D2F50",
"5  c #4E4444",
"6  c #544543",
"7  c #514A4C",
"8  c #564946",
"9  c #484957",
"0  c #4D4D5B",
"q  c #474655",
"w  c #504F5C",
"e  c #544852",
"r  c #52515F",
"t  c #6B4956",
"y  c #6D5E5F",
"u  c #665659",
"i  c #765E4E",
"p  c #555461",
"a  c #585663",
"s  c #595864",
"d  c #5F4C67",
"f  c #75456A",
"g  c #79526B",
"h  c #75546F",
"j  c #6D6061",
"k  c #6C666A",
"l  c #706A6E",
"z  c #6D6F7E",
"x  c #776777",
"c  c #74757E",
"v  c #6E707B",
"b  c #7F6652",
"n  c #DB733C",
"m  c #D36435",
"M  c #99795C",
"N  c #806E5F",
"B  c #A07F5F",
"V  c #904C7E",
"C  c #9E7E61",
"Z  c #82787B",
"A  c #926C72",
"S  c #A57D64",
"D  c #DC7D4A",
"F  c #D97950",
"G  c #BD9367",
"H  c #AF8F74",
"J  c #A88B71",
"K  c #91827A",
"L  c #DC845E",
"P  c #E28F59",
"I  c #E4905B",
"U  c #DF8B60",
"Y  c #C59B6D",
"T  c #C69D73",
"R  c #C89E73",
"E  c #E08B60",
"W  c #E49767",
"Q  c #CAA478",
"!  c #D5A774",
"~  c #EEA568",
"^  c #EEB57C",
"/  c #F3B77C",
"(  c #F1AE72",
")  c #737384",
"_  c #7D7C85",
"`  c #6F6F80",
"'  c #974E83",
"]  c #9D5687",
"[  c #A25688",
"{  c #BC5D9C",
"}  c #996480",
"|  c #A26886",
" . c #B66895",
".. c #C37C9C",
"X. c #C2759C",
"o. c #C96AA4",
"O. c #CB7CA4",
"+. c #D270AB",
"@. c #EA6EBC",
"#. c #EC75BC",
"$. c #EB79BB",
"%. c #F67CC4",
"&. c #8D919B",
"*. c #90939A",
"=. c #848691",
"-. c #9394A2",
";. c #999CA3",
":. c #BD8BA4",
">. c #A4A3AA",
",. c #A9AFB6",
"<. c #ABAAB3",
"1. c #ACB3B9",
"2. c #B5B5BB",
"3. c #B7ACB7",
"4. c #AF9F8D",
"5. c #C6AD8B",
"6. c #C3AF91",
"7. c #C4B092",
"8. c #CCB899",
"9. c #D6BD9B",
"0. c #D7AF81",
"q. c #F1BF8F",
"w. c #F1BF90",
"e. c #ECB287",
"r. c #CD82A3",
"t. c #D284A6",
"y. c #D599B4",
"u. c #D197B0",
"i. c #CF98B1",
"p. c #EA89B8",
"a. c #F183BE",
"s. c #F188BE",
"d. c #EC93B7",
"f. c #F492BE",
"g. c #F89BBF",
"h. c #F798BF",
"j. c #ECBCA6",
"k. c #FAC98D",
"l. c #F7C487",
"z. c #F3C292",
"x. c #F5CA99",
"c. c #FBD29A",
"v. c #EFCA98",
"b. c #EEC1AD",
"n. c #FDD9A5",
"m. c #FCDCAA",
"M. c #F9D5A3",
"N. c #FFE2B2",
"B. c #D9C19B",
"V. c #B6BDC2",
"C. c #F885C4",
"Z. c #EF93CD",
"A. c #E69CC0",
"S. c #FA95C2",
"D. c #FB9CC1",
"F. c #F39ACB",
"G. c #FEA1C4",
"H. c #F6ADCC",
"J. c #F4B1CC",
"K. c #FAB3CE",
"L. c #F8AED1",
"P. c #FBB6D1",
"I. c #FFB9D4",
"U. c #BEC4C9",
"Y. c #BAC1C6",
"T. c #C6C6CB",
"R. c #CBCACF",
"E. c #C5C5CA",
"W. c #C9CCD1",
"Q. c #CDD3D7",
"!. c #D1D2D7",
"~. c #D5D6DB",
"^. c #D7D8DB",
"/. c #F3D7CA",
"(. c #F5D9CE",
"). c #F2D0DF",
"_. c #EBCFDC",
"`. c #DDDDE2",
"'. c #D5DFE2",
"]. c #FFCBE0",
"[. c #E5D7E1",
"{. c #E9DBE4",
"}. c #FADDEF",
"|. c #FDD5E5",
" X c #FADFF1",
".X c #DEE4E7",
"XX c #E5ECEE",
"oX c #E4E8EA",
"OX c #F6E3EC",
"+X c #EAEFF1",
"@X c #E7EEF0",
"#X c #FCE5F1",
"$X c #FEEBF3",
"%X c #EBF1F2",
"&X c #F3F4F6",
"*X c #F6F8F9",
"=X c #FEFEFE",
"-X c #FCF3F8",
";X c None",
/* pixels */
";X;X;X;X;X;X;X;X;X;X;X;X;X;X;X;X;X;X;X;X;X;X;X;X;X;X;X;X;X;X;X;X;X;X;X;X;X;X;X;X;X;X;X;X;X;X;X;X;X;X;X;X;X;X;X;X;X;X;X;X;X;X;X;X",
";X;X;X;X;X;X;X;X;X;X;X;X;X;X;X;X;X;X;X;X;X;X;X;X;X;X;X;X;X;X;X;X;X;X;X;X;X;X;X;X;X;X;X;X;X;X;X;X;X;X;X;X;X;X;X;X;X;X;X;X;X;X;X;X",
";X;X;X;X;X;X;X;X;X;X;X;X;X;X;X;X;X;X;X;X;X;X;X;X;X;X;X;X;X;X;X;X;X;X;X;X;X;X;X;X;X;X;X;X;X;X;X;X;X;X;X;X;X;X;X;X;X;X;X;X;X;X;X;X",
";X;X;X;X;X;X;X;X;X;X;X;X;X;X;X;X;X;X;X;X;X;X;X;X;X;X;X;X;X;X;X;X;X;X;X;X;X;X;X;X;X;X;X;X;X;X;X;X;X;X;X;X;X;X;X;X;X;X;X;X;X;X;X;X",
";X;X;X;X;X;X;X;X;X;X;X;X;X;X;X;X;X;X;X;X;X;X;X;X;X;X;X;X;X;X;X;X;X;X;X;X;X;X;X;X;X;X;X;X;X;X;X;X;X;X;X;X;X;X;X;X;X;X;X;X;X;X;X;X",
";X;X;X;X;X;X;X;X;X;X;X;X;X;X;X;X;X;X;X;X;X;X;X;X;X;X;X;X;X;X;X;X;X;X;X;X;X;X;X;X;X;X;X;X;X;X;X;X;X;X;X;X;X;X;X;X;X;X;X;X;X;X;X;X",
";X;X;X;X;X;X;X;X;X;X;X;X;X;X;X;X;X;X;X;X;X;X;X;X;X;X;X;X;X;X;X;X;X;X;X;X;X;X;X;X;X;X;X;X;X;X;X;X;X;X;X;X;X;X;X;X;X;X;X;X;X;X;X;X",
";X;X;X;X;X;X;X;X;X;X;X;X;X;X;X;X;X;X;X;X;X;X;X;X;X;X;X;X;X;X;X;X;X;X;X;X;X;X;X;X;X;X;X;X;X;X;X;X;X;X;X;X;X;X;X;X;X;X;X;X;X;X;X;X",
";X;X;X;X;X;X;X;X;X;X;X;X;X;X;X;X;X;X;X;X;X;X;X;X;X;X;X;X;X;X;X;X;X;X;X;X;X;X;X;X;X;X;X;X;X;X;X;X;X;X;X;X;X;X;X;X;X;X;X;X;X;X;X;X",
";X;X;X;X;X;X;X;X;X;X;X;X;X;X;X;X;X;X;X;X;X;X;X;X;X;X;X;X;X;X;X;X;X;X;X;X;X;X;X;X;X;X;X;X;X;X;X;X;X;X;X;X;X;X;X;X;X;X;X;X;X;X;X;X",
";X;X;X;X;X;X;X;X;X;X;X;X;X;X;X;X;X;X;X;X;X;X;X;X;X;X;X;X;X;X;X;X;X;X;X;X;X;X;X;X;X;X;X;X;X;X;X;X;X;X;X;X;X;X;X;X;X;X;X;X;X;X;X;X",
";X;X;X;X;X;X;X;X;X;X;X;X;X;X;X;X;X;X;X;X;X;X;X;X;X;X;X;X;X;X;X;X;X;X;X;X;X;X;X;X;X;X;X;X;X;X;X;X;X;X;X;X;X;X;X;X;X;X;X;X;X;X;X;X",
";X;X;X;X;X;X;X;X;X;X;X;X;X;X;X;X;X;X;X;X;X;X;X;X;X;X;X;X;X;X;X;X;X;X;X;X;X;X;X;X;X;X;X;X;X;X;X;X;X;X;X;X;X;X;X;X;X;X;X;X;X;X;X;X",
";X;X;X;X;X;X;X;X;X;X;X;X;X;X;X;X;X;X;X;X;X;X;X;X;X;X;X;X;X;X;X;X;X;X;X;X;X;X;X;X;X;X;X;X;X;X;X;X;X;X;X;X;X;X;X;X;X;X;X;X;X;X;X;X",
";X;X;X;X;X;X;X;X;X;X;X;X;X;X;X;XX X X X X X ;X;X;X;X;X;X;X;X;X;X;X;X;X;X;X;X;X;X;X;X;X;XX X X X X X ;X;X;X;X;X;X;X;X;X;X;X;X;X;X",
";X;X;X;X;X;X;X;X;X;X;X;X;X;X;X;X9 0 w p p w ;X;X;X;X;X;X;X;X;X;X;X;X;X;X;X;X;X;X;X;X;X;X9 w r r p w ;X;X;X;X;X;X;X;X;X;X;X;X;X;X",
";X;X;X;X;X;X;X;X;X;X;X;X;X;X  q &.2.E.T.R.>.0   ;X;X;X;X;X;X;X;X;X;X;X;X;X;X;X;X;X;X  q &.2.E.R.R.>.9   ;X;X;X;X;X;X;X;X;X;X;X;X",
";X;X;X;X;X;X;X;X;X;X;X;X;X;Xq v U.%X=X=X=X~._ 9 ;X;X;X;X;X;X;X;X;X;X;X;X;X;X;X;X;X;Xq ` Y.+X*X=X=X~.} 0 ;X;X;X;X;X;X;X;X;X;X;X;X",
";X;X;X;X;X;X;X;X;X;X;X;XX 9 &.U.XX=X=X=X=X&X^.>.w X ;X;X;X;X;X;X;X;X;X;X;X;X;X;XX 0 -.Y.~.XX*X=X=X%X'.>.r . ;X;X;X;X;X;X;X;X;X;X",
";X;X;X;X;X;X;X;X;X;X;X;XX 0 1.%X*X=X=X=X=X=X=XT.p o ;X;X;X;X;X;X;X;X;X;X;X;X;X;XX * =.Y.'..X&X*X=X=X=XU.r O ;X;X;X;X;X;X;X;X;X;X",
";X;X;X;X;X;X;X;X;X;X;X;XX 0 1.@X=X=X=X=X=X=X=XT.p     X X X X X X X X X . X X X X @ * c V..X.X@X*X=X=XT.p X ;X;X;X;X;X;X;X;X;X;X",
";X;X;X;X;X;X;X;X;X;X;X;Xo 9 ,.XX*X=X=X=X=X=X=X^._ p p a a a p p a a a p s s p a s r p c E.@XXX+X*X=X=XT.r   ;X;X;X;X;X;X;X;X;X;X",
";X;X;X;X;X;X;X;X;X;X;X;Xo 9 ,.XX*X=X=X=X=X=X=X&X`.R.R.T.R.R.R.R.R.R.R.R.R.R.R.W.W.W.W.^.+X=X=X*X=X=X=XT.r . ;X;X;X;X;X;X;X;X;X;X",
";X;X;X;X;X;X;X;X;X;X;X;Xq v U.%X*X*X*X*X=X=X=X&X[.~.~.`.~.~.~.'.~.~.~.~.^.^.^.^.^.~.^.~.!.!.!.`.&X=X=X~.} 0 ;X;X;X;X;X;X;X;X;X;X",
";X;X;X;X;X;X;X;X;X;XX 9 &.T.XX%XXX.X.X@X*X=X=X^.;.) ) ) ) ) ) ) ) ) ) ) ) ) ) ) ) ) ) ) ) ) ` -.^.=X=X&X^.>.w o ;X;X;X;X;X;X;X;X",
";X;X;X;X;X;X;X;X;X;XX 0 1.@X=X*XoX.X.X.X*X*X.X2.Z y y y y y y y y h y y j y j j j j k j y y y Z 2.oX&X=X=XT.a X ;X;X;X;X;X;X;X;X",
";X;X;X;X;X;X;X;X;X;XX 0 1.%X=X*X.X.X'..X*X[.*.Z H R T T T T T T R Y R Y T Y T T T T T T T R R H Z -.^.=X=XT.a X ;X;X;X;X;X;X;X;X",
";X;X;X;X;X;X;X;X;X;XX 0 ,.XX=X*X%X.X.X.X!.3.Z N ! l.k.l.k.k.k.k.k.k.k.k.l.k.k.l.( ~ ~ ~ ~ ( l.0.A Z 3.oX=XR.r o ;X;X;X;X;X;X;X;X",
";X;X;X;X;X;X;X;X;X;XX 0 <.XX*X=X*X=X=XQ._ j J ! ^ l.M.m.m.m.M.M.m.m.m.m.m.M.m.z.P n n D n I z.v.! H K -..XR.s X ;X;X;X;X;X;X;X;X",
";X;X;X;X;X;X;X;X;X;XX 0 ,.XX=X=X=X*X=XT.0 % G l.l.l.z.w.q.q.q.q.w.w.w.x.m.m.v.e.W L U F L W e.z.k.Q j ) ~.R.s o ;X;X;X;X;X;X;X;X",
";X;X;X;X;X;X;X;X;X;XX 0 ,.@X=X*X@X%X=XT.r $ Y k.c.z.W D D D D F D D D W v.v.W W b.(.(.(.(.b.W W z.8.k ) ~.R.s X ;X;X;X;X;X;X;X;X",
";X;X;X;X;X;X;X;X;X;XX 0 ,.XX*X*X@X@X=XT.r $ G l.m.z.D m F L U U U F m F w.q.F U /.=X=X=X=X/.L D z.8.l ) ^.R.s X ;X;X;X;X;X;X;X;X",
";X;X;X;X;X;X;X;X;X;XX 0 ,.@X*X=X*X=X=XT.r & G k.m.q.D F j.(.(.(.(.j.F F w.w.D L /.=X=X=X=X/.L D z.8.l ) ~.R.a X ;X;X;X;X;X;X;X;X",
";X;X;X;X;X;X;X;X;X;Xo 0 ,.XX=X=X=X=X=XT.r & G k.m.q.D L /.=X=X=X=X/.U D w.w.D L (.=X=X=X=X(.L D z.9.l ) ~.R.a X ;X;X;X;X;X;X;X;X",
";X;X;X;X;X;X;X;X;X;XX 0 ,.XX=X=X=X=X=XT.r & G k.m.q.D L /.=X=X=X=X/.F D z.z.D L (.=X=X=X=X/.L D w.8.l ) ~.R.p X ;X;X;X;X;X;X;X;X",
";X;X;X;X;X;X;X;X;X;XX 0 ,.@X*X=X=X=X=XT.w $ G k.m.z.P E j.(.(.(./.j.E W v.x.L U j.(.(.(.(.j.E I x.9.l ) ~.R.a X ;X;X;X;X;X;X;X;X",
";X;X;X;X;X;X;X;X;X;XX 0 ,.@X*X=X=X=X=XT.r & G k.m.M.^ W P U F E L P W ^ c.M.^ W E E F F L L W / n.9.l ) Q.W.s X ;X;X;X;X;X;X;X;X",
";X;X;X;X;X;X;X;X;X;XX 0 ,.XX=X=X=X=X=X!.) u J R v.n.c./ I D D D D I / c.m.m.c./ I D D P P I / v.9.4._ &..XW.p X ;X;X;X;X;X;X;X;X",
";X;X;X;X;X;X;X;X;X;XX 0 ,.XX*X=X=X=X=X+XU.*.u i Q k.n.M.x.z.z.z.z.x.M.m.N.N.N.M.k.z.z.z.q.k.M.B.K } >.Q.&XT.s . ;X;X;X;X;X;X;X;X",
";X;X;X;X;X;X;X;X;X;XX 0 1.@X=X=X=X=X=X=X&XU.v e J Y 5.6.7.7.7.7.7.7.6.6.6.6.6.7.7.7.7.7.7.7.6.4.c =.U.*X=XT.p X ;X;X;X;X;X;X;X;X",
";X;X;X;X;X;X;X;X;X;XX 0 1.%X=X=X=X=X=X=X=XXXU.&.u & 5 7 7 7 7 7 7 7 7 7 7 7 7 7 7 7 7 7 7 7 7 j ;.W.XX=X=XT.p X ;X;X;X;X;X;X;X;X",
";X;X;X;X;X;X;X;X;X;XX 9 &.E.{.-X=X=X=X=X=X=X%XE.) w r r r r r p r r r r r p 0 r r r 0 p p w 0 ) U.&X$XOX~.>.w X ;X;X;X;X;X;X;X;X",
";X;X;X;X;X;X;X;X;X;X;X;Xq x i.].$X=X=X=X=X=X=X%X!.T.T.T.T.T.T.T.T.T.T.T.T.T.T.T.T.T.T.T.T.T.T.!.%X$X].y.Z 9 ;X;X;X;X;X;X;X;X;X;X",
";X;X;X;X;X;X;X;X;X;X;X;X  , } y.|.$X$X$X#X$X=X=X=X=X=X=X=X=X=X=X=X=X=X=X=X=X=X=X=X=X=X=X=X=X-X$X$X|.u.| ;   ;X;X;X;X;X;X;X;X;X;X",
";X;X;X;X;X;X;X;X;X;X;X;X;X;X< g y.I.I.K.K.].$X=X=X=X=X=X=X=X=X=X=X=X=X=X=X=X=X=X=X=X=X=X=X$X].I.I.y.h 1 ;X;X;X;X;X;X;X;X;X;X;X;X",
";X;X;X;X;X;X;X;X;X;X;X;X;X;X. - A ....r.d.H.|.#X#X#X X}.}.}.}.}.}.}.}.}.}.}.}.}.}.}.}.#X#X).u...O.A * o ;X;X;X;X;X;X;X;X;X;X;X;X",
";X;X;X;X;X;X;X;X;X;X;X;X;X;XX @ - < > g t.G.K.K.K.H.F.Z.Z.Z.Z.Z.Z.Z.Z.Z.Z.Z.Z.Z.Z.Z.Z.F.P.u.g < 3 > + X ;X;X;X;X;X;X;X;X;X;X;X;X",
";X;X;X;X;X;X;X;X;X;X;X;X;X;X3 3 3 < < g O.S.g.g.D.f.a.#.#.#.#.@.@.@.@.@.@.@.@.#.#.#.#.a.S.t.g = + + - 2 ;X;X;X;X;X;X;X;X;X;X;X;X",
";X;X;X;X;X;X;X;X;X;X;X;Xo < | t.r.....O.$.C.h.g.g.g.f.f.f.s.#.@.@.@.@.@.@.@.@.$.s.f.f.f.S.S.t.A - : ' [ 4 . ;X;X;X;X;X;X;X;X;X;X",
";X;X;X;X;X;X;X;X;X;X;X;X, u | r.O.t.f.p.o.{ p.g.g.g.g.g.g.f.s.#.%.@.@.#.@.@.$.a.f.g.g.h.D.D.D...3 : ' [ t $ ;X;X;X;X;X;X;X;X;X;X",
";X;X;X;X;X;X;X;X;X;XX 6 M J i 1 > g +.+.f f O.D.D.D.g.g.g.g.f.s.#.@.@.@.@.$.s.f.h.g.D.D.D.D.D...3 + : t S B 6 X ;X;X;X;X;X;X;X;X",
";X;X;X;X;X;X;X;X;X;XX 8 R ^ l 7 5 t ] ] a x i.P.J.J.J.J.K.P.K.H.F.Z.Z.Z.Z.F.H.K.P.P.J.J.J.J.J.r.e O % N ! T 8 X ;X;X;X;X;X;X;X;X",
";X;X;X;X;X;X;X;X;X;XO 7 5.M.B.5.Q S t d *.E.oXOX[.[.OX$X$X#X$X#X}.#X X XOX#X$X$X#X$X$XOX[.[.[.<.9 % M ! / Y 8 X ;X;X;X;X;X;X;X;X",
";X;X;X;X;X;X;X;X;X;XX 7 J 8.8.5.Q S t d 3.{.$XOX[.[.OX$X$X$X$X$X$X$X$X$X$X$X$X$X$X$X$XOX[.^.[.<.9 % M T Y M 5 X ;X;X;X;X;X;X;X;X",
";X;X;X;X;X;X;X;X;X;X;X;X7 7 7 7 8 t [ o.A.K.J.J.J.J.J.P.I.I.I.K.I.].I.I.P.I.I.I.I.I.J.J.J.J.J.:.3 @ $ 8 6 5 ;X;X;X;X;X;X;X;X;X;X",
";X;X;X;X;X;X;X;X;X;X;X;XX . O X . 2 { %.S.D.g.h.g.D.g.d.r......... ...X.:. .r.r. .r.d.D.D.D.G...3 X X X X X ;X;X;X;X;X;X;X;X;X;X",
";X;X;X;X;X;X;X;X;X;X;X;X;X;X;X;X. 2 { C.S.D.G.g.h.D.D.r.g < 3 3 < < 3 3 3 3 e 3 , h r.G.g.g.D.O.3 X ;X;X;X;X;X;X;X;X;X;X;X;X;X;X",
";X;X;X;X;X;X;X;X;X;X;X;X;X;X;X;XX 4 ' o.p.S.G.G.D.G.G.r.3 . . X X X X X X X X + = f r.G.G.D.S.X.3 X ;X;X;X;X;X;X;X;X;X;X;X;X;X;X",
";X;X;X;X;X;X;X;X;X;X;X;X;X;X;X;X;X;X; f o.C.D.G.G.G.G...3 . ;X;X;X;X;X;X;X;XX : V o.p.G.g.S.C. .2 O ;X;X;X;X;X;X;X;X;X;X;X;X;X;X",
";X;X;X;X;X;X;X;X;X;X;X;X;X;X;X;X;X;X. > ' { O. . ...r.| < X ;X;X;X;X;X;X;X;XX 2 { %.S.S.D.p.o.' 4 X ;X;X;X;X;X;X;X;X;X;X;X;X;X;X",
";X;X;X;X;X;X;X;X;X;X;X;X;X;X;X;X;X;X;X;X4 1 3 3 e e 3 < ;X;X;X;X;X;X;X;X;X;XX 2 { %.%.%.C.o.f ; ;X;X;X;X;X;X;X;X;X;X;X;X;X;X;X;X",
";X;X;X;X;X;X;X;X;X;X;X;X;X;X;X;X;X;X;X;XX O X X O X X X ;X;X;X;X;X;X;X;X;X;XX ; ' { { { { ' > . ;X;X;X;X;X;X;X;X;X;X;X;X;X;X;X;X",
";X;X;X;X;X;X;X;X;X;X;X;X;X;X;X;X;X;X;X;X;X;X;X;X;X;X;X;X;X;X;X;X;X;X;X;X;X;X@ @ - 2 2 1 4 4 ;X;X;X;X;X;X;X;X;X;X;X;X;X;X;X;X;X;X",
";X;X;X;X;X;X;X;X;X;X;X;X;X;X;X;X;X;X;X;X;X;X;X;X;X;X;X;X;X;X;X;X;X;X;X;X;X;X@ O O X X X X X ;X;X;X;X;X;X;X;X;X;X;X;X;X;X;X;X;X;X"
};
