/* XPM */
static char *result[] = {
/* columns rows colors chars-per-pixel */
"64 64 201 2 ",
"   c #151425",
".  c #161929",
"X  c #1A192B",
"o  c #161728",
"O  c #261F34",
"+  c #262233",
"@  c #292334",
"#  c #3F3739",
"$  c #4D3E3C",
"%  c #43393B",
"&  c #4B403E",
"*  c #3E394A",
"=  c #3E2946",
"-  c #492E4C",
";  c #432C48",
":  c #4C334C",
">  c #473549",
",  c #4F3451",
"<  c #513351",
"1  c #543B51",
"2  c #4F3550",
"3  c #4E4444",
"4  c #544543",
"5  c #514A4C",
"6  c #564946",
"7  c #484957",
"8  c #4D4D5B",
"9  c #474655",
"0  c #504F5C",
"q  c #544852",
"w  c #52515F",
"e  c #6B4956",
"r  c #6D5E5F",
"t  c #665659",
"y  c #765E4E",
"u  c #555461",
"i  c #585663",
"p  c #595864",
"a  c #5F4C67",
"s  c #75456A",
"d  c #79526B",
"f  c #75546F",
"g  c #6D6366",
"h  c #706A6E",
"j  c #6D6F7E",
"k  c #776777",
"l  c #74757E",
"z  c #6E707B",
"x  c #7F6652",
"c  c #D76B38",
"v  c #99795C",
"b  c #806E5F",
"n  c #A07F5F",
"m  c #9E7E61",
"M  c #83797B",
"N  c #81777A",
"B  c #926C72",
"V  c #A57D64",
"C  c #8F4A7D",
"Z  c #DC7C4A",
"A  c #D97950",
"S  c #BD9367",
"D  c #AF8F74",
"F  c #A9917A",
"G  c #A78568",
"H  c #91827A",
"J  c #DB835D",
"K  c #E28F59",
"L  c #E4905B",
"P  c #DF8B60",
"I  c #DC8560",
"U  c #C59B6D",
"Y  c #C69D73",
"T  c #C89E73",
"R  c #E08B60",
"E  c #E49767",
"W  c #CAA478",
"Q  c #D5A774",
"!  c #EEB57C",
"~  c #F3B77C",
"^  c #EFA86B",
"/  c #737384",
"(  c #7D7C85",
")  c #6F6F80",
"_  c #974D83",
"`  c #984F84",
"'  c #9A5385",
"]  c #A25688",
"[  c #BB5D9C",
"{  c #B75B99",
"}  c #996480",
"|  c #A26785",
" . c #B66895",
".. c #C37B9B",
"X. c #C2769D",
"o. c #C96AA4",
"O. c #CB7CA4",
"+. c #D270AB",
"@. c #EA6EBC",
"#. c #EC74BC",
"$. c #EB79BB",
"%. c #F57DC3",
"&. c #F97DC6",
"*. c #8D919B",
"=. c #90939A",
"-. c #848691",
";. c #9394A2",
":. c #999CA3",
">. c #BD8BA4",
",. c #A4A3AA",
"<. c #A9AFB6",
"1. c #ABAAB3",
"2. c #ACB3B9",
"3. c #B5B5BB",
"4. c #B7ACB7",
"5. c #AF9F8D",
"6. c #C6AD8B",
"7. c #D6AE81",
"8. c #C3AF91",
"9. c #C4B092",
"0. c #CCB899",
"q. c #D6BD9B",
"w. c #D9B181",
"e. c #F1BF8F",
"r. c #F1BF90",
"t. c #ECB287",
"y. c #CD82A3",
"u. c #D285A6",
"i. c #D599B4",
"p. c #D197B0",
"a. c #CF98B1",
"s. c #EA89B8",
"d. c #F183BE",
"f. c #F188BE",
"g. c #EC93B7",
"h. c #F492BE",
"j. c #F89BBF",
"k. c #F798BF",
"l. c #ECBCA6",
"z. c #D9C19B",
"x. c #FAC98D",
"c. c #F7C487",
"v. c #F3C292",
"b. c #F5CA99",
"n. c #FBD29A",
"m. c #EFCA98",
"M. c #EEC1AD",
"N. c #FAD5A3",
"B. c #FDD9A5",
"V. c #FCDCAA",
"C. c #F7D6A5",
"Z. c #FFE2B2",
"A. c #B6BDC2",
"S. c #F98AC4",
"D. c #EF92CD",
"F. c #E69CC0",
"G. c #F994C1",
"H. c #FC9CC2",
"J. c #F39ACB",
"K. c #FAA8CA",
"L. c #F5B1CC",
"P. c #FAB3CF",
"I. c #FBB6D0",
"U. c #FFB9D4",
"Y. c #FBAFD2",
"T. c #BEC4C9",
"R. c #BAC1C6",
"E. c #C5C6CB",
"W. c #CBCACF",
"Q. c #C5C5CA",
"!. c #C9CCD1",
"~. c #CDD3D7",
"^. c #D1D2D7",
"/. c #D5D6DB",
"(. c #D7D8DB",
"). c #F3D7CA",
"_. c #E1D4DE",
"`. c #F5DBD1",
"'. c #F2D0DF",
"]. c #F5CADB",
"[. c #DDDDE2",
"{. c #D5DFE2",
"}. c #FFCBE0",
"|. c #E8D9E3",
" X c #FADDEF",
".X c #FDD5E5",
"XX c #DEE4E7",
"oX c #E5ECEE",
"OX c #E4E8EA",
"+X c #F6E4EC",
"@X c #F9E6EF",
"#X c #EAEFF1",
"$X c #E7EEF0",
"%X c #FCE4F1",
"&X c #FEEBF3",
"*X c #EBF1F2",
"=X c #F3F4F6",
"-X c #F6F8F9",
";X c #FEFEFE",
":X c #FCF3F8",
">X c None",
/* pixels */
">X>X>X>X>X>X>X>X>X>X>X>X>X>X>X>X>X>X>X>X>X>X>X>X>X>X>X>X>X>X>X>X>X>X>X>X>X>X>X>X>X>X>X>X>X>X>X>X>X>X>X>X>X>X>X>X>X>X>X>X>X>X>X>X",
">X>X>X>X>X>X>X>X>X>X>X>X>X>X>X>X>X>X>X>X>X>X>X>X>X>X>X>X>X>X>X>X>X>X>X>X>X>X>X>X>X>X>X>X>X>X>X>X>X>X>X>X>X>X>X>X>X>X>X>X>X>X>X>X",
">X>X>X>X>X>X>X>X>X>X>X>X>X>X>X>X>X>X>X>X>X>X>X>X>X>X>X>X>X>X>X>X>X>X>X>X>X>X>X>X>X>X>X>X>X>X>X>X>X>X>X>X>X>X>X>X>X>X>X>X>X>X>X>X",
">X>X>X>X>X>X>X>X>X>X>X>X>X>X>X>X>X>X>X>X>X>X>X>X>X>X>X>X>X>X>X>X>X>X>X>X>X>X>X>X>X>X>X>X>X>X>X>X>X>X>X>X>X>X>X>X>X>X>X>X>X>X>X>X",
">X>X>X>X>X>X>X>X>X>X>X>X>X>X>X>X>X>X>X>X>X>X>X>X>X>X>X>X>X>X>X>X>X>X>X>X>X>X>X>X>X>X>X>X>X>X>X>X>X>X>X>X>X>X>X>X>X>X>X>X>X>X>X>X",
">X>X>X>X>X>X>X>X>X>X>X>X>X>X>X>X>X>X>X>X>X>X>X>X>X>X>X>X>X>X>X>X>X>X>X>X>X>X>X>X>X>X>X>X>X>X>X>X>X>X>X>X>X>X>X>X>X>X>X>X>X>X>X>X",
">X>X>X>X>X>X>X>X>X>X>X>X>X>X>X>X>X>X>X>X>X>X>X>X>X>X>X>X>X>X>X>X>X>X>X>X>X>X>X>X>X>X>X>X>X>X>X>X>X>X>X>X>X>X>X>X>X>X>X>X>X>X>X>X",
">X>X>X>X>X>X>X>X>X>X>X>X>X>X>X>X>X>X>X>X>X>X>X>X>X>X>X>X>X>X>X>X>X>X>X>X>X>X>X>X>X>X>X>X>X>X>X>X>X>X>X>X>X>X>X>X>X>X>X>X>X>X>X>X",
">X>X>X>X>X>X>X>X>X>X>X>X>X>X>X>XX X X X o X >X>X>X>X>X>X>X>X>X>X>X>X>X>X>X>X>X>XX X . X . . >X>X>X>X>X>X>X>X>X>X>X>X>X>X>X>X>X>X",
">X>X>X>X>X>X>X>X>X>X>X>X>X>X>X>X7 8 w u u 0 >X>X>X>X>X>X>X>X>X>X>X>X>X>X>X>X>X>X7 w w w u 8 >X>X>X>X>X>X>X>X>X>X>X>X>X>X>X>X>X>X",
">X>X>X>X>X>X>X>X>X>X>X>X>X>X  9 *.3.E.E.E.,.8   >X>X>X>X>X>X>X>X>X>X>X>X>X>X  9 *.3.Q.W.E.,.7   >X>X>X>X>X>X>X>X>X>X>X>X>X>X>X>X",
">X>X>X>X>X>X>X>X>X>X>X>X>X>X9 z T.=X;X;X;X(.( 8 >X>X>X>X>X>X>X>X>X>X>X>X>X>X9 l R.$X;X;X;X{.} 8 >X>X>X>X>X>X>X>X>X>X>X>X>X>X>X>X",
">X>X>X>X>X>X>X>X>X>X>X>XX 7 *.T.oX;X;X;X;X=X(.,.0 X >X>X>X>X>X>X>X>X>X>XX 7 ;.R.~.$X-X;X;X=X(.,.w X >X>X>X>X>X>X>X>X>X>X>X>X>X>X",
">X>X>X>X>X>X>X>X>X>X>X>XX 8 2.*X;X;X;X;X;X;X;XE.w X >X>X>X>X>X>X>X>X>X>X. > -.R.~.XX*X-X;X;X;XE.p o >X>X>X>X>X>X>X>X>X>X>X>X>X>X",
">X>X>X>X>X>X>X>X>X>X>X>XX 8 2.$X-X;X;X;X;X;X;XE.w     X X X X . X o X X X + * z R.XXXX$X-X;X;XE.u X >X>X>X>X>X>X>X>X>X>X>X>X>X>X",
">X>X>X>X>X>X>X>X>X>X>X>Xo 7 <.oX;X;X;X;X;X;X;X{.} u u i p p w p i i i i p p w ( T.*X$X*X;X;X;XE.u   >X>X>X>X>X>X>X>X>X>X>X>X>X>X",
">X>X>X>X>X>X>X>X>X>X>X>XX 9 <.oX-X;X;X;X;X;X;X=X(.W.W.E.!.!.!.!.W.!.W.W.^.W.E.(.=X-X;X;X;X;X;XE.w   >X>X>X>X>X>X>X>X>X>X>X>X>X>X",
">X>X>X>X>X>X>X>X>X>X>X>X9 z R.*X=X-X-X-X;X;X;X=XXX(.(.(.(.(.(.(./././.[././.(./.^.~.~.[.=X;X;X(.( 8 >X>X>X>X>X>X>X>X>X>X>X>X>X>X",
">X>X>X>X>X>X>X>X>X>XX 7 *.Q.OX=X$XXXXXoX-X;X;X[.;.) / / / / / / / / / / / / / / / ) j =.[.;X;X=X(.,.0 X >X>X>X>X>X>X>X>X>X>X>X>X",
">X>X>X>X>X>X>X>X>X>XX 8 2.*X;X-XOXXXXXXX-X-X|.3.M r r r d r r r r r r r r r g g r r r M 3.|.=X;X;XE.u X >X>X>X>X>X>X>X>X>X>X>X>X",
">X>X>X>X>X>X>X>X>X>XX 8 2.*X;X-XXXXXXXOX;X[.;.M D U U U Y Y Y Y Y Y Y Y T Y T Y T W T D ( *.{.;X;XE.u X >X>X>X>X>X>X>X>X>X>X>X>X",
">X>X>X>X>X>X>X>X>X>XX 8 <.oX;X-X$XXXXXXX~.1.M b Q c.x.x.x.x.x.x.x.x.x.v.x.c.^ ^ ^ ^ c.7.m M 3.OX;XE.w X >X>X>X>X>X>X>X>X>X>X>X>X",
">X>X>X>X>X>X>X>X>X>XX 8 <.oX-X;X;X-X;X!.( r G Q ! c.N.V.B.B.V.V.V.C.B.B.V.v.L c c K v.b.Q F M ;.OXE.i X >X>X>X>X>X>X>X>X>X>X>X>X",
">X>X>X>X>X>X>X>X>X>XX 8 <.$X;X;X-X;X;XE.8 $ U c.c.v.v.r.r.r.r.r.r.b.V.V.b.t.E J I E t.b.x.W d ) /.W.i X >X>X>X>X>X>X>X>X>X>X>X>X",
">X>X>X>X>X>X>X>X>X>XX 8 <.oX-X-X$X*X;XE.8 $ S x.N.v.E Z Z Z Z Z A E m.m.E E M.'.`.l.E E b.0.h / (.W.i X >X>X>X>X>X>X>X>X>X>X>X>X",
">X>X>X>X>X>X>X>X>X>XX 8 2.oX;X-XoX*X;XE.u $ S x.V.v.Z c A J I A c A v.v.Z A ).;X;X).A A r.q.h / (.W.u X >X>X>X>X>X>X>X>X>X>X>X>X",
">X>X>X>X>X>X>X>X>X>XX 8 <.oX;X;X-X;X;XE.w $ S x.V.e.Z A l.`.`.l.A Z v.v.Z J ).;X;X).J Z r.0.h / /.W.i X >X>X>X>X>X>X>X>X>X>X>X>X",
">X>X>X>X>X>X>X>X>X>XX 8 2.oX-X;X;X;X;XE.w $ S x.V.e.Z J ).;X;X).J Z v.r.Z J ).;X;X).K Z r.q.h / (.W.i X >X>X>X>X>X>X>X>X>X>X>X>X",
">X>X>X>X>X>X>X>X>X>XX 7 <.$X-X;X;X;X;XE.u $ S x.V.e.Z J ).;X;X).J Z v.v.Z J ).;X;X).J Z v.0.h / /.W.u X >X>X>X>X>X>X>X>X>X>X>X>X",
">X>X>X>X>X>X>X>X>X>XX 8 <.$X;X;X;X;X;XE.0 $ U x.V.v.K K l.`.`.l.P L v.m.L R l.`.`.l.R K b.0.h / /.W.u X >X>X>X>X>X>X>X>X>X>X>X>X",
">X>X>X>X>X>X>X>X>X>XX 8 <.$X-X;X;X;X;XE.8 $ S x.V.C.! E P J J R E ! C.N.~ E R I K R E ~ B.q.h ) /.W.p X >X>X>X>X>X>X>X>X>X>X>X>X",
">X>X>X>X>X>X>X>X>X>XX 8 <.oX-X;X;X;X;X^./ t G W m.N.n.! L Z Z L ~ n.V.V.n.~ L Z Z L ~ b.q.5.( *.|.W.u X >X>X>X>X>X>X>X>X>X>X>X>X",
">X>X>X>X>X>X>X>X>X>XX 8 2.oX;X;X;X;X;X#XT.=.t y Q n.B.B.b.v.v.b.N.V.Z.Z.V.N.b.v.v.b.B.z.H l ,.~.*XE.p X >X>X>X>X>X>X>X>X>X>X>X>X",
">X>X>X>X>X>X>X>X>X>XX 8 2.$X-X;X;X;X;X;X=XQ.z w m S 6.8.9.9.8.9.9.9.8.8.8.8.8.8.9.9.9.5.l -.!.-X;XE.u X >X>X>X>X>X>X>X>X>X>X>X>X",
">X>X>X>X>X>X>X>X>X>XX 7 2.*X;X;X;X;X;X;X;XOXT.=.t $ 5 5 6 5 5 5 5 5 5 5 5 5 5 5 5 5 5 g :.!.oX;X;XE.u X >X>X>X>X>X>X>X>X>X>X>X>X",
">X>X>X>X>X>X>X>X>X>XX 9 *.Q.|.:X;X;X;X;X;X;X=XE./ 8 8 8 u u w u w w w w w w w w w 0 8 / E.=X&X+X/.,.8 X >X>X>X>X>X>X>X>X>X>X>X>X",
">X>X>X>X>X>X>X>X>X>X>X>X9 k i.}.&X;X;X;X;X;X;X#X^.E.E.E.E.E.E.E.E.E.E.E.E.E.E.E.E.E.E.(.$X&X}.i.N 7 >X>X>X>X>X>X>X>X>X>X>X>X>X>X",
">X>X>X>X>X>X>X>X>X>X>X>Xo > | p.'.&X&X&X@X@X;X;X;X;X;X;X;X;X;X;X;X;X;X;X;X;X;X;X;X;X:X&X&X.Xi.| -   >X>X>X>X>X>X>X>X>X>X>X>X>X>X",
">X>X>X>X>X>X>X>X>X>X>X>X>X>X> d i.U.U.U.L.}.&X;X;X;X;X;X;X;X;X;X;X;X;X;X;X;X;X;X;X&X}.}.U.i.d : >X>X>X>X>X>X>X>X>X>X>X>X>X>X>X>X",
">X>X>X>X>X>X>X>X>X>X>X>X>X>X. ; B ....O.g.Y..X&X%X%X%X X X X X X X X X X X X X%X@X].p. .O.} * . >X>X>X>X>X>X>X>X>X>X>X>X>X>X>X>X",
">X>X>X>X>X>X>X>X>X>X>X>X>X>XX @ ; < : d u.K.K.P.P.Y.J.D.D.D.D.D.D.D.D.D.D.D.D.J.I.p.d , 1 ; @ . >X>X>X>X>X>X>X>X>X>X>X>X>X>X>X>X",
">X>X>X>X>X>X>X>X>X>X>X>X>X>X1 q 1 1 : f y.H.j.j.j.h.$.$.#.#.#.@.#.@.@.#.#.$.#.d.G.u.d = + @ : < >X>X>X>X>X>X>X>X>X>X>X>X>X>X>X>X",
">X>X>X>X>X>X>X>X>X>X>X>X. 2 | u.y.y. .y.$.d.k.j.j.j.h.h.h.f.#.@.@.@.@.#.f.h.h.h.H.h.u.B ; ; _ ] < o >X>X>X>X>X>X>X>X>X>X>X>X>X>X",
">X>X>X>X>X>X>X>X>X>X>X>X> t | u...u.H.s.o.o.s.j.j.j.j.j.j.k.d.#.@.#.#.d.k.j.H.j.H.H.H.y.< ; _ ] e $ >X>X>X>X>X>X>X>X>X>X>X>X>X>X",
">X>X>X>X>X>X>X>X>X>XX 6 n V t 1 < d +.o.s s ..H.H.j.j.j.j.j.h.f.#.#.f.h.G.k.j.j.k.H.H...1 + = e V V & X >X>X>X>X>X>X>X>X>X>X>X>X",
">X>X>X>X>X>X>X>X>X>XX 6 W w.b 6 3 e ' ' a h a.U.L.L.P.P.P.P.P.Y.J.J.Y.I.I.I.I.L.L.L.K.>.q + # x Q T 6 X >X>X>X>X>X>X>X>X>X>X>X>X",
">X>X>X>X>X>X>X>X>X>XX 6 6.B.z.6.W V e a *.R.|.+X|._.+X@X&X&X@X@X%X%X%X&X&X@X&X+X(._.|.1.7 % v Q e.U 6 X >X>X>X>X>X>X>X>X>X>X>X>X",
">X>X>X>X>X>X>X>X>X>XX 7 F 9.9.8.W V e f 4.+X@X@X|.|.@X&X&X&X&X&X&X&X&X&X&X&X&X+X|._.|.1.7 % v U U v 3 X >X>X>X>X>X>X>X>X>X>X>X>X",
">X>X>X>X>X>X>X>X>X>X>X>X5 q q 5 5 e ' o.F.L.P.P.P.P.P.U.U.U.U.U.U.U.U.U.U.U.U.I.L.P.P.>.q @ $ 6 & & >X>X>X>X>X>X>X>X>X>X>X>X>X>X",
">X>X>X>X>X>X>X>X>X>X>X>XX X X X . < [ &.G.H.j.g.u...X.......X...........y.y. .y.g.H.H...1 X X X X X >X>X>X>X>X>X>X>X>X>X>X>X>X>X",
">X>X>X>X>X>X>X>X>X>X>X>X>X>X>X>X. < { S.G.K.j.u.d 1 2 1 q 1 1 1 1 1 1 1 1 > 1 f y.H.K.X.1 X >X>X>X>X>X>X>X>X>X>X>X>X>X>X>X>X>X>X",
">X>X>X>X>X>X>X>X>X>X>X>X>X>X>X>XX - { %.G.H.H.X.2 . . X X X X X . X X X X + = s u.H.H.X.1 X >X>X>X>X>X>X>X>X>X>X>X>X>X>X>X>X>X>X",
">X>X>X>X>X>X>X>X>X>X>X>X>X>X>X>XX < [ %.G.H.S.[ 2 X >X>X>X>X>X>X>X>X>X>XX ; C o.g.H.S.[ < X >X>X>X>X>X>X>X>X>X>X>X>X>X>X>X>X>X>X",
">X>X>X>X>X>X>X>X>X>X>X>X>X>X>X>XX < [ %.S.s.o.` : X >X>X>X>X>X>X>X>X>X>XX < [ S.S.s.o.` < X >X>X>X>X>X>X>X>X>X>X>X>X>X>X>X>X>X>X",
">X>X>X>X>X>X>X>X>X>X>X>X>X>X>X>XX < [ &.S.o.s : >X>X>X>X>X>X>X>X>X>X>X>XX < [ &.&.o.s - >X>X>X>X>X>X>X>X>X>X>X>X>X>X>X>X>X>X>X>X",
">X>X>X>X>X>X>X>X>X>X>X>X>X>X>X>XX - _ [ [ _ - . >X>X>X>X>X>X>X>X>X>X>X>XX < ` [ [ ` - . >X>X>X>X>X>X>X>X>X>X>X>X>X>X>X>X>X>X>X>X",
">X>X>X>X>X>X>X>X>X>X>X>X>X>X>X>X>X>X, < , , >X>X>X>X>X>X>X>X>X>X>X>X>X>X>X>X: < < : >X>X>X>X>X>X>X>X>X>X>X>X>X>X>X>X>X>X>X>X>X>X",
">X>X>X>X>X>X>X>X>X>X>X>X>X>X>X>X>X>XX X X X >X>X>X>X>X>X>X>X>X>X>X>X>X>X>X>XX X X + >X>X>X>X>X>X>X>X>X>X>X>X>X>X>X>X>X>X>X>X>X>X",
">X>X>X>X>X>X>X>X>X>X>X>X>X>X>X>X>X>X>X>X>X>X>X>X>X>X>X>X>X>X>X>X>X>X>X>X>X>X>X>X>X>X>X>X>X>X>X>X>X>X>X>X>X>X>X>X>X>X>X>X>X>X>X>X",
">X>X>X>X>X>X>X>X>X>X>X>X>X>X>X>X>X>X>X>X>X>X>X>X>X>X>X>X>X>X>X>X>X>X>X>X>X>X>X>X>X>X>X>X>X>X>X>X>X>X>X>X>X>X>X>X>X>X>X>X>X>X>X>X",
">X>X>X>X>X>X>X>X>X>X>X>X>X>X>X>X>X>X>X>X>X>X>X>X>X>X>X>X>X>X>X>X>X>X>X>X>X>X>X>X>X>X>X>X>X>X>X>X>X>X>X>X>X>X>X>X>X>X>X>X>X>X>X>X",
">X>X>X>X>X>X>X>X>X>X>X>X>X>X>X>X>X>X>X>X>X>X>X>X>X>X>X>X>X>X>X>X>X>X>X>X>X>X>X>X>X>X>X>X>X>X>X>X>X>X>X>X>X>X>X>X>X>X>X>X>X>X>X>X",
">X>X>X>X>X>X>X>X>X>X>X>X>X>X>X>X>X>X>X>X>X>X>X>X>X>X>X>X>X>X>X>X>X>X>X>X>X>X>X>X>X>X>X>X>X>X>X>X>X>X>X>X>X>X>X>X>X>X>X>X>X>X>X>X",
">X>X>X>X>X>X>X>X>X>X>X>X>X>X>X>X>X>X>X>X>X>X>X>X>X>X>X>X>X>X>X>X>X>X>X>X>X>X>X>X>X>X>X>X>X>X>X>X>X>X>X>X>X>X>X>X>X>X>X>X>X>X>X>X"
};
