/* XPM */
static char *result[] = {
/* columns rows colors chars-per-pixel */
"32 32 10 1 ",
"  c #211F30",
". c #48475B",
"X c #D2612F",
"o c #F2BC7E",
"O c #EA71BD",
"+ c #FBDFB1",
"@ c #F89CC0",
"# c #D8E1E4",
"$ c white",
"% c None",
/* pixels */
"%%%%%%%%%%%%%%%%%%%%%%%%%%%%%%%%",
"%%%%%%%%%%%%%%%%%%%%%%%%%%%%%%%%",
"%%%%%%%%%%%%%%%%%%%%%%%%%%%%%%%%",
"%%%%%%%%%%%%%%%%%%%%%%%%%%%%%%%%",
"%%%%%%%%%%%%%%%%%%%%%%%%%%%%%%%%",
"%%%%%%%%   %%%%%%%%%   %%%%%%%%%",
"%%%%%%% #$$ %%%%%%% #$$ %%%%%%%%",
"%%%%%% #$$$$ %%%%% ##$$$ %%%%%%%",
"%%%%%% #$$$$        ##$$ %%%%%%%",
"%%%%%% #$$$$$$$$$$$$$$$$ %%%%%%%",
"%%%%% #$##$$..........$$$ %%%%%%",
"%%%%% #$##$.oooooooooo.$$ %%%%%%",
"%%%%% #$$$ oo++++++XX+o.$ %%%%%%",
"%%%%% #$#$ o+XXXX+X$$X+.$ %%%%%%",
"%%%%% #$$$ o+X$$X+X$$X+.$ %%%%%%",
"%%%%% #$$$ o+X$$X+X$$X+.$ %%%%%%",
"%%%%% #$$$ o+oXXo+oXXo+.$ %%%%%%",
"%%%%% #$$$# o+++++++++.#$ %%%%%%",
"%%%%% #$$$$#          #$$ %%%%%%",
"%%%%%%  #$$$$$$$$$$$$$$@ %%%%%%%",
"%%%%%% O O@$$$$$$$$$$@@  %%%%%%%",
"%%%%% @@@@@@@OOOOOOO@  OO %%%%%%",
"%%%% o @@@@@@@@OOO@@@@ O o %%%%%",
"%%%% ++ O @@@@@@O@@@@@  oo %%%%%",
"%%%%%    O@@@@@@@@@@@@    %%%%%%",
"%%%%%%%% ##$#$$$$$$$## %%%%%%%%%",
"%%%%%%%% O@@@@@@@@@@@@ %%%%%%%%%",
"%%%%%%%%% O@@       @@ %%%%%%%%%",
"%%%%%%%%% OOO %%% OOOO %%%%%%%%%",
"%%%%%%%%%%   %%%%%    %%%%%%%%%%",
"%%%%%%%%%%%%%%%%%%%%%%%%%%%%%%%%",
"%%%%%%%%%%%%%%%%%%%%%%%%%%%%%%%%"
};
